  0
SECTION
  2
HEADER
  9
$ACADVER
  1
AC1014
  9
$ACADMAINTVER
 70
     9
  9
$DWGCODEPAGE
  3
ANSI_1252
  9
$INSBASE
 10
0.0
 20
0.0
 30
0.0
  9
$EXTMIN
 10
1.000000000000000E+20
 20
1.000000000000000E+20
 30
1.000000000000000E+20
  9
$EXTMAX
 10
-1.000000000000000E+20
 20
-1.000000000000000E+20
 30
-1.000000000000000E+20
  9
$LIMMIN
 10
0.0
 20
0.0
  9
$LIMMAX
 10
12.0
 20
9.0
  9
$ORTHOMODE
 70
     0
  9
$REGENMODE
 70
     1
  9
$FILLMODE
 70
     1
  9
$QTEXTMODE
 70
     0
  9
$MIRRTEXT
 70
     1
  9
$DRAGMODE
 70
     2
  9
$LTSCALE
 40
1.0
  9
$OSMODE
 70
    37
  9
$ATTMODE
 70
     1
  9
$TEXTSIZE
 40
0.2
  9
$TRACEWID
 40
0.05
  9
$TEXTSTYLE
  7
STANDARD
  9
$CLAYER
  8
0
  9
$CELTYPE
  6
BYLAYER
  9
$CECOLOR
 62
   256
  9
$CELTSCALE
 40
1.0
  9
$DELOBJ
 70
     1
  9
$DISPSILH
 70
     0
  9
$DIMSCALE
 40
1.0
  9
$DIMASZ
 40
0.18
  9
$DIMEXO
 40
0.0625
  9
$DIMDLI
 40
0.38
  9
$DIMRND
 40
0.0
  9
$DIMDLE
 40
0.0
  9
$DIMEXE
 40
0.18
  9
$DIMTP
 40
0.0
  9
$DIMTM
 40
0.0
  9
$DIMTXT
 40
0.18
  9
$DIMCEN
 40
0.09
  9
$DIMTSZ
 40
0.0
  9
$DIMTOL
 70
     0
  9
$DIMLIM
 70
     0
  9
$DIMTIH
 70
     1
  9
$DIMTOH
 70
     1
  9
$DIMSE1
 70
     0
  9
$DIMSE2
 70
     0
  9
$DIMTAD
 70
     0
  9
$DIMZIN
 70
     0
  9
$DIMBLK
  1

  9
$DIMASO
 70
     1
  9
$DIMSHO
 70
     1
  9
$DIMPOST
  1

  9
$DIMAPOST
  1

  9
$DIMALT
 70
     0
  9
$DIMALTD
 70
     2
  9
$DIMALTF
 40
25.4
  9
$DIMLFAC
 40
1.0
  9
$DIMTOFL
 70
     0
  9
$DIMTVP
 40
0.0
  9
$DIMTIX
 70
     0
  9
$DIMSOXD
 70
     0
  9
$DIMSAH
 70
     0
  9
$DIMBLK1
  1

  9
$DIMBLK2
  1

  9
$DIMSTYLE
  2
STANDARD
  9
$DIMCLRD
 70
     0
  9
$DIMCLRE
 70
     0
  9
$DIMCLRT
 70
     0
  9
$DIMTFAC
 40
1.0
  9
$DIMGAP
 40
0.09
  9
$DIMJUST
 70
     0
  9
$DIMSD1
 70
     0
  9
$DIMSD2
 70
     0
  9
$DIMTOLJ
 70
     1
  9
$DIMTZIN
 70
     0
  9
$DIMALTZ
 70
     0
  9
$DIMALTTZ
 70
     0
  9
$DIMFIT
 70
     3
  9
$DIMUPT
 70
     0
  9
$DIMUNIT
 70
     2
  9
$DIMDEC
 70
     4
  9
$DIMTDEC
 70
     4
  9
$DIMALTU
 70
     2
  9
$DIMALTTD
 70
     2
  9
$DIMTXSTY
  7
STANDARD
  9
$DIMAUNIT
 70
     0
  9
$LUNITS
 70
     2
  9
$LUPREC
 70
     4
  9
$SKETCHINC
 40
0.1
  9
$FILLETRAD
 40
0.5
  9
$AUNITS
 70
     0
  9
$AUPREC
 70
     0
  9
$MENU
  1
.
  9
$ELEVATION
 40
0.0
  9
$PELEVATION
 40
0.0
  9
$THICKNESS
 40
0.0
  9
$LIMCHECK
 70
     0
  9
$CHAMFERA
 40
0.0
  9
$CHAMFERB
 40
0.0
  9
$CHAMFERC
 40
0.0
  9
$CHAMFERD
 40
0.0
  9
$SKPOLY
 70
     0
  9
$TDCREATE
 40
2458941.892802303
  9
$TDUPDATE
 40
2458941.892802651
  9
$TDINDWG
 40
0.0000000116
  9
$TDUSRTIMER
 40
0.0000000116
  9
$USRTIMER
 70
     1
  9
$ANGBASE
 50
0.0
  9
$ANGDIR
 70
     0
  9
$PDMODE
 70
     0
  9
$PDSIZE
 40
0.0
  9
$PLINEWID
 40
0.0
  9
$COORDS
 70
     1
  9
$SPLFRAME
 70
     0
  9
$SPLINETYPE
 70
     6
  9
$SPLINESEGS
 70
     8
  9
$ATTDIA
 70
     0
  9
$ATTREQ
 70
     1
  9
$HANDLING
 70
     1
  9
$HANDSEED
  5
2FF
  9
$SURFTAB1
 70
     6
  9
$SURFTAB2
 70
     6
  9
$SURFTYPE
 70
     6
  9
$SURFU
 70
     6
  9
$SURFV
 70
     6
  9
$UCSNAME
  2

  9
$UCSORG
 10
0.0
 20
0.0
 30
0.0
  9
$UCSXDIR
 10
1.0
 20
0.0
 30
0.0
  9
$UCSYDIR
 10
0.0
 20
1.0
 30
0.0
  9
$PUCSNAME
  2

  9
$PUCSORG
 10
0.0
 20
0.0
 30
0.0
  9
$PUCSXDIR
 10
1.0
 20
0.0
 30
0.0
  9
$PUCSYDIR
 10
0.0
 20
1.0
 30
0.0
  9
$USERI1
 70
     0
  9
$USERI2
 70
     0
  9
$USERI3
 70
     0
  9
$USERI4
 70
     0
  9
$USERI5
 70
     0
  9
$USERR1
 40
0.0
  9
$USERR2
 40
0.0
  9
$USERR3
 40
0.0
  9
$USERR4
 40
0.0
  9
$USERR5
 40
0.0
  9
$WORLDVIEW
 70
     1
  9
$SHADEDGE
 70
     3
  9
$SHADEDIF
 70
    70
  9
$TILEMODE
 70
     1
  9
$MAXACTVP
 70
    64
  9
$PINSBASE
 10
0.0
 20
0.0
 30
0.0
  9
$PLIMCHECK
 70
     0
  9
$PEXTMIN
 10
1.000000000000000E+20
 20
1.000000000000000E+20
 30
1.000000000000000E+20
  9
$PEXTMAX
 10
-1.000000000000000E+20
 20
-1.000000000000000E+20
 30
-1.000000000000000E+20
  9
$PLIMMIN
 10
0.0
 20
0.0
  9
$PLIMMAX
 10
12.0
 20
9.0
  9
$UNITMODE
 70
     0
  9
$VISRETAIN
 70
     1
  9
$PLINEGEN
 70
     0
  9
$PSLTSCALE
 70
     1
  9
$TREEDEPTH
 70
  3020
  9
$PICKSTYLE
 70
     1
  9
$CMLSTYLE
  2
STANDARD
  9
$CMLJUST
 70
     0
  9
$CMLSCALE
 40
1.0
  9
$PROXYGRAPHICS
 70
     1
  9
$MEASUREMENT
 70
     1
  0
ENDSEC
  0
SECTION
  2
CLASSES
  0
CLASS
  1
ACDBDICTIONARYWDFLT
  2
AcDbDictionaryWithDefault
  3
ObjectDBX Classes
 90
        0
280
     0
281
     0
  0
CLASS
  1
VISUALSTYLE
  2
AcDbVisualStyle
  3
ObjectDBX Classes
 90
     4095
280
     0
281
     0
  0
CLASS
  1
MATERIAL
  2
AcDbMaterial
  3
ObjectDBX Classes
 90
     1153
280
     0
281
     0
  0
CLASS
  1
SCALE
  2
AcDbScale
  3
ObjectDBX Classes
 90
     1153
280
     0
281
     0
  0
CLASS
  1
TABLESTYLE
  2
AcDbTableStyle
  3
ObjectDBX Classes
 90
     4095
280
     0
281
     0
  0
CLASS
  1
MLEADERSTYLE
  2
AcDbMLeaderStyle
  3
ACDB_MLEADERSTYLE_CLASS
 90
     4095
280
     0
281
     0
  0
CLASS
  1
SUN
  2
AcDbSun
  3
SCENEOE
 90
     1153
280
     0
281
     0
  0
CLASS
  1
DICTIONARYVAR
  2
AcDbDictionaryVar
  3
ObjectDBX Classes
 90
        0
280
     0
281
     0
  0
CLASS
  1
XRECORD
  2
AcDbXrecord
  3
ObjectDBX Classes
 90
        0
280
     0
281
     0
  0
CLASS
  1
LWPOLYLINE
  2
AcDbPolyline
  3
ObjectDBX Classes
 90
        0
280
     0
281
     1
  0
CLASS
  1
HATCH
  2
AcDbHatch
  3
ObjectDBX Classes
 90
        0
280
     0
281
     1
  0
CLASS
  1
ACDBPLACEHOLDER
  2
AcDbPlaceHolder
  3
ObjectDBX Classes
 90
        0
280
     0
281
     0
  0
CLASS
  1
LAYOUT
  2
AcDbLayout
  3
ObjectDBX Classes
 90
        0
280
     0
281
     0
  0
ENDSEC
  0
SECTION
  2
TABLES
  0
TABLE
  2
VPORT
  5
8
102
{ACAD_XDICTIONARY
360
2F4
102
}
330
0
100
AcDbSymbolTable
 70
     1
  0
VPORT
  5
29
330
8
100
AcDbSymbolTableRecord
100
AcDbViewportTableRecord
  2
*ACTIVE
 70
     0
 10
0.0
 20
0.0
 11
1.0
 21
1.0
 12
0.0
 22
0.0
 13
0.0
 23
0.0
 14
0.5
 24
0.5
 15
0.5
 25
0.5
 16
0.0
 26
0.0
 36
1.0
 17
0.0
 27
0.0
 37
-1000.0
 40
333.9914064554081
 41
1.761980830670926
 42
50.0
 43
496.8493453999019
 44
636.8503110747299
 50
0.0
 51
0.0
 71
     0
 72
   100
 73
     1
 74
     3
 75
     0
 76
     0
 77
     0
 78
     0
  0
ENDTAB
  0
TABLE
  2
LTYPE
  5
5
330
0
100
AcDbSymbolTable
 70
     1
  0
LTYPE
  5
14
330
5
100
AcDbSymbolTableRecord
100
AcDbLinetypeTableRecord
  2
BYBLOCK
 70
     0
  3

 72
    65
 73
     0
 40
0.0
  0
LTYPE
  5
15
330
5
100
AcDbSymbolTableRecord
100
AcDbLinetypeTableRecord
  2
BYLAYER
 70
     0
  3

 72
    65
 73
     0
 40
0.0
  0
LTYPE
  5
16
330
5
100
AcDbSymbolTableRecord
100
AcDbLinetypeTableRecord
  2
CONTINUOUS
 70
     0
  3
Solid line
 72
    65
 73
     0
 40
0.0
  0
ENDTAB
  0
TABLE
  2
LAYER
  5
2
330
0
100
AcDbSymbolTable
 70
     3
  0
LAYER
  5
10
330
2
100
AcDbSymbolTableRecord
100
AcDbLayerTableRecord
  2
0
 70
     0
 62
     7
  6
CONTINUOUS
  0
LAYER
  5
6E
330
2
100
AcDbSymbolTableRecord
100
AcDbLayerTableRecord
  2
PROFILEEDGES
 70
     0
 62
     7
  6
CONTINUOUS
  0
LAYER
  5
6F
330
2
100
AcDbSymbolTableRecord
100
AcDbLayerTableRecord
  2
SECTIONCUTEDGES
 70
     0
 62
     7
  6
CONTINUOUS
  0
ENDTAB
  0
TABLE
  2
STYLE
  5
3
330
0
100
AcDbSymbolTable
 70
     1
  0
STYLE
  5
11
330
3
100
AcDbSymbolTableRecord
100
AcDbTextStyleTableRecord
  2
STANDARD
 70
     0
 40
0.0
 41
1.0
 50
0.0
 71
     0
 42
0.2
  3
txt
  4

  0
ENDTAB
  0
TABLE
  2
VIEW
  5
6
330
0
100
AcDbSymbolTable
 70
     0
  0
ENDTAB
  0
TABLE
  2
UCS
  5
7
330
0
100
AcDbSymbolTable
 70
     0
  0
ENDTAB
  0
TABLE
  2
APPID
  5
9
330
0
100
AcDbSymbolTable
 70
     2
  0
APPID
  5
12
330
9
100
AcDbSymbolTableRecord
100
AcDbRegAppTableRecord
  2
ACAD
 70
     0
  0
APPID
  5
2FE
330
9
100
AcDbSymbolTableRecord
100
AcDbRegAppTableRecord
  2
ACAD_MLEADERVER
 70
     0
  0
ENDTAB
  0
TABLE
  2
DIMSTYLE
  5
A
330
0
100
AcDbSymbolTable
 70
     1
  0
DIMSTYLE
105
27
330
A
100
AcDbSymbolTableRecord
100
AcDbDimStyleTableRecord
  2
STANDARD
 70
     0
  3

  4

  5

  6

  7

 40
1.0
 41
0.18
 42
0.0625
 43
0.38
 44
0.18
 45
0.0
 46
0.0
 47
0.0
 48
0.0
140
0.18
141
0.09
142
0.0
143
25.4
144
1.0
145
0.0
146
1.0
147
0.09
 71
     0
 72
     0
 73
     1
 74
     1
 75
     0
 76
     0
 77
     0
 78
     0
170
     0
171
     2
172
     0
173
     0
174
     0
175
     0
176
     0
177
     0
178
     0
270
     2
271
     4
272
     4
273
     2
274
     2
340
11
275
     0
280
     0
281
     0
282
     0
283
     1
284
     0
285
     0
286
     0
287
     3
288
     0
  0
ENDTAB
  0
TABLE
  2
BLOCK_RECORD
  5
1
330
0
100
AcDbSymbolTable
 70
     0
  0
BLOCK_RECORD
  5
1F
330
1
100
AcDbSymbolTableRecord
100
AcDbBlockTableRecord
  2
*MODEL_SPACE
  0
BLOCK_RECORD
  5
1B
330
1
100
AcDbSymbolTableRecord
100
AcDbBlockTableRecord
  2
*PAPER_SPACE
  0
ENDTAB
  0
ENDSEC
  0
SECTION
  2
BLOCKS
  0
BLOCK
  5
20
330
1F
100
AcDbEntity
  8
0
100
AcDbBlockBegin
  2
*MODEL_SPACE
 70
     0
 10
0.0
 20
0.0
 30
0.0
  3
*MODEL_SPACE
  1

  0
ENDBLK
  5
21
330
1F
100
AcDbEntity
  8
0
100
AcDbBlockEnd
  0
BLOCK
  5
1C
330
1B
100
AcDbEntity
 67
     1
  8
0
100
AcDbBlockBegin
  2
*PAPER_SPACE
 70
     0
 10
0.0
 20
0.0
 30
0.0
  3
*PAPER_SPACE
  1

  0
ENDBLK
  5
1D
330
1B
100
AcDbEntity
 67
     1
  8
0
100
AcDbBlockEnd
  0
ENDSEC
  0
SECTION
  2
ENTITIES
  0
LWPOLYLINE
  5
70
330
1F
100
AcDbEntity
  8
PROFILEEDGES
100
AcDbPolyline
 90
        2
 70
     0
 43
0.4799999999999646
 10
172.9709939207114
 20
-84.45422606962948
 10
-186.1907460792774
 20
-84.45422605961951
  0
LWPOLYLINE
  5
71
330
1F
100
AcDbEntity
  8
PROFILEEDGES
100
AcDbPolyline
 90
        2
 70
     0
 43
0.4799999999999646
 10
-186.1907460753956
 20
54.82669981557657
 10
-186.1907460792774
 20
-84.45422605961951
  0
LWPOLYLINE
  5
72
330
1F
100
AcDbEntity
  8
PROFILEEDGES
100
AcDbPolyline
 90
        2
 70
     0
 43
0.4799999999999646
 10
172.9709939207114
 20
-84.45422606962948
 10
172.9709939245816
 20
54.8266998055978
  0
LWPOLYLINE
  5
73
330
1F
100
AcDbEntity
  8
PROFILEEDGES
100
AcDbPolyline
 90
        2
 70
     0
 43
0.4799999999999646
 10
137.0771436981157
 20
-81.34275156014512
 10
137.1034336653676
 20
-81.2522608993301
  0
LWPOLYLINE
  5
74
330
1F
100
AcDbEntity
  8
PROFILEEDGES
100
AcDbPolyline
 90
        2
 70
     0
 43
0.4799999999999646
 10
136.6066949082834
 20
-82.0349959327382
 10
136.6773795825553
 20
-81.97267900970783
  0
LWPOLYLINE
  5
75
330
1F
100
AcDbEntity
  8
PROFILEEDGES
100
AcDbPolyline
 90
        2
 70
     0
 43
0.4799999999999646
 10
136.7440118647966
 20
-81.90604672747027
 10
136.8063287878274
 20
-81.83536205320077
  0
LWPOLYLINE
  5
76
330
1F
100
AcDbEntity
  8
PROFILEEDGES
100
AcDbPolyline
 90
        2
 70
     0
 43
0.4799999999999646
 10
135.369486951777
 20
-82.3526569446457
 10
135.4625590733079
 20
-82.36739812052568
  0
LWPOLYLINE
  5
77
330
1F
100
AcDbEntity
  8
PROFILEEDGES
100
AcDbPolyline
 90
        2
 70
     0
 43
0.4799999999999646
 10
135.1870334320931
 20
-82.30581084299173
 10
135.2775240929081
 20
-82.33210081024355
  0
LWPOLYLINE
  5
78
330
1F
100
AcDbEntity
  8
PROFILEEDGES
100
AcDbPolyline
 90
        2
 70
     0
 43
0.4799999999999646
 10
134.9279284125064
 20
-82.19368608861069
 10
135.0118899863097
 20
-82.23646664724484
  0
LWPOLYLINE
  5
79
330
1F
100
AcDbEntity
  8
PROFILEEDGES
100
AcDbPolyline
 90
        2
 70
     0
 43
0.4799999999999646
 10
135.0118899863097
 20
-82.23646664724484
 10
135.0983720946305
 20
-82.27389079737974
  0
LWPOLYLINE
  5
7A
330
1F
100
AcDbEntity
  8
PROFILEEDGES
100
AcDbPolyline
 90
        2
 70
     0
 43
0.4799999999999646
 10
135.0983720946305
 20
-82.27389079737974
 10
135.1870334320931
 20
-82.30581084299173
  0
LWPOLYLINE
  5
7B
330
1F
100
AcDbEntity
  8
PROFILEEDGES
100
AcDbPolyline
 90
        2
 70
     0
 43
0.4799999999999646
 10
134.8468187311904
 20
-82.14571795679643
 10
134.9279284125064
 20
-82.19368608861069
  0
LWPOLYLINE
  5
7C
330
1F
100
AcDbEntity
  8
PROFILEEDGES
100
AcDbPolyline
 90
        2
 70
     0
 43
0.4799999999999646
 10
136.8063287878274
 20
-81.83536205320077
 10
136.8640844152292
 20
-81.76090394701833
  0
LWPOLYLINE
  5
7D
330
1F
100
AcDbEntity
  8
PROFILEEDGES
100
AcDbPolyline
 90
        2
 70
     0
 43
0.4799999999999646
 10
136.9170508119193
 20
-81.68296626104893
 10
136.9650189437335
 20
-81.60185657973297
  0
LWPOLYLINE
  5
7E
330
1F
100
AcDbEntity
  8
PROFILEEDGES
100
AcDbPolyline
 90
        2
 70
     0
 43
0.4799999999999646
 10
137.1239897997697
 20
-81.16029804046238
 10
137.1387309756497
 20
-81.06722591893036
  0
LWPOLYLINE
  5
7F
330
1F
100
AcDbEntity
  8
PROFILEEDGES
100
AcDbPolyline
 90
        2
 70
     0
 43
0.4799999999999646
 10
136.8640844152292
 20
-81.76090394701833
 10
136.9170508119193
 20
-81.68296626104893
  0
LWPOLYLINE
  5
80
330
1F
100
AcDbEntity
  8
PROFILEEDGES
100
AcDbPolyline
 90
        2
 70
     0
 43
0.4799999999999646
 10
136.6773795825553
 20
-81.97267900970783
 10
136.7440118647966
 20
-81.90604672747027
  0
LWPOLYLINE
  5
81
330
1F
100
AcDbEntity
  8
PROFILEEDGES
100
AcDbPolyline
 90
        2
 70
     0
 43
0.4799999999999646
 10
137.0077995023929
 20
-80.24055713123366
 10
136.96501894376
 20
-80.15659555742795
  0
LWPOLYLINE
  5
82
330
1F
100
AcDbEntity
  8
PROFILEEDGES
100
AcDbPolyline
 90
        2
 70
     0
 43
0.4799999999999646
 10
137.1239897997784
 20
-80.59815409670507
 10
137.1034336653814
 20
-80.5061912378362
  0
LWPOLYLINE
  5
83
330
1F
100
AcDbEntity
  8
PROFILEEDGES
100
AcDbPolyline
 90
        2
 70
     0
 43
0.4799999999999646
 10
136.9650189437335
 20
-81.60185657973297
 10
137.0077995023688
 20
-81.51789500592963
  0
LWPOLYLINE
  5
84
330
1F
100
AcDbEntity
  8
PROFILEEDGES
100
AcDbPolyline
 90
        2
 70
     0
 43
0.4799999999999646
 10
137.1475990163215
 20
-80.97341184787759
 10
137.1505589236813
 20
-80.87922606858389
  0
LWPOLYLINE
  5
85
330
1F
100
AcDbEntity
  8
PROFILEEDGES
100
AcDbPolyline
 90
        2
 70
     0
 43
0.4799999999999646
 10
137.0771436981323
 20
-80.41570057702089
 10
137.0452236525241
 20
-80.32703923955536
  0
LWPOLYLINE
  5
86
330
1F
100
AcDbEntity
  8
PROFILEEDGES
100
AcDbPolyline
 90
        2
 70
     0
 43
0.4799999999999646
 10
137.1034336653676
 20
-81.2522608993301
 10
137.1239897997697
 20
-81.16029804046238
  0
LWPOLYLINE
  5
87
330
1F
100
AcDbEntity
  8
PROFILEEDGES
100
AcDbPolyline
 90
        2
 70
     0
 43
0.4799999999999646
 10
137.1387309756497
 20
-81.06722591893036
 10
137.1475990163215
 20
-80.97341184787759
  0
LWPOLYLINE
  5
88
330
1F
100
AcDbEntity
  8
PROFILEEDGES
100
AcDbPolyline
 90
        2
 70
     0
 43
0.4799999999999646
 10
137.1505589236813
 20
-80.87922606858389
 10
137.1475990163245
 20
-80.78504028929002
  0
LWPOLYLINE
  5
89
330
1F
100
AcDbEntity
  8
PROFILEEDGES
100
AcDbPolyline
 90
        2
 70
     0
 43
0.4799999999999646
 10
137.1475990163245
 20
-80.78504028929002
 10
137.1387309756578
 20
-80.69122621823793
  0
LWPOLYLINE
  5
8A
330
1F
100
AcDbEntity
  8
PROFILEEDGES
100
AcDbPolyline
 90
        2
 70
     0
 43
0.4799999999999646
 10
137.0077995023688
 20
-81.51789500592963
 10
137.0452236525049
 20
-81.43141289760887
  0
LWPOLYLINE
  5
8B
330
1F
100
AcDbEntity
  8
PROFILEEDGES
100
AcDbPolyline
 90
        2
 70
     0
 43
0.4799999999999646
 10
137.0452236525241
 20
-80.32703923955536
 10
137.0077995023929
 20
-80.24055713123366
  0
LWPOLYLINE
  5
8C
330
1F
100
AcDbEntity
  8
PROFILEEDGES
100
AcDbPolyline
 90
        2
 70
     0
 43
0.4799999999999646
 10
137.1387309756578
 20
-80.69122621823793
 10
137.1239897997784
 20
-80.59815409670507
  0
LWPOLYLINE
  5
8D
330
1F
100
AcDbEntity
  8
PROFILEEDGES
100
AcDbPolyline
 90
        2
 70
     0
 43
0.4799999999999646
 10
135.5563731443618
 20
-82.37626616119869
 10
135.6505589236555
 20
-82.37922606855734
  0
LWPOLYLINE
  5
8E
330
1F
100
AcDbEntity
  8
PROFILEEDGES
100
AcDbPolyline
 90
        2
 70
     0
 43
0.4799999999999646
 10
135.2775240929081
 20
-82.33210081024355
 10
135.369486951777
 20
-82.3526569446457
  0
LWPOLYLINE
  5
8F
330
1F
100
AcDbEntity
  8
PROFILEEDGES
100
AcDbPolyline
 90
        2
 70
     0
 43
0.4799999999999646
 10
135.9316308955875
 20
-79.40579519246967
 10
135.8385587740543
 20
-79.39105401658969
  0
LWPOLYLINE
  5
90
330
1F
100
AcDbEntity
  8
PROFILEEDGES
100
AcDbPolyline
 90
        2
 70
     0
 43
0.4799999999999646
 10
135.6505589236555
 20
-82.37922606855734
 10
135.7447447029493
 20
-82.37626616120163
  0
LWPOLYLINE
  5
91
330
1F
100
AcDbEntity
  8
PROFILEEDGES
100
AcDbPolyline
 90
        2
 70
     0
 43
0.4799999999999646
 10
137.1034336653814
 20
-80.5061912378362
 10
137.0771436981323
 20
-80.41570057702089
  0
LWPOLYLINE
  5
92
330
1F
100
AcDbEntity
  8
PROFILEEDGES
100
AcDbPolyline
 90
        2
 70
     0
 43
0.4799999999999646
 10
136.744011864833
 20
-79.8524054096841
 10
136.6773795825931
 20
-79.78577312744397
  0
LWPOLYLINE
  5
93
330
1F
100
AcDbEntity
  8
PROFILEEDGES
100
AcDbPolyline
 90
        2
 70
     0
 43
0.4799999999999646
 10
137.0452236525049
 20
-81.43141289760887
 10
137.0771436981157
 20
-81.34275156014512
  0
LWPOLYLINE
  5
94
330
1F
100
AcDbEntity
  8
PROFILEEDGES
100
AcDbPolyline
 90
        2
 70
     0
 43
0.4799999999999646
 10
134.1976841819946
 20
-80.50619123778411
 10
134.1771280475948
 20
-80.59815409665299
  0
LWPOLYLINE
  5
95
330
1F
100
AcDbEntity
  8
PROFILEEDGES
100
AcDbPolyline
 90
        2
 70
     0
 43
0.4799999999999646
 10
134.6237382648069
 20
-79.78577312740752
 10
134.557105982568
 20
-79.8524054096451
  0
LWPOLYLINE
  5
96
330
1F
100
AcDbEntity
  8
PROFILEEDGES
100
AcDbPolyline
 90
        2
 70
     0
 43
0.4799999999999646
 10
134.9279284125519
 20
-79.56476604847941
 10
134.8468187312356
 20
-79.6127341802903
  0
LWPOLYLINE
  5
97
330
1F
100
AcDbEntity
  8
PROFILEEDGES
100
AcDbPolyline
 90
        2
 70
     0
 43
0.4799999999999646
 10
134.2933183449934
 20
-80.24055713118572
 10
134.2558941948596
 20
-80.32703923950534
  0
LWPOLYLINE
  5
98
330
1F
100
AcDbEntity
  8
PROFILEEDGES
100
AcDbPolyline
 90
        2
 70
     0
 43
0.4799999999999646
 10
136.8063287878622
 20
-79.92309008395476
 10
136.744011864833
 20
-79.8524054096841
  0
LWPOLYLINE
  5
99
330
1F
100
AcDbEntity
  8
PROFILEEDGES
100
AcDbPolyline
 90
        2
 70
     0
 43
0.4799999999999646
 10
136.9170508119479
 20
-80.07548587611163
 10
136.8640844152598
 20
-79.9975481901404
  0
LWPOLYLINE
  5
9A
330
1F
100
AcDbEntity
  8
PROFILEEDGES
100
AcDbPolyline
 90
        2
 70
     0
 43
0.4799999999999646
 10
134.3360989036287
 20
-80.15659555738125
 10
134.2933183449934
 20
-80.24055713118572
  0
LWPOLYLINE
  5
9B
330
1F
100
AcDbEntity
  8
PROFILEEDGES
100
AcDbPolyline
 90
        2
 70
     0
 43
0.4799999999999646
 10
134.1771280475948
 20
-80.59815409665299
 10
134.1623868717125
 20
-80.69122621818501
  0
LWPOLYLINE
  5
9C
330
1F
100
AcDbEntity
  8
PROFILEEDGES
100
AcDbPolyline
 90
        2
 70
     0
 43
0.4799999999999646
 10
134.6944229390788
 20
-79.72345620437717
 10
134.6237382648069
 20
-79.78577312740752
  0
LWPOLYLINE
  5
9D
330
1F
100
AcDbEntity
  8
PROFILEEDGES
100
AcDbPolyline
 90
        2
 70
     0
 43
0.4799999999999646
 10
135.4625590733608
 20
-79.39105401658267
 10
135.3694869518291
 20
-79.40579519245978
  0
LWPOLYLINE
  5
9E
330
1F
100
AcDbEntity
  8
PROFILEEDGES
100
AcDbPolyline
 90
        2
 70
     0
 43
0.4799999999999646
 10
136.1140844152691
 20
-79.45264129412247
 10
136.0235937544541
 20
-79.42635132687064
  0
LWPOLYLINE
  5
9F
330
1F
100
AcDbEntity
  8
PROFILEEDGES
100
AcDbPolyline
 90
        2
 70
     0
 43
0.4799999999999646
 10
136.6066949083248
 20
-79.72345620441084
 10
136.5322368021423
 20
-79.66570057701135
  0
LWPOLYLINE
  5
A0
330
1F
100
AcDbEntity
  8
PROFILEEDGES
100
AcDbPolyline
 90
        2
 70
     0
 43
0.4799999999999646
 10
135.7447447030027
 20
-79.38218597591667
 10
135.650558923709
 20
-79.37922606855803
  0
LWPOLYLINE
  5
A1
330
1F
100
AcDbEntity
  8
PROFILEEDGES
100
AcDbPolyline
 90
        2
 70
     0
 43
0.4799999999999646
 10
136.202745752734
 20
-79.48456133973448
 10
136.1140844152691
 20
-79.45264129412247
  0
LWPOLYLINE
  5
A2
330
1F
100
AcDbEntity
  8
PROFILEEDGES
100
AcDbPolyline
 90
        2
 70
     0
 43
0.4799999999999646
 10
134.2239741492465
 20
-80.41570057697024
 10
134.1976841819946
 20
-80.50619123778411
  0
LWPOLYLINE
  5
A3
330
1F
100
AcDbEntity
  8
PROFILEEDGES
100
AcDbPolyline
 90
        2
 70
     0
 43
0.4799999999999646
 10
136.8640844152598
 20
-79.9975481901404
 10
136.8063287878622
 20
-79.92309008395476
  0
LWPOLYLINE
  5
A4
330
1F
100
AcDbEntity
  8
PROFILEEDGES
100
AcDbPolyline
 90
        2
 70
     0
 43
0.4799999999999646
 10
135.650558923709
 20
-79.37922606855803
 10
135.5563731444152
 20
-79.38218597591374
  0
LWPOLYLINE
  5
A5
330
1F
100
AcDbEntity
  8
PROFILEEDGES
100
AcDbPolyline
 90
        2
 70
     0
 43
0.4799999999999646
 10
136.2892278610525
 20
-79.52198548986937
 10
136.202745752734
 20
-79.48456133973448
  0
LWPOLYLINE
  5
A6
330
1F
100
AcDbEntity
  8
PROFILEEDGES
100
AcDbPolyline
 90
        2
 70
     0
 43
0.4799999999999646
 10
136.4542991161718
 20
-79.61273418031894
 10
136.3731894348581
 20
-79.56476604850468
  0
LWPOLYLINE
  5
A7
330
1F
100
AcDbEntity
  8
PROFILEEDGES
100
AcDbPolyline
 90
        2
 70
     0
 43
0.4799999999999646
 10
136.0235937544541
 20
-79.42635132687064
 10
135.9316308955875
 20
-79.40579519246967
  0
LWPOLYLINE
  5
A8
330
1F
100
AcDbEntity
  8
PROFILEEDGES
100
AcDbPolyline
 90
        2
 70
     0
 43
0.4799999999999646
 10
135.5563731444152
 20
-79.38218597591374
 10
135.4625590733608
 20
-79.39105401658267
  0
LWPOLYLINE
  5
A9
330
1F
100
AcDbEntity
  8
PROFILEEDGES
100
AcDbPolyline
 90
        2
 70
     0
 43
0.4799999999999646
 10
135.1870334321449
 20
-79.45264129410704
 10
135.0983720946782
 20
-79.48456133971524
  0
LWPOLYLINE
  5
AA
330
1F
100
AcDbEntity
  8
PROFILEEDGES
100
AcDbPolyline
 90
        2
 70
     0
 43
0.4799999999999646
 10
135.3694869518291
 20
-79.40579519245978
 10
135.2775240929591
 20
-79.42635132685794
  0
LWPOLYLINE
  5
AB
330
1F
100
AcDbEntity
  8
PROFILEEDGES
100
AcDbPolyline
 90
        2
 70
     0
 43
0.4799999999999646
 10
135.8385587740543
 20
-79.39105401658969
 10
135.7447447030027
 20
-79.38218597591667
  0
LWPOLYLINE
  5
AC
330
1F
100
AcDbEntity
  8
PROFILEEDGES
100
AcDbPolyline
 90
        2
 70
     0
 43
0.4799999999999646
 10
136.5322368021423
 20
-79.66570057701135
 10
136.4542991161718
 20
-79.61273418031894
  0
LWPOLYLINE
  5
AD
330
1F
100
AcDbEntity
  8
PROFILEEDGES
100
AcDbPolyline
 90
        2
 70
     0
 43
0.4799999999999646
 10
136.3731894348581
 20
-79.56476604850468
 10
136.2892278610525
 20
-79.52198548986937
  0
LWPOLYLINE
  5
AE
330
1F
100
AcDbEntity
  8
PROFILEEDGES
100
AcDbPolyline
 90
        2
 70
     0
 43
0.4799999999999646
 10
136.96501894376
 20
-80.15659555742795
 10
136.9170508119479
 20
-80.07548587611163
  0
LWPOLYLINE
  5
AF
330
1F
100
AcDbEntity
  8
PROFILEEDGES
100
AcDbPolyline
 90
        2
 70
     0
 43
0.4799999999999646
 10
136.6773795825931
 20
-79.78577312744397
 10
136.6066949083248
 20
-79.72345620441084
  0
LWPOLYLINE
  5
B0
330
1F
100
AcDbEntity
  8
PROFILEEDGES
100
AcDbPolyline
 90
        2
 70
     0
 43
0.4799999999999646
 10
134.2558941948404
 20
-81.43141289756
 10
134.2933183449717
 20
-81.51789500588055
  0
LWPOLYLINE
  5
B1
330
1F
100
AcDbEntity
  8
PROFILEEDGES
100
AcDbPolyline
 90
        2
 70
     0
 43
0.4799999999999646
 10
134.1535188310377
 20
-80.97341184782533
 10
134.1623868717067
 20
-81.06722591887744
  0
LWPOLYLINE
  5
B2
330
1F
100
AcDbEntity
  8
PROFILEEDGES
100
AcDbPolyline
 90
        2
 70
     0
 43
0.4799999999999646
 10
134.4370334321353
 20
-79.99754819009702
 10
134.3840670354429
 20
-80.07548587606644
  0
LWPOLYLINE
  5
B3
330
1F
100
AcDbEntity
  8
PROFILEEDGES
100
AcDbPolyline
 90
        2
 70
     0
 43
0.4799999999999646
 10
134.7688810452644
 20
-79.66570057697953
 10
134.6944229390788
 20
-79.72345620437717
  0
LWPOLYLINE
  5
B4
330
1F
100
AcDbEntity
  8
PROFILEEDGES
100
AcDbPolyline
 90
        2
 70
     0
 43
0.4799999999999646
 10
134.1535188310407
 20
-80.78504028923662
 10
134.1505589236809
 20
-80.87922606853031
  0
LWPOLYLINE
  5
B5
330
1F
100
AcDbEntity
  8
PROFILEEDGES
100
AcDbPolyline
 90
        2
 70
     0
 43
0.4799999999999646
 10
134.8468187312356
 20
-79.6127341802903
 10
134.7688810452644
 20
-79.66570057697953
  0
LWPOLYLINE
  5
B6
330
1F
100
AcDbEntity
  8
PROFILEEDGES
100
AcDbPolyline
 90
        2
 70
     0
 43
0.4799999999999646
 10
134.2933183449717
 20
-81.51789500588055
 10
134.3360989036023
 20
-81.60185657968626
  0
LWPOLYLINE
  5
B7
330
1F
100
AcDbEntity
  8
PROFILEEDGES
100
AcDbPolyline
 90
        2
 70
     0
 43
0.4799999999999646
 10
134.4947890595
 20
-81.83536205315944
 10
134.5571059825315
 20
-81.90604672743126
  0
LWPOLYLINE
  5
B8
330
1F
100
AcDbEntity
  8
PROFILEEDGES
100
AcDbPolyline
 90
        2
 70
     0
 43
0.4799999999999646
 10
-7.493801271772627
 20
-82.14571795282934
 10
-7.41269159045665
 20
-82.19368608464359
  0
LWPOLYLINE
  5
B9
330
1F
100
AcDbEntity
  8
PROFILEEDGES
100
AcDbPolyline
 90
        2
 70
     0
 43
0.4799999999999646
 10
-6.971133051186098
 20
-82.35265694067861
 10
-6.878060929652908
 20
-82.36739811655859
  0
LWPOLYLINE
  5
BA
330
1F
100
AcDbEntity
  8
PROFILEEDGES
100
AcDbPolyline
 90
        2
 70
     0
 43
0.4799999999999646
 10
134.557105982568
 20
-79.8524054096451
 10
134.4947890595348
 20
-79.92309008391345
  0
LWPOLYLINE
  5
BB
330
1F
100
AcDbEntity
  8
PROFILEEDGES
100
AcDbPolyline
 90
        2
 70
     0
 43
0.4799999999999646
 10
134.4370334321047
 20
-81.76090394697496
 10
134.4947890595
 20
-81.83536205315944
  0
LWPOLYLINE
  5
BC
330
1F
100
AcDbEntity
  8
PROFILEEDGES
100
AcDbPolyline
 90
        2
 70
     0
 43
0.4799999999999646
 10
134.4947890595348
 20
-79.92309008391345
 10
134.4370334321353
 20
-79.99754819009702
  0
LWPOLYLINE
  5
BD
330
1F
100
AcDbEntity
  8
PROFILEEDGES
100
AcDbPolyline
 90
        2
 70
     0
 43
0.4799999999999646
 10
135.2775240929591
 20
-79.42635132685794
 10
135.1870334321449
 20
-79.45264129410704
  0
LWPOLYLINE
  5
BE
330
1F
100
AcDbEntity
  8
PROFILEEDGES
100
AcDbPolyline
 90
        2
 70
     0
 43
0.4799999999999646
 10
135.0118899863577
 20
-79.52198548984764
 10
134.9279284125519
 20
-79.56476604847941
  0
LWPOLYLINE
  5
BF
330
1F
100
AcDbEntity
  8
PROFILEEDGES
100
AcDbPolyline
 90
        2
 70
     0
 43
0.4799999999999646
 10
134.5571059825315
 20
-81.90604672743126
 10
134.6237382647691
 20
-81.9726790096714
  0
LWPOLYLINE
  5
C0
330
1F
100
AcDbEntity
  8
PROFILEEDGES
100
AcDbPolyline
 90
        2
 70
     0
 43
0.4799999999999646
 10
134.1771280475838
 20
-81.16029804041028
 10
134.1976841819831
 20
-81.25226089927915
  0
LWPOLYLINE
  5
C1
330
1F
100
AcDbEntity
  8
PROFILEEDGES
100
AcDbPolyline
 90
        2
 70
     0
 43
0.4799999999999646
 10
134.3360989036023
 20
-81.60185657968626
 10
134.3840670354143
 20
-81.68296626100374
  0
LWPOLYLINE
  5
C2
330
1F
100
AcDbEntity
  8
PROFILEEDGES
100
AcDbPolyline
 90
        2
 70
     0
 43
0.4799999999999646
 10
134.2239741492299
 20
-81.34275156009448
 10
134.2558941948404
 20
-81.43141289756
  0
LWPOLYLINE
  5
C3
330
1F
100
AcDbEntity
  8
PROFILEEDGES
100
AcDbPolyline
 90
        2
 70
     0
 43
0.4799999999999646
 10
-6.784246858601304
 20
-82.37626615723161
 10
-6.690061079307601
 20
-82.37922606459026
  0
LWPOLYLINE
  5
C4
330
1F
100
AcDbEntity
  8
PROFILEEDGES
100
AcDbPolyline
 90
        2
 70
     0
 43
0.4799999999999646
 10
134.2558941948596
 20
-80.32703923950534
 10
134.2239741492465
 20
-80.41570057697024
  0
LWPOLYLINE
  5
C5
330
1F
100
AcDbEntity
  8
PROFILEEDGES
100
AcDbPolyline
 90
        2
 70
     0
 43
0.4799999999999646
 10
134.1505589236809
 20
-80.87922606853031
 10
134.1535188310377
 20
-80.97341184782533
  0
LWPOLYLINE
  5
C6
330
1F
100
AcDbEntity
  8
PROFILEEDGES
100
AcDbPolyline
 90
        2
 70
     0
 43
0.4799999999999646
 10
134.6237382647691
 20
-81.9726790096714
 10
134.6944229390375
 20
-82.03499593270453
  0
LWPOLYLINE
  5
C7
330
1F
100
AcDbEntity
  8
PROFILEEDGES
100
AcDbPolyline
 90
        2
 70
     0
 43
0.4799999999999646
 10
-7.242247908332565
 20
-82.27389079341265
 10
-7.153586570867684
 20
-82.30581083902464
  0
LWPOLYLINE
  5
C8
330
1F
100
AcDbEntity
  8
PROFILEEDGES
100
AcDbPolyline
 90
        2
 70
     0
 43
0.4799999999999646
 10
134.3840670354143
 20
-81.68296626100374
 10
134.4370334321047
 20
-81.76090394697496
  0
LWPOLYLINE
  5
C9
330
1F
100
AcDbEntity
  8
PROFILEEDGES
100
AcDbPolyline
 90
        2
 70
     0
 43
0.4799999999999646
 10
134.1623868717067
 20
-81.06722591887744
 10
134.1771280475838
 20
-81.16029804041028
  0
LWPOLYLINE
  5
CA
330
1F
100
AcDbEntity
  8
PROFILEEDGES
100
AcDbPolyline
 90
        2
 70
     0
 43
0.4799999999999646
 10
134.3840670354429
 20
-80.07548587606644
 10
134.3360989036287
 20
-80.15659555738125
  0
LWPOLYLINE
  5
CB
330
1F
100
AcDbEntity
  8
PROFILEEDGES
100
AcDbPolyline
 90
        2
 70
     0
 43
0.4799999999999646
 10
-7.646197063925626
 20
-82.03499592873746
 10
-7.571738957740902
 20
-82.09275155613692
  0
LWPOLYLINE
  5
CC
330
1F
100
AcDbEntity
  8
PROFILEEDGES
100
AcDbPolyline
 90
        2
 70
     0
 43
0.4799999999999646
 10
134.1623868717125
 20
-80.69122621818501
 10
134.1535188310407
 20
-80.78504028923662
  0
LWPOLYLINE
  5
CD
330
1F
100
AcDbEntity
  8
PROFILEEDGES
100
AcDbPolyline
 90
        2
 70
     0
 43
0.4799999999999646
 10
-7.328730016653338
 20
-82.23646664327775
 10
-7.242247908332565
 20
-82.27389079341265
  0
LWPOLYLINE
  5
CE
330
1F
100
AcDbEntity
  8
PROFILEEDGES
100
AcDbPolyline
 90
        2
 70
     0
 43
0.4799999999999646
 10
-7.153586570867684
 20
-82.30581083902464
 10
-7.063095910054963
 20
-82.33210080627647
  0
LWPOLYLINE
  5
CF
330
1F
100
AcDbEntity
  8
PROFILEEDGES
100
AcDbPolyline
 90
        2
 70
     0
 43
0.4799999999999646
 10
-7.716881738193972
 20
-81.97267900570431
 10
-7.646197063925626
 20
-82.03499592873746
  0
LWPOLYLINE
  5
D0
330
1F
100
AcDbEntity
  8
PROFILEEDGES
100
AcDbPolyline
 90
        2
 70
     0
 43
0.4799999999999646
 10
-7.783514020431546
 20
-81.90604672346419
 10
-7.716881738193972
 20
-81.97267900570431
  0
LWPOLYLINE
  5
D1
330
1F
100
AcDbEntity
  8
PROFILEEDGES
100
AcDbPolyline
 90
        2
 70
     0
 43
0.4799999999999646
 10
134.1976841819831
 20
-81.25226089927915
 10
134.2239741492299
 20
-81.34275156009448
  0
LWPOLYLINE
  5
D2
330
1F
100
AcDbEntity
  8
PROFILEEDGES
100
AcDbPolyline
 90
        2
 70
     0
 43
0.4799999999999646
 10
135.0983720946782
 20
-79.48456133971524
 10
135.0118899863577
 20
-79.52198548984764
  0
LWPOLYLINE
  5
D3
330
1F
100
AcDbEntity
  8
PROFILEEDGES
100
AcDbPolyline
 90
        2
 70
     0
 43
0.4799999999999646
 10
-6.226535587743435
 20
-82.30581083904124
 10
-6.13787425027905
 20
-82.27389079343303
  0
LWPOLYLINE
  5
D4
330
1F
100
AcDbEntity
  8
PROFILEEDGES
100
AcDbPolyline
 90
        2
 70
     0
 43
0.4799999999999646
 10
-5.332820500594231
 20
-81.51789500196256
 10
-5.295396350458188
 20
-81.43141289364178
  0
LWPOLYLINE
  5
D5
330
1F
100
AcDbEntity
  8
PROFILEEDGES
100
AcDbPolyline
 90
        2
 70
     0
 43
0.4799999999999646
 10
-6.878060929652908
 20
-82.36739811655859
 10
-6.784246858601304
 20
-82.37626615723161
  0
LWPOLYLINE
  5
D6
330
1F
100
AcDbEntity
  8
PROFILEEDGES
100
AcDbPolyline
 90
        2
 70
     0
 43
0.4799999999999646
 10
-5.332820500570183
 20
-80.24055712726658
 10
-5.375601059203126
 20
-80.15659555346086
  0
LWPOLYLINE
  5
D7
330
1F
100
AcDbEntity
  8
PROFILEEDGES
100
AcDbPolyline
 90
        2
 70
     0
 43
0.4799999999999646
 10
-5.886320886834159
 20
-82.14571795285798
 10
-5.808383200862974
 20
-82.09275155616875
  0
LWPOLYLINE
  5
D8
330
1F
100
AcDbEntity
  8
PROFILEEDGES
100
AcDbPolyline
 90
        2
 70
     0
 43
0.4799999999999646
 10
-6.59587530001374
 20
-82.37626615723455
 10
-6.502061228961639
 20
-82.36739811656561
  0
LWPOLYLINE
  5
D9
330
1F
100
AcDbEntity
  8
PROFILEEDGES
100
AcDbPolyline
 90
        2
 70
     0
 43
0.4799999999999646
 10
-5.263476304847326
 20
-81.34275155617804
 10
-5.237186337595508
 20
-81.25226089536302
  0
LWPOLYLINE
  5
DA
330
1F
100
AcDbEntity
  8
PROFILEEDGES
100
AcDbPolyline
 90
        2
 70
     0
 43
0.4799999999999646
 10
-7.063095910054963
 20
-82.33210080627647
 10
-6.971133051186098
 20
-82.35265694067861
  0
LWPOLYLINE
  5
DB
330
1F
100
AcDbEntity
  8
PROFILEEDGES
100
AcDbPolyline
 90
        2
 70
     0
 43
0.4799999999999646
 10
-6.502061228961639
 20
-82.36739811656561
 10
-6.408989107427637
 20
-82.3526569406885
  0
LWPOLYLINE
  5
DC
330
1F
100
AcDbEntity
  8
PROFILEEDGES
100
AcDbPolyline
 90
        2
 70
     0
 43
0.4799999999999646
 10
-5.808383200862974
 20
-82.09275155616875
 10
-5.733925094679627
 20
-82.03499592877111
  0
LWPOLYLINE
  5
DD
330
1F
100
AcDbEntity
  8
PROFILEEDGES
100
AcDbPolyline
 90
        2
 70
     0
 43
0.4799999999999646
 10
-5.733925094679627
 20
-82.03499592877111
 10
-5.663240420407807
 20
-81.97267900574074
  0
LWPOLYLINE
  5
DE
330
1F
100
AcDbEntity
  8
PROFILEEDGES
100
AcDbPolyline
 90
        2
 70
     0
 43
0.4799999999999646
 10
-6.051392141958525
 20
-82.23646664330064
 10
-5.967430568152798
 20
-82.19368608466885
  0
LWPOLYLINE
  5
DF
330
1F
100
AcDbEntity
  8
PROFILEEDGES
100
AcDbPolyline
 90
        2
 70
     0
 43
0.4799999999999646
 10
-5.967430568152798
 20
-82.19368608466885
 10
-5.886320886834159
 20
-82.14571795285798
  0
LWPOLYLINE
  5
E0
330
1F
100
AcDbEntity
  8
PROFILEEDGES
100
AcDbPolyline
 90
        2
 70
     0
 43
0.4799999999999646
 10
-7.41269159045665
 20
-82.19368608464359
 10
-7.328730016653338
 20
-82.23646664327775
  0
LWPOLYLINE
  5
E1
330
1F
100
AcDbEntity
  8
PROFILEEDGES
100
AcDbPolyline
 90
        2
 70
     0
 43
0.4799999999999646
 10
-5.476535587733904
 20
-81.76090394305011
 10
-5.423569191041476
 20
-81.68296625708184
  0
LWPOLYLINE
  5
E2
330
1F
100
AcDbEntity
  8
PROFILEEDGES
100
AcDbPolyline
 90
        2
 70
     0
 43
0.4799999999999646
 10
-5.596608138166532
 20
-81.90604672350318
 10
-5.534291215133393
 20
-81.83536204923368
  0
LWPOLYLINE
  5
E3
330
1F
100
AcDbEntity
  8
PROFILEEDGES
100
AcDbPolyline
 90
        2
 70
     0
 43
0.4799999999999646
 10
-6.408989107427637
 20
-82.3526569406885
 10
-6.317026248559923
 20
-82.33210080629033
  0
LWPOLYLINE
  5
E4
330
1F
100
AcDbEntity
  8
PROFILEEDGES
100
AcDbPolyline
 90
        2
 70
     0
 43
0.4799999999999646
 10
-5.295396350458188
 20
-81.43141289364178
 10
-5.263476304847326
 20
-81.34275155617804
  0
LWPOLYLINE
  5
E5
330
1F
100
AcDbEntity
  8
PROFILEEDGES
100
AcDbPolyline
 90
        2
 70
     0
 43
0.4799999999999646
 10
-7.571738957740902
 20
-82.09275155613692
 10
-7.493801271772627
 20
-82.14571795282934
  0
LWPOLYLINE
  5
E6
330
1F
100
AcDbEntity
  8
PROFILEEDGES
100
AcDbPolyline
 90
        2
 70
     0
 43
0.4799999999999646
 10
-5.237186337595508
 20
-81.25226089536302
 10
-5.216630203193374
 20
-81.1602980364953
  0
LWPOLYLINE
  5
E7
330
1F
100
AcDbEntity
  8
PROFILEEDGES
100
AcDbPolyline
 90
        2
 70
     0
 43
0.4799999999999646
 10
-5.375601059227221
 20
-81.60185657576588
 10
-5.332820500594231
 20
-81.51789500196256
  0
LWPOLYLINE
  5
E8
330
1F
100
AcDbEntity
  8
PROFILEEDGES
100
AcDbPolyline
 90
        2
 70
     0
 43
0.4799999999999646
 10
-5.534291215133393
 20
-81.83536204923368
 10
-5.476535587733904
 20
-81.76090394305011
  0
LWPOLYLINE
  5
E9
330
1F
100
AcDbEntity
  8
PROFILEEDGES
100
AcDbPolyline
 90
        2
 70
     0
 43
0.4799999999999646
 10
-6.317026248559923
 20
-82.33210080629033
 10
-6.226535587743435
 20
-82.30581083904124
  0
LWPOLYLINE
  5
EA
330
1F
100
AcDbEntity
  8
PROFILEEDGES
100
AcDbPolyline
 90
        2
 70
     0
 43
0.4799999999999646
 10
-6.13787425027905
 20
-82.27389079343303
 10
-6.051392141958525
 20
-82.23646664330064
  0
LWPOLYLINE
  5
EB
330
1F
100
AcDbEntity
  8
PROFILEEDGES
100
AcDbPolyline
 90
        2
 70
     0
 43
0.4799999999999646
 10
-5.73392509463832
 20
-79.72345620044374
 10
-5.80838320082072
 20
-79.66570057304311
  0
LWPOLYLINE
  5
EC
330
1F
100
AcDbEntity
  8
PROFILEEDGES
100
AcDbPolyline
 90
        2
 70
     0
 43
0.4799999999999646
 10
-5.190061079281727
 20
-80.8792260646168
 10
-5.193020986636277
 20
-80.78504028532295
  0
LWPOLYLINE
  5
ED
330
1F
100
AcDbEntity
  8
PROFILEEDGES
100
AcDbPolyline
 90
        2
 70
     0
 43
0.4799999999999646
 10
-5.20188902730522
 20
-80.69122621427084
 10
-5.21663020318232
 20
-80.598154092738
  0
LWPOLYLINE
  5
EE
330
1F
100
AcDbEntity
  8
PROFILEEDGES
100
AcDbPolyline
 90
        2
 70
     0
 43
0.4799999999999646
 10
-5.663240420407807
 20
-81.97267900574074
 10
-5.596608138166532
 20
-81.90604672350318
  0
LWPOLYLINE
  5
EF
330
1F
100
AcDbEntity
  8
PROFILEEDGES
100
AcDbPolyline
 90
        2
 70
     0
 43
0.4799999999999646
 10
-6.690061079307601
 20
-82.37922606459026
 10
-6.59587530001374
 20
-82.37626615723455
  0
LWPOLYLINE
  5
F0
330
1F
100
AcDbEntity
  8
PROFILEEDGES
100
AcDbPolyline
 90
        2
 70
     0
 43
0.4799999999999646
 10
-5.423569191041476
 20
-81.68296625708184
 10
-5.375601059227221
 20
-81.60185657576588
  0
LWPOLYLINE
  5
F1
330
1F
100
AcDbEntity
  8
PROFILEEDGES
100
AcDbPolyline
 90
        2
 70
     0
 43
0.4799999999999646
 10
-7.783514020395089
 20
-79.85240540567801
 10
-7.845830943428228
 20
-79.92309007994636
  0
LWPOLYLINE
  5
F2
330
1F
100
AcDbEntity
  8
PROFILEEDGES
100
AcDbPolyline
 90
        2
 70
     0
 43
0.4799999999999646
 10
-5.216630203193374
 20
-81.1602980364953
 10
-5.201889027313387
 20
-81.06722591496327
  0
LWPOLYLINE
  5
F3
330
1F
100
AcDbEntity
  8
PROFILEEDGES
100
AcDbPolyline
 90
        2
 70
     0
 43
0.4799999999999646
 10
-6.051392141908284
 20
-79.52198548590229
 10
-6.137874250229035
 20
-79.48456133576738
  0
LWPOLYLINE
  5
F4
330
1F
100
AcDbEntity
  8
PROFILEEDGES
100
AcDbPolyline
 90
        2
 70
     0
 43
0.4799999999999646
 10
-5.476535587703223
 20
-79.99754818617332
 10
-5.534291215100862
 20
-79.92309007998769
  0
LWPOLYLINE
  5
F5
330
1F
100
AcDbEntity
  8
PROFILEEDGES
100
AcDbPolyline
 90
        2
 70
     0
 43
0.4799999999999646
 10
-5.534291215100862
 20
-79.92309007998769
 10
-5.596608138130076
 20
-79.85240540571701
  0
LWPOLYLINE
  5
F6
330
1F
100
AcDbEntity
  8
PROFILEEDGES
100
AcDbPolyline
 90
        2
 70
     0
 43
0.4799999999999646
 10
-7.242247908282549
 20
-79.48456133574815
 10
-7.328730016605421
 20
-79.52198548588055
  0
LWPOLYLINE
  5
F7
330
1F
100
AcDbEntity
  8
PROFILEEDGES
100
AcDbPolyline
 90
        2
 70
     0
 43
0.4799999999999646
 10
-7.716881738153815
 20
-79.78577312344044
 10
-7.783514020395089
 20
-79.85240540567801
  0
LWPOLYLINE
  5
F8
330
1F
100
AcDbEntity
  8
PROFILEEDGES
100
AcDbPolyline
 90
        2
 70
     0
 43
0.4799999999999646
 10
-7.153586570818188
 20
-79.45264129013995
 10
-7.242247908282549
 20
-79.48456133574815
  0
LWPOLYLINE
  5
F9
330
1F
100
AcDbEntity
  8
PROFILEEDGES
100
AcDbPolyline
 90
        2
 70
     0
 43
0.4799999999999646
 10
-5.80838320082072
 20
-79.66570057304311
 10
-5.886320886788996
 20
-79.61273417635185
  0
LWPOLYLINE
  5
FA
330
1F
100
AcDbEntity
  8
PROFILEEDGES
100
AcDbPolyline
 90
        2
 70
     0
 43
0.4799999999999646
 10
-7.845830943428228
 20
-79.92309007994636
 10
-7.903586570827718
 20
-79.99754818612993
  0
LWPOLYLINE
  5
FB
330
1F
100
AcDbEntity
  8
PROFILEEDGES
100
AcDbPolyline
 90
        2
 70
     0
 43
0.4799999999999646
 10
-7.412691590411125
 20
-79.56476604451117
 10
-7.493801271727462
 20
-79.61273417632323
  0
LWPOLYLINE
  5
FC
330
1F
100
AcDbEntity
  8
PROFILEEDGES
100
AcDbPolyline
 90
        2
 70
     0
 43
0.4799999999999646
 10
-7.328730016605421
 20
-79.52198548588055
 10
-7.412691590411125
 20
-79.56476604451117
  0
LWPOLYLINE
  5
FD
330
1F
100
AcDbEntity
  8
PROFILEEDGES
100
AcDbPolyline
 90
        2
 70
     0
 43
0.4799999999999646
 10
-5.193020986639233
 20
-80.97341184391051
 10
-5.190061079281727
 20
-80.8792260646168
  0
LWPOLYLINE
  5
FE
330
1F
100
AcDbEntity
  8
PROFILEEDGES
100
AcDbPolyline
 90
        2
 70
     0
 43
0.4799999999999646
 10
-5.967430568104971
 20
-79.56476604453759
 10
-6.051392141908284
 20
-79.52198548590229
  0
LWPOLYLINE
  5
FF
330
1F
100
AcDbEntity
  8
PROFILEEDGES
100
AcDbPolyline
 90
        2
 70
     0
 43
0.4799999999999646
 10
-5.295396350438945
 20
-80.32703923558827
 10
-5.332820500570183
 20
-80.24055712726658
  0
LWPOLYLINE
  5
100
330
1F
100
AcDbEntity
  8
PROFILEEDGES
100
AcDbPolyline
 90
        2
 70
     0
 43
0.4799999999999646
 10
-5.886320886788996
 20
-79.61273417635185
 10
-5.967430568104971
 20
-79.56476604453759
  0
LWPOLYLINE
  5
101
330
1F
100
AcDbEntity
  8
PROFILEEDGES
100
AcDbPolyline
 90
        2
 70
     0
 43
0.4799999999999646
 10
-6.784246858547882
 20
-79.38218597194665
 10
-6.878060929599982
 20
-79.39105401261558
  0
LWPOLYLINE
  5
102
330
1F
100
AcDbEntity
  8
PROFILEEDGES
100
AcDbPolyline
 90
        2
 70
     0
 43
0.4799999999999646
 10
-7.646197063884319
 20
-79.72345620041008
 10
-7.716881738153815
 20
-79.78577312344044
  0
LWPOLYLINE
  5
103
330
1F
100
AcDbEntity
  8
PROFILEEDGES
100
AcDbPolyline
 90
        2
 70
     0
 43
0.4799999999999646
 10
-5.193020986636277
 20
-80.78504028532295
 10
-5.20188902730522
 20
-80.69122621427084
  0
LWPOLYLINE
  5
104
330
1F
100
AcDbEntity
  8
PROFILEEDGES
100
AcDbPolyline
 90
        2
 70
     0
 43
0.4799999999999646
 10
-5.201889027313387
 20
-81.06722591496327
 10
-5.193020986639233
 20
-80.97341184391051
  0
LWPOLYLINE
  5
105
330
1F
100
AcDbEntity
  8
PROFILEEDGES
100
AcDbPolyline
 90
        2
 70
     0
 43
0.4799999999999646
 10
-5.237186337581657
 20
-80.50619123386913
 10
-5.263476304830744
 20
-80.4157005730538
  0
LWPOLYLINE
  5
106
330
1F
100
AcDbEntity
  8
PROFILEEDGES
100
AcDbPolyline
 90
        2
 70
     0
 43
0.4799999999999646
 10
-6.595875299960318
 20
-79.38218597194958
 10
-6.690061079254021
 20
-79.37922606459094
  0
LWPOLYLINE
  5
107
330
1F
100
AcDbEntity
  8
PROFILEEDGES
100
AcDbPolyline
 90
        2
 70
     0
 43
0.4799999999999646
 10
-7.493801271727462
 20
-79.61273417632323
 10
-7.571738957698647
 20
-79.66570057301244
  0
LWPOLYLINE
  5
108
330
1F
100
AcDbEntity
  8
PROFILEEDGES
100
AcDbPolyline
 90
        2
 70
     0
 43
0.4799999999999646
 10
-5.596608138130076
 20
-79.85240540571701
 10
-5.663240420367651
 20
-79.78577312347689
  0
LWPOLYLINE
  5
109
330
1F
100
AcDbEntity
  8
PROFILEEDGES
100
AcDbPolyline
 90
        2
 70
     0
 43
0.4799999999999646
 10
-6.690061079254021
 20
-79.37922606459094
 10
-6.784246858547882
 20
-79.38218597194665
  0
LWPOLYLINE
  5
10A
330
1F
100
AcDbEntity
  8
PROFILEEDGES
100
AcDbPolyline
 90
        2
 70
     0
 43
0.4799999999999646
 10
-5.423569191012848
 20
-80.07548587214454
 10
-5.476535587703223
 20
-79.99754818617332
  0
LWPOLYLINE
  5
10B
330
1F
100
AcDbEntity
  8
PROFILEEDGES
100
AcDbPolyline
 90
        2
 70
     0
 43
0.4799999999999646
 10
-5.663240420367651
 20
-79.78577312347689
 10
-5.73392509463832
 20
-79.72345620044374
  0
LWPOLYLINE
  5
10C
330
1F
100
AcDbEntity
  8
PROFILEEDGES
100
AcDbPolyline
 90
        2
 70
     0
 43
0.4799999999999646
 10
-5.21663020318232
 20
-80.598154092738
 10
-5.237186337581657
 20
-80.50619123386913
  0
LWPOLYLINE
  5
10D
330
1F
100
AcDbEntity
  8
PROFILEEDGES
100
AcDbPolyline
 90
        2
 70
     0
 43
0.4799999999999646
 10
-5.375601059203126
 20
-80.15659555346086
 10
-5.423569191012848
 20
-80.07548587214454
  0
LWPOLYLINE
  5
10E
330
1F
100
AcDbEntity
  8
PROFILEEDGES
100
AcDbPolyline
 90
        2
 70
     0
 43
0.4799999999999646
 10
-5.263476304830744
 20
-80.4157005730538
 10
-5.295396350438945
 20
-80.32703923558827
  0
LWPOLYLINE
  5
10F
330
1F
100
AcDbEntity
  8
PROFILEEDGES
100
AcDbPolyline
 90
        2
 70
     0
 43
0.4799999999999646
 10
-7.571738957698647
 20
-79.66570057301244
 10
-7.646197063884319
 20
-79.72345620041008
  0
LWPOLYLINE
  5
110
330
1F
100
AcDbEntity
  8
PROFILEEDGES
100
AcDbPolyline
 90
        2
 70
     0
 43
0.4799999999999646
 10
-6.502061228908715
 20
-79.39105401262144
 10
-6.595875299960318
 20
-79.38218597194958
  0
LWPOLYLINE
  5
111
330
1F
100
AcDbEntity
  8
PROFILEEDGES
100
AcDbPolyline
 90
        2
 70
     0
 43
0.4799999999999646
 10
-6.971133051133985
 20
-79.40579518849269
 10
-7.063095910001699
 20
-79.42635132289087
  0
LWPOLYLINE
  5
112
330
1F
100
AcDbEntity
  8
PROFILEEDGES
100
AcDbPolyline
 90
        2
 70
     0
 43
0.4799999999999646
 10
-7.903586570827718
 20
-79.99754818612993
 10
-7.956552967520124
 20
-80.07548587209935
  0
LWPOLYLINE
  5
113
330
1F
100
AcDbEntity
  8
PROFILEEDGES
100
AcDbPolyline
 90
        2
 70
     0
 43
0.4799999999999646
 10
-8.163491955368247
 20
-80.5981540926859
 10
-8.178233131248236
 20
-80.69122621421792
  0
LWPOLYLINE
  5
114
330
1F
100
AcDbEntity
  8
PROFILEEDGES
100
AcDbPolyline
 90
        2
 70
     0
 43
0.4799999999999646
 10
-6.31702624850666
 20
-79.42635132290356
 10
-6.408989107375525
 20
-79.40579518850258
  0
LWPOLYLINE
  5
115
330
1F
100
AcDbEntity
  8
PROFILEEDGES
100
AcDbPolyline
 90
        2
 70
     0
 43
0.4799999999999646
 10
-7.903586570858399
 20
-81.76090394300788
 10
-7.84583094346076
 20
-81.83536204919236
  0
LWPOLYLINE
  5
116
330
1F
100
AcDbEntity
  8
PROFILEEDGES
100
AcDbPolyline
 90
        2
 70
     0
 43
0.4799999999999646
 10
-8.142935820968438
 20
-80.50619123381702
 10
-8.163491955368247
 20
-80.5981540926859
  0
LWPOLYLINE
  5
117
330
1F
100
AcDbEntity
  8
PROFILEEDGES
100
AcDbPolyline
 90
        2
 70
     0
 43
0.4799999999999646
 10
-8.163491955379302
 20
-81.1602980364432
 10
-8.142935820979964
 20
-81.25226089531206
  0
LWPOLYLINE
  5
118
330
1F
100
AcDbEntity
  8
PROFILEEDGES
100
AcDbPolyline
 90
        2
 70
     0
 43
0.4799999999999646
 10
-6.137874250229035
 20
-79.48456133576738
 10
-6.226535587693938
 20
-79.4526412901554
  0
LWPOLYLINE
  5
119
330
1F
100
AcDbEntity
  8
PROFILEEDGES
100
AcDbPolyline
 90
        2
 70
     0
 43
0.4799999999999646
 10
-6.226535587693938
 20
-79.4526412901554
 10
-6.31702624850666
 20
-79.42635132290356
  0
LWPOLYLINE
  5
11A
330
1F
100
AcDbEntity
  8
PROFILEEDGES
100
AcDbPolyline
 90
        2
 70
     0
 43
0.4799999999999646
 10
-8.18710117192239
 20
-80.78504028526952
 10
-8.190061079279872
 20
-80.87922606456323
  0
LWPOLYLINE
  5
11B
330
1F
100
AcDbEntity
  8
PROFILEEDGES
100
AcDbPolyline
 90
        2
 70
     0
 43
0.4799999999999646
 10
-6.878060929599982
 20
-79.39105401261558
 10
-6.971133051133985
 20
-79.40579518849269
  0
LWPOLYLINE
  5
11C
330
1F
100
AcDbEntity
  8
PROFILEEDGES
100
AcDbPolyline
 90
        2
 70
     0
 43
0.4799999999999646
 10
-8.178233131256402
 20
-81.06722591491037
 10
-8.163491955379302
 20
-81.1602980364432
  0
LWPOLYLINE
  5
11D
330
1F
100
AcDbEntity
  8
PROFILEEDGES
100
AcDbPolyline
 90
        2
 70
     0
 43
0.4799999999999646
 10
-8.187101171925343
 20
-80.97341184385824
 10
-8.178233131256402
 20
-81.06722591491037
  0
LWPOLYLINE
  5
11E
330
1F
100
AcDbEntity
  8
PROFILEEDGES
100
AcDbPolyline
 90
        2
 70
     0
 43
0.4799999999999646
 10
-8.116645853730878
 20
-81.3427515561274
 10
-8.084725808122677
 20
-81.43141289359292
  0
LWPOLYLINE
  5
11F
330
1F
100
AcDbEntity
  8
PROFILEEDGES
100
AcDbPolyline
 90
        2
 70
     0
 43
0.4799999999999646
 10
-8.116645853716598
 20
-80.41570057300315
 10
-8.142935820968438
 20
-80.50619123381702
  0
LWPOLYLINE
  5
120
330
1F
100
AcDbEntity
  8
PROFILEEDGES
100
AcDbPolyline
 90
        2
 70
     0
 43
0.4799999999999646
 10
-8.190061079279872
 20
-80.87922606456323
 10
-8.187101171925343
 20
-80.97341184385824
  0
LWPOLYLINE
  5
121
330
1F
100
AcDbEntity
  8
PROFILEEDGES
100
AcDbPolyline
 90
        2
 70
     0
 43
0.4799999999999646
 10
-7.956552967520124
 20
-80.07548587209935
 10
-8.0045210993344
 20
-80.15659555341416
  0
LWPOLYLINE
  5
122
330
1F
100
AcDbEntity
  8
PROFILEEDGES
100
AcDbPolyline
 90
        2
 70
     0
 43
0.4799999999999646
 10
-7.063095910001699
 20
-79.42635132289087
 10
-7.153586570818188
 20
-79.45264129013995
  0
LWPOLYLINE
  5
123
330
1F
100
AcDbEntity
  8
PROFILEEDGES
100
AcDbPolyline
 90
        2
 70
     0
 43
0.4799999999999646
 10
-7.84583094346076
 20
-81.83536204919236
 10
-7.783514020431546
 20
-81.90604672346419
  0
LWPOLYLINE
  5
124
330
1F
100
AcDbEntity
  8
PROFILEEDGES
100
AcDbPolyline
 90
        2
 70
     0
 43
0.4799999999999646
 10
-8.0045210993344
 20
-80.15659555341416
 10
-8.047301657969692
 20
-80.24055712721864
  0
LWPOLYLINE
  5
125
330
1F
100
AcDbEntity
  8
PROFILEEDGES
100
AcDbPolyline
 90
        2
 70
     0
 43
0.4799999999999646
 10
-8.047301657969692
 20
-80.24055712721864
 10
-8.084725808103434
 20
-80.32703923553827
  0
LWPOLYLINE
  5
126
330
1F
100
AcDbEntity
  8
PROFILEEDGES
100
AcDbPolyline
 90
        2
 70
     0
 43
0.4799999999999646
 10
-7.956552967548752
 20
-81.68296625703665
 10
-7.903586570858399
 20
-81.76090394300788
  0
LWPOLYLINE
  5
127
330
1F
100
AcDbEntity
  8
PROFILEEDGES
100
AcDbPolyline
 90
        2
 70
     0
 43
0.4799999999999646
 10
-8.004521099358495
 20
-81.60185657571918
 10
-7.956552967548752
 20
-81.68296625703665
  0
LWPOLYLINE
  5
128
330
1F
100
AcDbEntity
  8
PROFILEEDGES
100
AcDbPolyline
 90
        2
 70
     0
 43
0.4799999999999646
 10
-8.047301657991417
 20
-81.51789500191346
 10
-8.004521099358495
 20
-81.60185657571918
  0
LWPOLYLINE
  5
129
330
1F
100
AcDbEntity
  8
PROFILEEDGES
100
AcDbPolyline
 90
        2
 70
     0
 43
0.4799999999999646
 10
-6.408989107375525
 20
-79.40579518850258
 10
-6.502061228908715
 20
-79.39105401262144
  0
LWPOLYLINE
  5
12A
330
1F
100
AcDbEntity
  8
PROFILEEDGES
100
AcDbPolyline
 90
        2
 70
     0
 43
0.4799999999999646
 10
-8.178233131248236
 20
-80.69122621421792
 10
-8.18710117192239
 20
-80.78504028526952
  0
LWPOLYLINE
  5
12B
330
1F
100
AcDbEntity
  8
PROFILEEDGES
100
AcDbPolyline
 90
        2
 70
     0
 43
0.4799999999999646
 10
-8.142935820979964
 20
-81.25226089531206
 10
-8.116645853730878
 20
-81.3427515561274
  0
LWPOLYLINE
  5
12C
330
1F
100
AcDbEntity
  8
PROFILEEDGES
100
AcDbPolyline
 90
        2
 70
     0
 43
0.4799999999999646
 10
-8.084725808103434
 20
-80.32703923553827
 10
-8.116645853716598
 20
-80.41570057300315
  0
LWPOLYLINE
  5
12D
330
1F
100
AcDbEntity
  8
PROFILEEDGES
100
AcDbPolyline
 90
        2
 70
     0
 43
0.4799999999999646
 10
-8.084725808122677
 20
-81.43141289359292
 10
-8.047301657991417
 20
-81.51789500191346
  0
LWPOLYLINE
  5
12E
330
1F
100
AcDbEntity
  8
PROFILEEDGES
100
AcDbPolyline
 90
        2
 70
     0
 43
0.4799999999999646
 10
-149.6641650107476
 20
-82.2364666393108
 10
-149.5776829024291
 20
-82.27389078944572
  0
LWPOLYLINE
  5
12F
330
1F
100
AcDbEntity
  8
PROFILEEDGES
100
AcDbPolyline
 90
        2
 70
     0
 43
0.4799999999999646
 10
-150.618949016738
 20
50.2248791557118
 10
-150.5523167345004
 20
50.1582468734717
  0
LWPOLYLINE
  5
130
330
1F
100
AcDbEntity
  8
PROFILEEDGES
100
AcDbPolyline
 90
        2
 70
     0
 43
0.4799999999999646
 10
-150.8399560956673
 20
50.52906930345566
 10
-150.7919879638552
 20
50.44795962213933
  0
LWPOLYLINE
  5
131
330
1F
100
AcDbEntity
  8
PROFILEEDGES
100
AcDbPolyline
 90
        2
 70
     0
 43
0.4799999999999646
 10
-150.8827366542979
 20
50.61303087726137
 10
-150.8399560956673
 20
50.52906930345566
  0
LWPOLYLINE
  5
132
330
1F
100
AcDbEntity
  8
PROFILEEDGES
100
AcDbPolyline
 90
        2
 70
     0
 43
0.4799999999999646
 10
-150.5523167345004
 20
50.1582468734717
 10
-150.4816320602321
 20
50.09592995043854
  0
LWPOLYLINE
  5
133
330
1F
100
AcDbEntity
  8
PROFILEEDGES
100
AcDbPolyline
 90
        2
 70
     0
 43
0.4799999999999646
 10
-151.0225361682317
 20
51.15751403531776
 10
-151.0136681275628
 20
51.06369996426449
  0
LWPOLYLINE
  5
134
330
1F
100
AcDbEntity
  8
PROFILEEDGES
100
AcDbPolyline
 90
        2
 70
     0
 43
0.4799999999999646
 10
-151.0225361682288
 20
51.34588559390532
 10
-151.0254960755886
 20
51.2516998146116
  0
LWPOLYLINE
  5
135
330
1F
100
AcDbEntity
  8
PROFILEEDGES
100
AcDbPolyline
 90
        2
 70
     0
 43
0.4799999999999646
 10
-151.0254960755886
 20
51.2516998146116
 10
-151.0225361682317
 20
51.15751403531776
  0
LWPOLYLINE
  5
136
330
1F
100
AcDbEntity
  8
PROFILEEDGES
100
AcDbPolyline
 90
        2
 70
     0
 43
0.4799999999999646
 10
-150.998926951677
 20
51.53277178649009
 10
-151.013668127557
 20
51.43969966495808
  0
LWPOLYLINE
  5
137
330
1F
100
AcDbEntity
  8
PROFILEEDGES
100
AcDbPolyline
 90
        2
 70
     0
 43
0.4799999999999646
 10
-151.013668127557
 20
51.43969966495808
 10
-151.0225361682288
 20
51.34588559390532
  0
LWPOLYLINE
  5
138
330
1F
100
AcDbEntity
  8
PROFILEEDGES
100
AcDbPolyline
 90
        2
 70
     0
 43
0.4799999999999646
 10
-150.9783708172887
 20
50.87866498386392
 10
-150.9520808500397
 20
50.78817432304745
  0
LWPOLYLINE
  5
139
330
1F
100
AcDbEntity
  8
PROFILEEDGES
100
AcDbPolyline
 90
        2
 70
     0
 43
0.4799999999999646
 10
-150.9783708172749
 20
51.6247346453578
 10
-150.998926951677
 20
51.53277178649009
  0
LWPOLYLINE
  5
13A
330
1F
100
AcDbEntity
  8
PROFILEEDGES
100
AcDbPolyline
 90
        2
 70
     0
 43
0.4799999999999646
 10
-150.952080850023
 20
51.71522530617285
 10
-150.9783708172749
 20
51.6247346453578
  0
LWPOLYLINE
  5
13B
330
1F
100
AcDbEntity
  8
PROFILEEDGES
100
AcDbPolyline
 90
        2
 70
     0
 43
0.4799999999999646
 10
-150.7919879638552
 20
50.44795962213933
 10
-150.7390215671672
 20
50.37002193616812
  0
LWPOLYLINE
  5
13C
330
1F
100
AcDbEntity
  8
PROFILEEDGES
100
AcDbPolyline
 90
        2
 70
     0
 43
0.4799999999999646
 10
-150.9201608044099
 20
51.80388664363658
 10
-150.952080850023
 20
51.71522530617285
  0
LWPOLYLINE
  5
13D
330
1F
100
AcDbEntity
  8
PROFILEEDGES
100
AcDbPolyline
 90
        2
 70
     0
 43
0.4799999999999646
 10
-150.8827366542762
 20
51.8903687519562
 10
-150.9201608044099
 20
51.80388664363658
  0
LWPOLYLINE
  5
13E
330
1F
100
AcDbEntity
  8
PROFILEEDGES
100
AcDbPolyline
 90
        2
 70
     0
 43
0.4799999999999646
 10
-150.8399560956408
 20
51.97433032576067
 10
-150.8827366542762
 20
51.8903687519562
  0
LWPOLYLINE
  5
13F
330
1F
100
AcDbEntity
  8
PROFILEEDGES
100
AcDbPolyline
 90
        2
 70
     0
 43
0.4799999999999646
 10
-150.6812659397695
 20
50.29556382998247
 10
-150.618949016738
 20
50.2248791557118
  0
LWPOLYLINE
  5
140
330
1F
100
AcDbEntity
  8
PROFILEEDGES
100
AcDbPolyline
 90
        2
 70
     0
 43
0.4799999999999646
 10
-150.9201608044314
 20
50.69951298558307
 10
-150.8827366542979
 20
50.61303087726137
  0
LWPOLYLINE
  5
141
330
1F
100
AcDbEntity
  8
PROFILEEDGES
100
AcDbPolyline
 90
        2
 70
     0
 43
0.4799999999999646
 10
-150.9520808500397
 20
50.78817432304745
 10
-150.9201608044314
 20
50.69951298558307
  0
LWPOLYLINE
  5
142
330
1F
100
AcDbEntity
  8
PROFILEEDGES
100
AcDbPolyline
 90
        2
 70
     0
 43
0.4799999999999646
 10
-151.0136681275628
 20
51.06369996426449
 10
-150.9989269516857
 20
50.97062784273278
  0
LWPOLYLINE
  5
143
330
1F
100
AcDbEntity
  8
PROFILEEDGES
100
AcDbPolyline
 90
        2
 70
     0
 43
0.4799999999999646
 10
-150.9989269516857
 20
50.97062784273278
 10
-150.9783708172887
 20
50.87866498386392
  0
LWPOLYLINE
  5
144
330
1F
100
AcDbEntity
  8
PROFILEEDGES
100
AcDbPolyline
 90
        2
 70
     0
 43
0.4799999999999646
 10
-150.7390215671672
 20
50.37002193616812
 10
-150.6812659397695
 20
50.29556382998247
  0
LWPOLYLINE
  5
145
330
1F
100
AcDbEntity
  8
PROFILEEDGES
100
AcDbPolyline
 90
        2
 70
     0
 43
0.4799999999999646
 10
-148.3697262114073
 20
52.20783579918714
 10
-148.4320431344389
 20
52.27852047345896
  0
LWPOLYLINE
  5
146
330
1F
100
AcDbEntity
  8
PROFILEEDGES
100
AcDbPolyline
 90
        2
 70
     0
 43
0.4799999999999646
 10
-149.3374962252151
 20
52.73987186655338
 10
-149.4313102962668
 20
52.74873990722526
  0
LWPOLYLINE
  5
147
330
1F
100
AcDbEntity
  8
PROFILEEDGES
100
AcDbPolyline
 90
        2
 70
     0
 43
0.4799999999999646
 10
-149.9890215671246
 20
52.67828458903605
 10
-150.0776829045913
 20
52.64636454342667
  0
LWPOLYLINE
  5
148
330
1F
100
AcDbEntity
  8
PROFILEEDGES
100
AcDbPolyline
 90
        2
 70
     0
 43
0.4799999999999646
 10
-149.5254960755628
 20
52.75169981458504
 10
-149.6196818548567
 20
52.74873990722934
  0
LWPOLYLINE
  5
149
330
1F
100
AcDbEntity
  8
PROFILEEDGES
100
AcDbPolyline
 90
        2
 70
     0
 43
0.4799999999999646
 10
-149.8985309063104
 20
52.70457455628513
 10
-149.9890215671246
 20
52.67828458903605
  0
LWPOLYLINE
  5
14A
330
1F
100
AcDbEntity
  8
PROFILEEDGES
100
AcDbPolyline
 90
        2
 70
     0
 43
0.4799999999999646
 10
-148.7217558830977
 20
52.51819170282414
 10
-148.8028655644114
 20
52.56615983463838
  0
LWPOLYLINE
  5
14B
330
1F
100
AcDbEntity
  8
PROFILEEDGES
100
AcDbPolyline
 90
        2
 70
     0
 43
0.4799999999999646
 10
-149.8065680474404
 20
52.7251306906833
 10
-149.8985309063104
 20
52.70457455628513
  0
LWPOLYLINE
  5
14C
330
1F
100
AcDbEntity
  8
PROFILEEDGES
100
AcDbPolyline
 90
        2
 70
     0
 43
0.4799999999999646
 10
-148.4320431344389
 20
52.27852047345896
 10
-148.4986754166764
 20
52.34515275569911
  0
LWPOLYLINE
  5
14D
330
1F
100
AcDbEntity
  8
PROFILEEDGES
100
AcDbPolyline
 90
        2
 70
     0
 43
0.4799999999999646
 10
-148.0520651994911
 20
51.53277178643685
 10
-148.0726213338881
 20
51.62473464530684
  0
LWPOLYLINE
  5
14E
330
1F
100
AcDbEntity
  8
PROFILEEDGES
100
AcDbPolyline
 90
        2
 70
     0
 43
0.4799999999999646
 10
-148.8028655644114
 20
52.56615983463838
 10
-148.886827138217
 20
52.60894039327254
  0
LWPOLYLINE
  5
14F
330
1F
100
AcDbEntity
  8
PROFILEEDGES
100
AcDbPolyline
 90
        2
 70
     0
 43
0.4799999999999646
 10
-148.9733092465378
 20
52.64636454340745
 10
-149.0619705840004
 20
52.67828458901944
  0
LWPOLYLINE
  5
150
330
1F
100
AcDbEntity
  8
PROFILEEDGES
100
AcDbPolyline
 90
        2
 70
     0
 43
0.4799999999999646
 10
-149.0619705840004
 20
52.67828458901944
 10
-149.1524612448154
 20
52.70457455627126
  0
LWPOLYLINE
  5
151
330
1F
100
AcDbEntity
  8
PROFILEEDGES
100
AcDbPolyline
 90
        2
 70
     0
 43
0.4799999999999646
 10
-148.3119705840097
 20
52.13337769300266
 10
-148.3697262114073
 20
52.20783579918714
  0
LWPOLYLINE
  5
152
330
1F
100
AcDbEntity
  8
PROFILEEDGES
100
AcDbPolyline
 90
        2
 70
     0
 43
0.4799999999999646
 10
-148.5693600909447
 20
52.40746967873225
 10
-148.6438181971272
 20
52.46522530613171
  0
LWPOLYLINE
  5
153
330
1F
100
AcDbEntity
  8
PROFILEEDGES
100
AcDbPolyline
 90
        2
 70
     0
 43
0.4799999999999646
 10
-149.1524612448154
 20
52.70457455627126
 10
-149.2444241036843
 20
52.72513069067342
  0
LWPOLYLINE
  5
154
330
1F
100
AcDbEntity
  8
PROFILEEDGES
100
AcDbPolyline
 90
        2
 70
     0
 43
0.4799999999999646
 10
-148.0726213338881
 20
51.62473464530684
 10
-148.0989113011372
 20
51.71522530612221
  0
LWPOLYLINE
  5
155
330
1F
100
AcDbEntity
  8
PROFILEEDGES
100
AcDbPolyline
 90
        2
 70
     0
 43
0.4799999999999646
 10
-149.7134959259087
 20
52.7398718665604
 10
-149.8065680474404
 20
52.7251306906833
  0
LWPOLYLINE
  5
156
330
1F
100
AcDbEntity
  8
PROFILEEDGES
100
AcDbPolyline
 90
        2
 70
     0
 43
0.4799999999999646
 10
-148.4986754166764
 20
52.34515275569911
 10
-148.5693600909447
 20
52.40746967873225
  0
LWPOLYLINE
  5
157
330
1F
100
AcDbEntity
  8
PROFILEEDGES
100
AcDbPolyline
 90
        2
 70
     0
 43
0.4799999999999646
 10
-148.2110360555096
 20
51.97433032571397
 10
-148.2590041873216
 20
52.05544000703146
  0
LWPOLYLINE
  5
158
330
1F
100
AcDbEntity
  8
PROFILEEDGES
100
AcDbPolyline
 90
        2
 70
     0
 43
0.4799999999999646
 10
-148.6438181971272
 20
52.46522530613171
 10
-148.7217558830977
 20
52.51819170282414
  0
LWPOLYLINE
  5
159
330
1F
100
AcDbEntity
  8
PROFILEEDGES
100
AcDbPolyline
 90
        2
 70
     0
 43
0.4799999999999646
 10
-150.0776829045913
 20
52.64636454342667
 10
-150.1641650129118
 20
52.60894039329543
  0
LWPOLYLINE
  5
15A
330
1F
100
AcDbEntity
  8
PROFILEEDGES
100
AcDbPolyline
 90
        2
 70
     0
 43
0.4799999999999646
 10
-148.0254960755882
 20
51.25169981455802
 10
-148.028455982945
 20
51.34588559385305
  0
LWPOLYLINE
  5
15B
330
1F
100
AcDbEntity
  8
PROFILEEDGES
100
AcDbPolyline
 90
        2
 70
     0
 43
0.4799999999999646
 10
-148.2590041873216
 20
52.05544000703146
 10
-148.3119705840097
 20
52.13337769300266
  0
LWPOLYLINE
  5
15C
330
1F
100
AcDbEntity
  8
PROFILEEDGES
100
AcDbPolyline
 90
        2
 70
     0
 43
0.4799999999999646
 10
-150.1641650129118
 20
52.60894039329543
 10
-150.2481265867175
 20
52.56615983466367
  0
LWPOLYLINE
  5
15D
330
1F
100
AcDbEntity
  8
PROFILEEDGES
100
AcDbPolyline
 90
        2
 70
     0
 43
0.4799999999999646
 10
-150.2481265867175
 20
52.56615983466367
 10
-150.3292362680339
 20
52.51819170285277
  0
LWPOLYLINE
  5
15E
330
1F
100
AcDbEntity
  8
PROFILEEDGES
100
AcDbPolyline
 90
        2
 70
     0
 43
0.4799999999999646
 10
-149.4313102962668
 20
52.74873990722526
 10
-149.5254960755628
 20
52.75169981458504
  0
LWPOLYLINE
  5
15F
330
1F
100
AcDbEntity
  8
PROFILEEDGES
100
AcDbPolyline
 90
        2
 70
     0
 43
0.4799999999999646
 10
-148.886827138217
 20
52.60894039327254
 10
-148.9733092465378
 20
52.64636454340745
  0
LWPOLYLINE
  5
160
330
1F
100
AcDbEntity
  8
PROFILEEDGES
100
AcDbPolyline
 90
        2
 70
     0
 43
0.4799999999999646
 10
-149.2444241036843
 20
52.72513069067342
 10
-149.3374962252151
 20
52.73987186655338
  0
LWPOLYLINE
  5
161
330
1F
100
AcDbEntity
  8
PROFILEEDGES
100
AcDbPolyline
 90
        2
 70
     0
 43
0.4799999999999646
 10
-150.3292362680339
 20
52.51819170285277
 10
-150.4071739540051
 20
52.46522530616352
  0
LWPOLYLINE
  5
162
330
1F
100
AcDbEntity
  8
PROFILEEDGES
100
AcDbPolyline
 90
        2
 70
     0
 43
0.4799999999999646
 10
-149.6196818548567
 20
52.74873990722934
 10
-149.7134959259087
 20
52.7398718665604
  0
LWPOLYLINE
  5
163
330
1F
100
AcDbEntity
  8
PROFILEEDGES
100
AcDbPolyline
 90
        2
 70
     0
 43
0.4799999999999646
 10
-148.037324023614
 20
51.43969966490515
 10
-148.0520651994911
 20
51.53277178643685
  0
LWPOLYLINE
  5
164
330
1F
100
AcDbEntity
  8
PROFILEEDGES
100
AcDbPolyline
 90
        2
 70
     0
 43
0.4799999999999646
 10
-148.0989113011372
 20
51.71522530612221
 10
-148.1308313467454
 20
51.80388664358772
  0
LWPOLYLINE
  5
165
330
1F
100
AcDbEntity
  8
PROFILEEDGES
100
AcDbPolyline
 90
        2
 70
     0
 43
0.4799999999999646
 10
-148.168255496879
 20
51.89036875190824
 10
-148.2110360555096
 20
51.97433032571397
  0
LWPOLYLINE
  5
166
330
1F
100
AcDbEntity
  8
PROFILEEDGES
100
AcDbPolyline
 90
        2
 70
     0
 43
0.4799999999999646
 10
-148.028455982945
 20
51.34588559385305
 10
-148.037324023614
 20
51.43969966490515
  0
LWPOLYLINE
  5
167
330
1F
100
AcDbEntity
  8
PROFILEEDGES
100
AcDbPolyline
 90
        2
 70
     0
 43
0.4799999999999646
 10
-148.1308313467454
 20
51.80388664358772
 10
-148.168255496879
 20
51.89036875190824
  0
LWPOLYLINE
  5
168
330
1F
100
AcDbEntity
  8
PROFILEEDGES
100
AcDbPolyline
 90
        2
 70
     0
 43
0.4799999999999646
 10
136.202745752684
 20
-82.27389079740013
 10
136.2892278610045
 20
-82.23646664726773
  0
LWPOLYLINE
  5
169
330
1F
100
AcDbEntity
  8
PROFILEEDGES
100
AcDbPolyline
 90
        2
 70
     0
 43
0.4799999999999646
 10
136.3731894348103
 20
-82.19368608863594
 10
136.4542991161289
 20
-82.14571795682507
  0
LWPOLYLINE
  5
16A
330
1F
100
AcDbEntity
  8
PROFILEEDGES
100
AcDbPolyline
 90
        2
 70
     0
 43
0.4799999999999646
 10
134.7688810452222
 20
-82.09275156010402
 10
134.8468187311904
 20
-82.14571795679643
  0
LWPOLYLINE
  5
16B
330
1F
100
AcDbEntity
  8
PROFILEEDGES
100
AcDbPolyline
 90
        2
 70
     0
 43
0.4799999999999646
 10
136.2892278610045
 20
-82.23646664726773
 10
136.3731894348103
 20
-82.19368608863594
  0
LWPOLYLINE
  5
16C
330
1F
100
AcDbEntity
  8
PROFILEEDGES
100
AcDbPolyline
 90
        2
 70
     0
 43
0.4799999999999646
 10
135.8385587740015
 20
-82.36739812053268
 10
135.9316308955331
 20
-82.35265694465559
  0
LWPOLYLINE
  5
16D
330
1F
100
AcDbEntity
  8
PROFILEEDGES
100
AcDbPolyline
 90
        2
 70
     0
 43
0.4799999999999646
 10
135.7447447029493
 20
-82.37626616120163
 10
135.8385587740015
 20
-82.36739812053268
  0
LWPOLYLINE
  5
16E
330
1F
100
AcDbEntity
  8
PROFILEEDGES
100
AcDbPolyline
 90
        2
 70
     0
 43
0.4799999999999646
 10
136.4542991161289
 20
-82.14571795682507
 10
136.5322368020978
 20
-82.09275156013582
  0
LWPOLYLINE
  5
16F
330
1F
100
AcDbEntity
  8
PROFILEEDGES
100
AcDbPolyline
 90
        2
 70
     0
 43
0.4799999999999646
 10
136.0235937544032
 20
-82.33210081025742
 10
136.1140844152196
 20
-82.30581084300833
  0
LWPOLYLINE
  5
170
330
1F
100
AcDbEntity
  8
PROFILEEDGES
100
AcDbPolyline
 90
        2
 70
     0
 43
0.4799999999999646
 10
135.4625590733079
 20
-82.36739812052568
 10
135.5563731443618
 20
-82.37626616119869
  0
LWPOLYLINE
  5
171
330
1F
100
AcDbEntity
  8
PROFILEEDGES
100
AcDbPolyline
 90
        2
 70
     0
 43
0.4799999999999646
 10
136.1140844152196
 20
-82.30581084300833
 10
136.202745752684
 20
-82.27389079740013
  0
LWPOLYLINE
  5
172
330
1F
100
AcDbEntity
  8
PROFILEEDGES
100
AcDbPolyline
 90
        2
 70
     0
 43
0.4799999999999646
 10
135.9316308955331
 20
-82.35265694465559
 10
136.0235937544032
 20
-82.33210081025742
  0
LWPOLYLINE
  5
173
330
1F
100
AcDbEntity
  8
PROFILEEDGES
100
AcDbPolyline
 90
        2
 70
     0
 43
0.4799999999999646
 10
136.5322368020978
 20
-82.09275156013582
 10
136.6066949082834
 20
-82.0349959327382
  0
LWPOLYLINE
  5
174
330
1F
100
AcDbEntity
  8
PROFILEEDGES
100
AcDbPolyline
 90
        2
 70
     0
 43
0.4799999999999646
 10
-7.716881734435204
 20
50.15824686949081
 10
-7.646197060166836
 20
50.09592994645767
  0
LWPOLYLINE
  5
175
330
1F
100
AcDbEntity
  8
PROFILEEDGES
100
AcDbPolyline
 90
        2
 70
     0
 43
0.4799999999999646
 10
-8.178233127497634
 20
51.06369996028359
 10
-8.163491951620534
 20
50.97062783875192
  0
LWPOLYLINE
  5
176
330
1F
100
AcDbEntity
  8
PROFILEEDGES
100
AcDbPolyline
 90
        2
 70
     0
 43
0.4799999999999646
 10
-8.142935817221199
 20
50.87866497988305
 10
-8.116645849974411
 20
50.78817431906656
  0
LWPOLYLINE
  5
177
330
1F
100
AcDbEntity
  8
PROFILEEDGES
100
AcDbPolyline
 90
        2
 70
     0
 43
0.4799999999999646
 10
-8.187101168166578
 20
51.15751403133687
 10
-8.178233127497634
 20
51.06369996028359
  0
LWPOLYLINE
  5
178
330
1F
100
AcDbEntity
  8
PROFILEEDGES
100
AcDbPolyline
 90
        2
 70
     0
 43
0.4799999999999646
 10
-8.19006107552343
 20
51.25169981063073
 10
-8.187101168166578
 20
51.15751403133687
  0
LWPOLYLINE
  5
179
330
1F
100
AcDbEntity
  8
PROFILEEDGES
100
AcDbPolyline
 90
        2
 70
     0
 43
0.4799999999999646
 10
-7.783514016672779
 20
50.22487915173094
 10
-7.716881734435204
 20
50.15824686949081
  0
LWPOLYLINE
  5
17A
330
1F
100
AcDbEntity
  8
PROFILEEDGES
100
AcDbPolyline
 90
        2
 70
     0
 43
0.4799999999999646
 10
-8.00452109560203
 20
50.5290692994748
 10
-7.956552963789985
 20
50.44795961815844
  0
LWPOLYLINE
  5
17B
330
1F
100
AcDbEntity
  8
PROFILEEDGES
100
AcDbPolyline
 90
        2
 70
     0
 43
0.4799999999999646
 10
-8.187101168163622
 20
51.34588558992444
 10
-8.19006107552343
 20
51.25169981063073
  0
LWPOLYLINE
  5
17C
330
1F
100
AcDbEntity
  8
PROFILEEDGES
100
AcDbPolyline
 90
        2
 70
     0
 43
0.4799999999999646
 10
-8.04730165423265
 20
50.6130308732805
 10
-8.00452109560203
 20
50.5290692994748
  0
LWPOLYLINE
  5
17D
330
1F
100
AcDbEntity
  8
PROFILEEDGES
100
AcDbPolyline
 90
        2
 70
     0
 43
0.4799999999999646
 10
-8.163491951611782
 20
51.53277178250923
 10
-8.178233127491769
 20
51.43969966097718
  0
LWPOLYLINE
  5
17E
330
1F
100
AcDbEntity
  8
PROFILEEDGES
100
AcDbPolyline
 90
        2
 70
     0
 43
0.4799999999999646
 10
-8.142935817209647
 20
51.62473464137694
 10
-8.163491951611782
 20
51.53277178250923
  0
LWPOLYLINE
  5
17F
330
1F
100
AcDbEntity
  8
PROFILEEDGES
100
AcDbPolyline
 90
        2
 70
     0
 43
0.4799999999999646
 10
-8.11664584995783
 20
51.71522530219196
 10
-8.142935817209647
 20
51.62473464137694
  0
LWPOLYLINE
  5
180
330
1F
100
AcDbEntity
  8
PROFILEEDGES
100
AcDbPolyline
 90
        2
 70
     0
 43
0.4799999999999646
 10
-8.084725804344666
 20
51.80388663965572
 10
-8.11664584995783
 20
51.71522530219196
  0
LWPOLYLINE
  5
181
330
1F
100
AcDbEntity
  8
PROFILEEDGES
100
AcDbPolyline
 90
        2
 70
     0
 43
0.4799999999999646
 10
-8.178233127491769
 20
51.43969966097718
 10
-8.187101168163622
 20
51.34588558992444
  0
LWPOLYLINE
  5
182
330
1F
100
AcDbEntity
  8
PROFILEEDGES
100
AcDbPolyline
 90
        2
 70
     0
 43
0.4799999999999646
 10
-8.116645849974411
 20
50.78817431906656
 10
-8.08472580436391
 20
50.6995129816022
  0
LWPOLYLINE
  5
183
330
1F
100
AcDbEntity
  8
PROFILEEDGES
100
AcDbPolyline
 90
        2
 70
     0
 43
0.4799999999999646
 10
-7.571738953982135
 20
50.03817431905703
 10
-7.493801268013859
 20
49.98520792236577
  0
LWPOLYLINE
  5
184
330
1F
100
AcDbEntity
  8
PROFILEEDGES
100
AcDbPolyline
 90
        2
 70
     0
 43
0.4799999999999646
 10
-7.903586567101933
 20
50.37002193218726
 10
-7.845830939704293
 20
50.2955638260016
  0
LWPOLYLINE
  5
185
330
1F
100
AcDbEntity
  8
PROFILEEDGES
100
AcDbPolyline
 90
        2
 70
     0
 43
0.4799999999999646
 10
-8.08472580436391
 20
50.6995129816022
 10
-8.04730165423265
 20
50.6130308732805
  0
LWPOLYLINE
  5
186
330
1F
100
AcDbEntity
  8
PROFILEEDGES
100
AcDbPolyline
 90
        2
 70
     0
 43
0.4799999999999646
 10
-7.956552963789985
 20
50.44795961815844
 10
-7.903586567101933
 20
50.37002193218726
  0
LWPOLYLINE
  5
187
330
1F
100
AcDbEntity
  8
PROFILEEDGES
100
AcDbPolyline
 90
        2
 70
     0
 43
0.4799999999999646
 10
-7.845830939704293
 20
50.2955638260016
 10
-7.783514016672779
 20
50.22487915173094
  0
LWPOLYLINE
  5
188
330
1F
100
AcDbEntity
  8
PROFILEEDGES
100
AcDbPolyline
 90
        2
 70
     0
 43
0.4799999999999646
 10
-8.163491951620534
 20
50.97062783875192
 10
-8.142935817221199
 20
50.87866497988305
  0
LWPOLYLINE
  5
189
330
1F
100
AcDbEntity
  8
PROFILEEDGES
100
AcDbPolyline
 90
        2
 70
     0
 43
0.4799999999999646
 10
-7.646197060166836
 20
50.09592994645767
 10
-7.571738953982135
 20
50.03817431905703
  0
LWPOLYLINE
  5
18A
330
1F
100
AcDbEntity
  8
PROFILEEDGES
100
AcDbPolyline
 90
        2
 70
     0
 43
0.4799999999999646
 10
-150.291987961643
 20
-81.68296625306972
 10
-150.2390215649549
 20
-81.76090393904093
  0
LWPOLYLINE
  5
18B
330
1F
100
AcDbEntity
  8
PROFILEEDGES
100
AcDbPolyline
 90
        2
 70
     0
 43
0.4799999999999646
 10
-150.4520808478274
 20
-81.34275155216045
 10
-150.4201608022192
 20
-81.43141288962597
  0
LWPOLYLINE
  5
18C
330
1F
100
AcDbEntity
  8
PROFILEEDGES
100
AcDbPolyline
 90
        2
 70
     0
 43
0.4799999999999646
 10
-150.4201608022192
 20
-81.43141288962597
 10
-150.382736652088
 20
-81.51789499794653
  0
LWPOLYLINE
  5
18D
330
1F
100
AcDbEntity
  8
PROFILEEDGES
100
AcDbPolyline
 90
        2
 70
     0
 43
0.4799999999999646
 10
-150.382736652088
 20
-81.51789499794653
 10
-150.339956093455
 20
-81.60185657175224
  0
LWPOLYLINE
  5
18E
330
1F
100
AcDbEntity
  8
PROFILEEDGES
100
AcDbPolyline
 90
        2
 70
     0
 43
0.4799999999999646
 10
-150.4783708150765
 20
-81.25226089134512
 10
-150.4520808478274
 20
-81.34275155216045
  0
LWPOLYLINE
  5
18F
330
1F
100
AcDbEntity
  8
PROFILEEDGES
100
AcDbPolyline
 90
        2
 70
     0
 43
0.4799999999999646
 10
-150.4989269494735
 20
-81.16029803247625
 10
-150.4783708150765
 20
-81.25226089134512
  0
LWPOLYLINE
  5
190
330
1F
100
AcDbEntity
  8
PROFILEEDGES
100
AcDbPolyline
 90
        2
 70
     0
 43
0.4799999999999646
 10
-150.2390215649549
 20
-81.76090393904093
 10
-150.1812659375573
 20
-81.83536204522541
  0
LWPOLYLINE
  5
191
330
1F
100
AcDbEntity
  8
PROFILEEDGES
100
AcDbPolyline
 90
        2
 70
     0
 43
0.4799999999999646
 10
-150.339956093455
 20
-81.60185657175224
 10
-150.291987961643
 20
-81.68296625306972
  0
LWPOLYLINE
  5
192
330
1F
100
AcDbEntity
  8
PROFILEEDGES
100
AcDbPolyline
 90
        2
 70
     0
 43
0.4799999999999646
 10
-150.5136681253507
 20
-81.0672259109434
 10
-150.4989269494735
 20
-81.16029803247625
  0
LWPOLYLINE
  5
193
330
1F
100
AcDbEntity
  8
PROFILEEDGES
100
AcDbPolyline
 90
        2
 70
     0
 43
0.4799999999999646
 10
-149.8292362658217
 20
-79.61273417235628
 10
-149.9071739517929
 20
-79.6657005690455
  0
LWPOLYLINE
  5
194
330
1F
100
AcDbEntity
  8
PROFILEEDGES
100
AcDbPolyline
 90
        2
 70
     0
 43
0.4799999999999646
 10
-150.1189490144893
 20
-79.85240540171107
 10
-150.1812659375225
 20
-79.92309007597943
  0
LWPOLYLINE
  5
195
330
1F
100
AcDbEntity
  8
PROFILEEDGES
100
AcDbPolyline
 90
        2
 70
     0
 43
0.4799999999999646
 10
-149.9816320579786
 20
-79.72345619644314
 10
-150.0523167322504
 20
-79.7857731194735
  0
LWPOLYLINE
  5
196
330
1F
100
AcDbEntity
  8
PROFILEEDGES
100
AcDbPolyline
 90
        2
 70
     0
 43
0.4799999999999646
 10
-149.5776829023791
 20
-79.48456133178121
 10
-149.6641650106997
 20
-79.52198548191245
  0
LWPOLYLINE
  5
197
330
1F
100
AcDbEntity
  8
PROFILEEDGES
100
AcDbPolyline
 90
        2
 70
     0
 43
0.4799999999999646
 10
-149.4890215649125
 20
-79.45264128617185
 10
-149.5776829023791
 20
-79.48456133178121
  0
LWPOLYLINE
  5
198
330
1F
100
AcDbEntity
  8
PROFILEEDGES
100
AcDbPolyline
 90
        2
 70
     0
 43
0.4799999999999646
 10
-149.2134959236965
 20
-79.39105400864865
 10
-149.3065680452283
 20
-79.40579518452574
  0
LWPOLYLINE
  5
199
330
1F
100
AcDbEntity
  8
PROFILEEDGES
100
AcDbPolyline
 90
        2
 70
     0
 43
0.4799999999999646
 10
-148.9313102940569
 20
-79.38218596798265
 10
-149.0254960733506
 20
-79.37922606062284
  0
LWPOLYLINE
  5
19A
330
1F
100
AcDbEntity
  8
PROFILEEDGES
100
AcDbPolyline
 90
        2
 70
     0
 43
0.4799999999999646
 10
-150.382736652064
 20
-80.2405571232517
 10
-150.4201608022
 20
-80.32703923157132
  0
LWPOLYLINE
  5
19B
330
1F
100
AcDbEntity
  8
PROFILEEDGES
100
AcDbPolyline
 90
        2
 70
     0
 43
0.4799999999999646
 10
-150.5225361660167
 20
-80.78504028130259
 10
-150.5254960733765
 20
-80.8792260605963
  0
LWPOLYLINE
  5
19C
330
1F
100
AcDbEntity
  8
PROFILEEDGES
100
AcDbPolyline
 90
        2
 70
     0
 43
0.4799999999999646
 10
-150.2919879616144
 20
-80.07548586813242
 10
-150.3399560934286
 20
-80.15659554944723
  0
LWPOLYLINE
  5
19D
330
1F
100
AcDbEntity
  8
PROFILEEDGES
100
AcDbPolyline
 90
        2
 70
     0
 43
0.4799999999999646
 10
-150.5225361660196
 20
-80.97341183989016
 10
-150.5136681253507
 20
-81.0672259109434
  0
LWPOLYLINE
  5
19E
330
1F
100
AcDbEntity
  8
PROFILEEDGES
100
AcDbPolyline
 90
        2
 70
     0
 43
0.4799999999999646
 10
-150.4989269494648
 20
-80.59815408871896
 10
-150.5136681253448
 20
-80.69122621025099
  0
LWPOLYLINE
  5
19F
330
1F
100
AcDbEntity
  8
PROFILEEDGES
100
AcDbPolyline
 90
        2
 70
     0
 43
0.4799999999999646
 10
-150.239021564922
 20
-79.997548182163
 10
-150.2919879616144
 20
-80.07548586813242
  0
LWPOLYLINE
  5
1A0
330
1F
100
AcDbEntity
  8
PROFILEEDGES
100
AcDbPolyline
 90
        2
 70
     0
 43
0.4799999999999646
 10
-149.7481265845054
 20
-79.56476604054423
 10
-149.8292362658217
 20
-79.61273417235628
  0
LWPOLYLINE
  5
1A1
330
1F
100
AcDbEntity
  8
PROFILEEDGES
100
AcDbPolyline
 90
        2
 70
     0
 43
0.4799999999999646
 10
-150.4783708150626
 20
-80.50619122985007
 10
-150.4989269494648
 20
-80.59815408871896
  0
LWPOLYLINE
  5
1A2
330
1F
100
AcDbEntity
  8
PROFILEEDGES
100
AcDbPolyline
 90
        2
 70
     0
 43
0.4799999999999646
 10
-150.4201608022
 20
-80.32703923157132
 10
-150.4520808478108
 20
-80.41570056903505
  0
LWPOLYLINE
  5
1A3
330
1F
100
AcDbEntity
  8
PROFILEEDGES
100
AcDbPolyline
 90
        2
 70
     0
 43
0.4799999999999646
 10
-149.6641650106997
 20
-79.52198548191245
 10
-149.7481265845054
 20
-79.56476604054423
  0
LWPOLYLINE
  5
1A4
330
1F
100
AcDbEntity
  8
PROFILEEDGES
100
AcDbPolyline
 90
        2
 70
     0
 43
0.4799999999999646
 10
-149.3985309040983
 20
-79.4263513189239
 10
-149.4890215649125
 20
-79.45264128617185
  0
LWPOLYLINE
  5
1A5
330
1F
100
AcDbEntity
  8
PROFILEEDGES
100
AcDbPolyline
 90
        2
 70
     0
 43
0.4799999999999646
 10
-149.1196818526444
 20
-79.38218596797971
 10
-149.2134959236965
 20
-79.39105400864865
  0
LWPOLYLINE
  5
1A6
330
1F
100
AcDbEntity
  8
PROFILEEDGES
100
AcDbPolyline
 90
        2
 70
     0
 43
0.4799999999999646
 10
-149.0254960733506
 20
-79.37922606062284
 10
-149.1196818526444
 20
-79.38218596797971
  0
LWPOLYLINE
  5
1A7
330
1F
100
AcDbEntity
  8
PROFILEEDGES
100
AcDbPolyline
 90
        2
 70
     0
 43
0.4799999999999646
 10
-150.3399560934286
 20
-80.15659554944723
 10
-150.382736652064
 20
-80.2405571232517
  0
LWPOLYLINE
  5
1A8
330
1F
100
AcDbEntity
  8
PROFILEEDGES
100
AcDbPolyline
 90
        2
 70
     0
 43
0.4799999999999646
 10
-150.0523167322504
 20
-79.7857731194735
 10
-150.1189490144893
 20
-79.85240540171107
  0
LWPOLYLINE
  5
1A9
330
1F
100
AcDbEntity
  8
PROFILEEDGES
100
AcDbPolyline
 90
        2
 70
     0
 43
0.4799999999999646
 10
-149.3065680452283
 20
-79.40579518452574
 10
-149.3985309040983
 20
-79.4263513189239
  0
LWPOLYLINE
  5
1AA
330
1F
100
AcDbEntity
  8
PROFILEEDGES
100
AcDbPolyline
 90
        2
 70
     0
 43
0.4799999999999646
 10
-150.5254960733765
 20
-80.8792260605963
 10
-150.5225361660196
 20
-80.97341183989016
  0
LWPOLYLINE
  5
1AB
330
1F
100
AcDbEntity
  8
PROFILEEDGES
100
AcDbPolyline
 90
        2
 70
     0
 43
0.4799999999999646
 10
-150.5136681253448
 20
-80.69122621025099
 10
-150.5225361660167
 20
-80.78504028130259
  0
LWPOLYLINE
  5
1AC
330
1F
100
AcDbEntity
  8
PROFILEEDGES
100
AcDbPolyline
 90
        2
 70
     0
 43
0.4799999999999646
 10
-150.4520808478108
 20
-80.41570056903505
 10
-150.4783708150626
 20
-80.50619122985007
  0
LWPOLYLINE
  5
1AD
330
1F
100
AcDbEntity
  8
PROFILEEDGES
100
AcDbPolyline
 90
        2
 70
     0
 43
0.4799999999999646
 10
-150.1812659375225
 20
-79.92309007597943
 10
-150.239021564922
 20
-79.997548182163
  0
LWPOLYLINE
  5
1AE
330
1F
100
AcDbEntity
  8
PROFILEEDGES
100
AcDbPolyline
 90
        2
 70
     0
 43
0.4799999999999646
 10
-149.9071739517929
 20
-79.6657005690455
 10
-149.9816320579786
 20
-79.72345619644314
  0
LWPOLYLINE
  5
1AF
330
1F
100
AcDbEntity
  8
PROFILEEDGES
100
AcDbPolyline
 90
        2
 70
     0
 43
0.4799999999999646
 10
-148.4733092443256
 20
-79.48456133180045
 10
-148.5619705817882
 20
-79.45264128618845
  0
LWPOLYLINE
  5
1B0
330
1F
100
AcDbEntity
  8
PROFILEEDGES
100
AcDbPolyline
 90
        2
 70
     0
 43
0.4799999999999646
 10
-147.8697262092299
 20
-81.83536204526673
 10
-147.8119705818305
 20
-81.76090393908316
  0
LWPOLYLINE
  5
1B1
330
1F
100
AcDbEntity
  8
PROFILEEDGES
100
AcDbPolyline
 90
        2
 70
     0
 43
0.4799999999999646
 10
-149.8292362658669
 20
-82.1457179488624
 10
-149.7481265845533
 20
-82.19368608067666
  0
LWPOLYLINE
  5
1B2
330
1F
100
AcDbEntity
  8
PROFILEEDGES
100
AcDbPolyline
 90
        2
 70
     0
 43
0.4799999999999646
 10
-149.9816320580199
 20
-82.03499592477051
 10
-149.9071739518374
 20
-82.09275155216999
  0
LWPOLYLINE
  5
1B3
330
1F
100
AcDbEntity
  8
PROFILEEDGES
100
AcDbPolyline
 90
        2
 70
     0
 43
0.4799999999999646
 10
-148.3028655622015
 20
-79.56476604057065
 10
-148.3868271360048
 20
-79.52198548193535
  0
LWPOLYLINE
  5
1B4
330
1F
100
AcDbEntity
  8
PROFILEEDGES
100
AcDbPolyline
 90
        2
 70
     0
 43
0.4799999999999646
 10
-147.525496073376
 20
-80.87922606064987
 10
-147.5284559807329
 20
-80.78504028135599
  0
LWPOLYLINE
  5
1B5
330
1F
100
AcDbEntity
  8
PROFILEEDGES
100
AcDbPolyline
 90
        2
 70
     0
 43
0.4799999999999646
 10
-150.0523167322882
 20
-81.97267900173736
 10
-149.9816320580199
 20
-82.03499592477051
  0
LWPOLYLINE
  5
1B6
330
1F
100
AcDbEntity
  8
PROFILEEDGES
100
AcDbPolyline
 90
        2
 70
     0
 43
0.4799999999999646
 10
-150.1189490145258
 20
-81.90604671949723
 10
-150.0523167322882
 20
-81.97267900173736
  0
LWPOLYLINE
  5
1B7
330
1F
100
AcDbEntity
  8
PROFILEEDGES
100
AcDbPolyline
 90
        2
 70
     0
 43
0.4799999999999646
 10
-147.9320431322631
 20
-81.90604671953623
 10
-147.8697262092299
 20
-81.83536204526673
  0
LWPOLYLINE
  5
1B8
330
1F
100
AcDbEntity
  8
PROFILEEDGES
100
AcDbPolyline
 90
        2
 70
     0
 43
0.4799999999999646
 10
172.9709939245816
 20
54.8266998055978
 10
-186.1907460753956
 20
54.82669981557657
  0
LWPOLYLINE
  5
1B9
330
1F
100
AcDbEntity
  8
PROFILEEDGES
100
AcDbPolyline
 90
        2
 70
     0
 43
0.4799999999999646
 10
-150.1812659375573
 20
-81.83536204522541
 10
-150.1189490145258
 20
-81.90604671949723
  0
LWPOLYLINE
  5
1BA
330
1F
100
AcDbEntity
  8
PROFILEEDGES
100
AcDbPolyline
 90
        2
 70
     0
 43
0.4799999999999646
 10
-148.3028655622471
 20
-82.19368608070192
 10
-148.2217558809307
 20
-82.14571794889103
  0
LWPOLYLINE
  5
1BB
330
1F
100
AcDbEntity
  8
PROFILEEDGES
100
AcDbPolyline
 90
        2
 70
     0
 43
0.4799999999999646
 10
-149.3985309041492
 20
-82.33210080230953
 10
-149.3065680452804
 20
-82.35265693671167
  0
LWPOLYLINE
  5
1BC
330
1F
100
AcDbEntity
  8
PROFILEEDGES
100
AcDbPolyline
 90
        2
 70
     0
 43
0.4799999999999646
 10
-148.837496223003
 20
-79.3910540086545
 10
-148.9313102940569
 20
-79.38218596798265
  0
LWPOLYLINE
  5
1BD
330
1F
100
AcDbEntity
  8
PROFILEEDGES
100
AcDbPolyline
 90
        2
 70
     0
 43
0.4799999999999646
 10
-148.2217558808856
 20
-79.6127341723849
 10
-148.3028655622015
 20
-79.56476604057065
  0
LWPOLYLINE
  5
1BE
330
1F
100
AcDbEntity
  8
PROFILEEDGES
100
AcDbPolyline
 90
        2
 70
     0
 43
0.4799999999999646
 10
-147.5284559807358
 20
-80.97341183994357
 10
-147.525496073376
 20
-80.87922606064987
  0
LWPOLYLINE
  5
1BF
330
1F
100
AcDbEntity
  8
PROFILEEDGES
100
AcDbPolyline
 90
        2
 70
     0
 43
0.4799999999999646
 10
-148.8374962230559
 20
-82.36739811259866
 10
-148.7444241015242
 20
-82.35265693672156
  0
LWPOLYLINE
  5
1C0
330
1F
100
AcDbEntity
  8
PROFILEEDGES
100
AcDbPolyline
 90
        2
 70
     0
 43
0.4799999999999646
 10
-149.9071739518374
 20
-82.09275155216999
 10
-149.8292362658669
 20
-82.1457179488624
  0
LWPOLYLINE
  5
1C1
330
1F
100
AcDbEntity
  8
PROFILEEDGES
100
AcDbPolyline
 90
        2
 70
     0
 43
0.4799999999999646
 10
-148.6524612426542
 20
-82.3321008023234
 10
-148.56197058184
 20
-82.30581083507431
  0
LWPOLYLINE
  5
1C2
330
1F
100
AcDbEntity
  8
PROFILEEDGES
100
AcDbPolyline
 90
        2
 70
     0
 43
0.4799999999999646
 10
-147.9320431322266
 20
-79.85240540175008
 10
-147.9986754144642
 20
-79.78577311950995
  0
LWPOLYLINE
  5
1C3
330
1F
100
AcDbEntity
  8
PROFILEEDGES
100
AcDbPolyline
 90
        2
 70
     0
 43
0.4799999999999646
 10
-147.5989112989416
 20
-81.3427515522111
 10
-147.5726213316898
 20
-81.25226089139608
  0
LWPOLYLINE
  5
1C4
330
1F
100
AcDbEntity
  8
PROFILEEDGES
100
AcDbPolyline
 90
        2
 70
     0
 43
0.4799999999999646
 10
-148.4733092443733
 20
-82.2738907894661
 10
-148.3868271360528
 20
-82.23646663933371
  0
LWPOLYLINE
  5
1C5
330
1F
100
AcDbEntity
  8
PROFILEEDGES
100
AcDbPolyline
 90
        2
 70
     0
 43
0.4799999999999646
 10
-147.7590041851094
 20
-80.0754858681776
 10
-147.8119705817975
 20
-79.99754818220639
  0
LWPOLYLINE
  5
1C6
330
1F
100
AcDbEntity
  8
PROFILEEDGES
100
AcDbPolyline
 90
        2
 70
     0
 43
0.4799999999999646
 10
-148.6524612426032
 20
-79.42635131893663
 10
-148.7444241014721
 20
-79.40579518453565
  0
LWPOLYLINE
  5
1C7
330
1F
100
AcDbEntity
  8
PROFILEEDGES
100
AcDbPolyline
 90
        2
 70
     0
 43
0.4799999999999646
 10
-147.6308313445332
 20
-80.32703923162134
 10
-147.6682554946667
 20
-80.24055712329962
  0
LWPOLYLINE
  5
1C8
330
1F
100
AcDbEntity
  8
PROFILEEDGES
100
AcDbPolyline
 90
        2
 70
     0
 43
0.4799999999999646
 10
-147.7110360533238
 20
-81.60185657179895
 10
-147.6682554946885
 20
-81.51789499799561
  0
LWPOLYLINE
  5
1C9
330
1F
100
AcDbEntity
  8
PROFILEEDGES
100
AcDbPolyline
 90
        2
 70
     0
 43
0.4799999999999646
 10
-148.7444241015242
 20
-82.35265693672156
 10
-148.6524612426542
 20
-82.3321008023234
  0
LWPOLYLINE
  5
1CA
330
1F
100
AcDbEntity
  8
PROFILEEDGES
100
AcDbPolyline
 90
        2
 70
     0
 43
0.4799999999999646
 10
-149.2134959237495
 20
-82.36739811259166
 10
-149.1196818526978
 20
-82.37626615326467
  0
LWPOLYLINE
  5
1CB
330
1F
100
AcDbEntity
  8
PROFILEEDGES
100
AcDbPolyline
 90
        2
 70
     0
 43
0.4799999999999646
 10
-148.3868271360048
 20
-79.52198548193535
 10
-148.4733092443256
 20
-79.48456133180045
  0
LWPOLYLINE
  5
1CC
330
1F
100
AcDbEntity
  8
PROFILEEDGES
100
AcDbPolyline
 90
        2
 70
     0
 43
0.4799999999999646
 10
-148.5619705817882
 20
-79.45264128618845
 10
-148.6524612426032
 20
-79.42635131893663
  0
LWPOLYLINE
  5
1CD
330
1F
100
AcDbEntity
  8
PROFILEEDGES
100
AcDbPolyline
 90
        2
 70
     0
 43
0.4799999999999646
 10
-148.0693600887326
 20
-79.7234561964768
 10
-148.143818194915
 20
-79.66570056907617
  0
LWPOLYLINE
  5
1CE
330
1F
100
AcDbEntity
  8
PROFILEEDGES
100
AcDbPolyline
 90
        2
 70
     0
 43
0.4799999999999646
 10
-147.759004185138
 20
-81.68296625311491
 10
-147.7110360533238
 20
-81.60185657179895
  0
LWPOLYLINE
  5
1CF
330
1F
100
AcDbEntity
  8
PROFILEEDGES
100
AcDbPolyline
 90
        2
 70
     0
 43
0.4799999999999646
 10
-147.598911298925
 20
-80.41570056908685
 10
-147.6308313445332
 20
-80.32703923162134
  0
LWPOLYLINE
  5
1D0
330
1F
100
AcDbEntity
  8
PROFILEEDGES
100
AcDbPolyline
 90
        2
 70
     0
 43
0.4799999999999646
 10
-147.5726213316759
 20
-80.50619122990219
 10
-147.598911298925
 20
-80.41570056908685
  0
LWPOLYLINE
  5
1D1
330
1F
100
AcDbEntity
  8
PROFILEEDGES
100
AcDbPolyline
 90
        2
 70
     0
 43
0.4799999999999646
 10
-147.5520651972789
 20
-80.59815408877105
 10
-147.5726213316759
 20
-80.50619122990219
  0
LWPOLYLINE
  5
1D2
330
1F
100
AcDbEntity
  8
PROFILEEDGES
100
AcDbPolyline
 90
        2
 70
     0
 43
0.4799999999999646
 10
-147.6682554946667
 20
-80.24055712329962
 10
-147.7110360532974
 20
-80.15659554949393
  0
LWPOLYLINE
  5
1D3
330
1F
100
AcDbEntity
  8
PROFILEEDGES
100
AcDbPolyline
 90
        2
 70
     0
 43
0.4799999999999646
 10
-147.5373240214018
 20
-80.6912262103039
 10
-147.5520651972789
 20
-80.59815408877105
  0
LWPOLYLINE
  5
1D4
330
1F
100
AcDbEntity
  8
PROFILEEDGES
100
AcDbPolyline
 90
        2
 70
     0
 43
0.4799999999999646
 10
-147.5373240214076
 20
-81.06722591099634
 10
-147.5284559807358
 20
-80.97341183994357
  0
LWPOLYLINE
  5
1D5
330
1F
100
AcDbEntity
  8
PROFILEEDGES
100
AcDbPolyline
 90
        2
 70
     0
 43
0.4799999999999646
 10
-148.7444241014721
 20
-79.40579518453565
 10
-148.837496223003
 20
-79.3910540086545
  0
LWPOLYLINE
  5
1D6
330
1F
100
AcDbEntity
  8
PROFILEEDGES
100
AcDbPolyline
 90
        2
 70
     0
 43
0.4799999999999646
 10
-148.3868271360528
 20
-82.23646663933371
 10
-148.3028655622471
 20
-82.19368608070192
  0
LWPOLYLINE
  5
1D7
330
1F
100
AcDbEntity
  8
PROFILEEDGES
100
AcDbPolyline
 90
        2
 70
     0
 43
0.4799999999999646
 10
-147.7110360532974
 20
-80.15659554949393
 10
-147.7590041851094
 20
-80.0754858681776
  0
LWPOLYLINE
  5
1D8
330
1F
100
AcDbEntity
  8
PROFILEEDGES
100
AcDbPolyline
 90
        2
 70
     0
 43
0.4799999999999646
 10
-148.56197058184
 20
-82.30581083507431
 10
-148.4733092443733
 20
-82.2738907894661
  0
LWPOLYLINE
  5
1D9
330
1F
100
AcDbEntity
  8
PROFILEEDGES
100
AcDbPolyline
 90
        2
 70
     0
 43
0.4799999999999646
 10
-147.6682554946885
 20
-81.51789499799561
 10
-147.6308313445548
 20
-81.43141288967485
  0
LWPOLYLINE
  5
1DA
330
1F
100
AcDbEntity
  8
PROFILEEDGES
100
AcDbPolyline
 90
        2
 70
     0
 43
0.4799999999999646
 10
-148.143818194915
 20
-79.66570056907617
 10
-148.2217558808856
 20
-79.6127341723849
  0
LWPOLYLINE
  5
1DB
330
1F
100
AcDbEntity
  8
PROFILEEDGES
100
AcDbPolyline
 90
        2
 70
     0
 43
0.4799999999999646
 10
-147.8119705817975
 20
-79.99754818220639
 10
-147.8697262091951
 20
-79.92309007602074
  0
LWPOLYLINE
  5
1DC
330
1F
100
AcDbEntity
  8
PROFILEEDGES
100
AcDbPolyline
 90
        2
 70
     0
 43
0.4799999999999646
 10
-149.1196818526978
 20
-82.37626615326467
 10
-149.0254960734042
 20
-82.37922606062331
  0
LWPOLYLINE
  5
1DD
330
1F
100
AcDbEntity
  8
PROFILEEDGES
100
AcDbPolyline
 90
        2
 70
     0
 43
0.4799999999999646
 10
-147.9986754145021
 20
-81.97267900177381
 10
-147.9320431322631
 20
-81.90604671953623
  0
LWPOLYLINE
  5
1DE
330
1F
100
AcDbEntity
  8
PROFILEEDGES
100
AcDbPolyline
 90
        2
 70
     0
 43
0.4799999999999646
 10
-148.2217558809307
 20
-82.14571794889103
 10
-148.1438181949595
 20
-82.0927515522018
  0
LWPOLYLINE
  5
1DF
330
1F
100
AcDbEntity
  8
PROFILEEDGES
100
AcDbPolyline
 90
        2
 70
     0
 43
0.4799999999999646
 10
-147.9986754144642
 20
-79.78577311950995
 10
-148.0693600887326
 20
-79.7234561964768
  0
LWPOLYLINE
  5
1E0
330
1F
100
AcDbEntity
  8
PROFILEEDGES
100
AcDbPolyline
 90
        2
 70
     0
 43
0.4799999999999646
 10
-147.5520651972876
 20
-81.16029803252836
 10
-147.5373240214076
 20
-81.06722591099634
  0
LWPOLYLINE
  5
1E1
330
1F
100
AcDbEntity
  8
PROFILEEDGES
100
AcDbPolyline
 90
        2
 70
     0
 43
0.4799999999999646
 10
-149.0254960734042
 20
-82.37922606062331
 10
-148.9313102941103
 20
-82.37626615326761
  0
LWPOLYLINE
  5
1E2
330
1F
100
AcDbEntity
  8
PROFILEEDGES
100
AcDbPolyline
 90
        2
 70
     0
 43
0.4799999999999646
 10
-147.8119705818305
 20
-81.76090393908316
 10
-147.759004185138
 20
-81.68296625311491
  0
LWPOLYLINE
  5
1E3
330
1F
100
AcDbEntity
  8
PROFILEEDGES
100
AcDbPolyline
 90
        2
 70
     0
 43
0.4799999999999646
 10
-148.1438181949595
 20
-82.0927515522018
 10
-148.0693600887739
 20
-82.03499592480416
  0
LWPOLYLINE
  5
1E4
330
1F
100
AcDbEntity
  8
PROFILEEDGES
100
AcDbPolyline
 90
        2
 70
     0
 43
0.4799999999999646
 10
-147.6308313445548
 20
-81.43141288967485
 10
-147.5989112989416
 20
-81.3427515522111
  0
LWPOLYLINE
  5
1E5
330
1F
100
AcDbEntity
  8
PROFILEEDGES
100
AcDbPolyline
 90
        2
 70
     0
 43
0.4799999999999646
 10
-149.3065680452804
 20
-82.35265693671167
 10
-149.2134959237495
 20
-82.36739811259166
  0
LWPOLYLINE
  5
1E6
330
1F
100
AcDbEntity
  8
PROFILEEDGES
100
AcDbPolyline
 90
        2
 70
     0
 43
0.4799999999999646
 10
-149.4890215649642
 20
-82.3058108350577
 10
-149.3985309041492
 20
-82.33210080230953
  0
LWPOLYLINE
  5
1E7
330
1F
100
AcDbEntity
  8
PROFILEEDGES
100
AcDbPolyline
 90
        2
 70
     0
 43
0.4799999999999646
 10
-148.9313102941103
 20
-82.37626615326761
 10
-148.8374962230559
 20
-82.36739811259866
  0
LWPOLYLINE
  5
1E8
330
1F
100
AcDbEntity
  8
PROFILEEDGES
100
AcDbPolyline
 90
        2
 70
     0
 43
0.4799999999999646
 10
-148.0693600887739
 20
-82.03499592480416
 10
-147.9986754145021
 20
-81.97267900177381
  0
LWPOLYLINE
  5
1E9
330
1F
100
AcDbEntity
  8
PROFILEEDGES
100
AcDbPolyline
 90
        2
 70
     0
 43
0.4799999999999646
 10
-149.5776829024291
 20
-82.27389078944572
 10
-149.4890215649642
 20
-82.3058108350577
  0
LWPOLYLINE
  5
1EA
330
1F
100
AcDbEntity
  8
PROFILEEDGES
100
AcDbPolyline
 90
        2
 70
     0
 43
0.4799999999999646
 10
-147.8697262091951
 20
-79.92309007602074
 10
-147.9320431322266
 20
-79.85240540175008
  0
LWPOLYLINE
  5
1EB
330
1F
100
AcDbEntity
  8
PROFILEEDGES
100
AcDbPolyline
 90
        2
 70
     0
 43
0.4799999999999646
 10
-147.5284559807329
 20
-80.78504028135599
 10
-147.5373240214018
 20
-80.6912262103039
  0
LWPOLYLINE
  5
1EC
330
1F
100
AcDbEntity
  8
PROFILEEDGES
100
AcDbPolyline
 90
        2
 70
     0
 43
0.4799999999999646
 10
-147.5726213316898
 20
-81.25226089139608
 10
-147.5520651972876
 20
-81.16029803252836
  0
LWPOLYLINE
  5
1ED
330
1F
100
AcDbEntity
  8
PROFILEEDGES
100
AcDbPolyline
 90
        2
 70
     0
 43
0.4799999999999646
 10
-149.7481265845533
 20
-82.19368608067666
 10
-149.6641650107476
 20
-82.2364666393108
  0
LWPOLYLINE
  5
1EE
330
1F
100
AcDbEntity
  8
PROFILEEDGES
100
AcDbPolyline
 90
        2
 70
     0
 43
0.4799999999999646
 10
-5.190061075522937
 20
51.25169981057715
 10
-5.193020982879812
 20
51.34588558987101
  0
LWPOLYLINE
  5
1EF
330
1F
100
AcDbEntity
  8
PROFILEEDGES
100
AcDbPolyline
 90
        2
 70
     0
 43
0.4799999999999646
 10
-5.332820496811393
 20
51.89036874792738
 10
-5.37560105544436
 20
51.97433032173311
  0
LWPOLYLINE
  5
1F0
330
1F
100
AcDbEntity
  8
PROFILEEDGES
100
AcDbPolyline
 90
        2
 70
     0
 43
0.4799999999999646
 10
-5.23718633382289
 20
51.62473464132598
 10
-5.263476301071977
 20
51.71522530214131
  0
LWPOLYLINE
  5
1F1
330
1F
100
AcDbEntity
  8
PROFILEEDGES
100
AcDbPolyline
 90
        2
 70
     0
 43
0.4799999999999646
 10
-5.201889023548754
 20
51.43969966092426
 10
-5.216630199425854
 20
51.53277178245713
  0
LWPOLYLINE
  5
1F2
330
1F
100
AcDbEntity
  8
PROFILEEDGES
100
AcDbPolyline
 90
        2
 70
     0
 43
0.4799999999999646
 10
-5.733925090879553
 20
52.40746967475138
 10
-5.808383197061953
 20
52.46522530215085
  0
LWPOLYLINE
  5
1F3
330
1F
100
AcDbEntity
  8
PROFILEEDGES
100
AcDbPolyline
 90
        2
 70
     0
 43
0.4799999999999646
 10
-5.263476301088558
 20
50.78817431901592
 10
-5.237186333836742
 20
50.87866497983094
  0
LWPOLYLINE
  5
1F4
330
1F
100
AcDbEntity
  8
PROFILEEDGES
100
AcDbPolyline
 90
        2
 70
     0
 43
0.4799999999999646
 10
-5.295396346680177
 20
51.80388663960685
 10
-5.332820496811393
 20
51.89036874792738
  0
LWPOLYLINE
  5
1F5
330
1F
100
AcDbEntity
  8
PROFILEEDGES
100
AcDbPolyline
 90
        2
 70
     0
 43
0.4799999999999646
 10
-5.534291211342095
 20
52.20783579520627
 10
-5.596608134371309
 20
52.2785204694781
  0
LWPOLYLINE
  5
1F6
330
1F
100
AcDbEntity
  8
PROFILEEDGES
100
AcDbPolyline
 90
        2
 70
     0
 43
0.4799999999999646
 10
-5.201889023554619
 20
51.06369996023067
 10
-5.193020982882767
 20
51.15751403128345
  0
LWPOLYLINE
  5
1F7
330
1F
100
AcDbEntity
  8
PROFILEEDGES
100
AcDbPolyline
 90
        2
 70
     0
 43
0.4799999999999646
 10
-5.37560105544436
 20
51.97433032173311
 10
-5.423569187256404
 20
52.05544000305057
  0
LWPOLYLINE
  5
1F8
330
1F
100
AcDbEntity
  8
PROFILEEDGES
100
AcDbPolyline
 90
        2
 70
     0
 43
0.4799999999999646
 10
-5.808383197061953
 20
52.46522530215085
 10
-5.886320883032529
 20
52.51819169884327
  0
LWPOLYLINE
  5
1F9
330
1F
100
AcDbEntity
  8
PROFILEEDGES
100
AcDbPolyline
 90
        2
 70
     0
 43
0.4799999999999646
 10
-5.216630199425854
 20
51.53277178245713
 10
-5.23718633382289
 20
51.62473464132598
  0
LWPOLYLINE
  5
1FA
330
1F
100
AcDbEntity
  8
PROFILEEDGES
100
AcDbPolyline
 90
        2
 70
     0
 43
0.4799999999999646
 10
-5.193020982879812
 20
51.34588558987101
 10
-5.201889023548754
 20
51.43969966092426
  0
LWPOLYLINE
  5
1FB
330
1F
100
AcDbEntity
  8
PROFILEEDGES
100
AcDbPolyline
 90
        2
 70
     0
 43
0.4799999999999646
 10
-5.596608134371309
 20
52.2785204694781
 10
-5.663240416611185
 20
52.34515275171822
  0
LWPOLYLINE
  5
1FC
330
1F
100
AcDbEntity
  8
PROFILEEDGES
100
AcDbPolyline
 90
        2
 70
     0
 43
0.4799999999999646
 10
-5.216630199434607
 20
50.97062783869983
 10
-5.201889023554619
 20
51.06369996023067
  0
LWPOLYLINE
  5
1FD
330
1F
100
AcDbEntity
  8
PROFILEEDGES
100
AcDbPolyline
 90
        2
 70
     0
 43
0.4799999999999646
 10
-7.153586567059421
 20
52.67828458505516
 10
-7.242247904526083
 20
52.64636453944581
  0
LWPOLYLINE
  5
1FE
330
1F
100
AcDbEntity
  8
PROFILEEDGES
100
AcDbPolyline
 90
        2
 70
     0
 43
0.4799999999999646
 10
-5.423569187256404
 20
52.05544000305057
 10
-5.476535583944456
 20
52.1333776890218
  0
LWPOLYLINE
  5
1FF
330
1F
100
AcDbEntity
  8
PROFILEEDGES
100
AcDbPolyline
 90
        2
 70
     0
 43
0.4799999999999646
 10
-7.242247904526083
 20
52.64636453944581
 10
-7.328730012846654
 20
52.60894038931457
  0
LWPOLYLINE
  5
200
330
1F
100
AcDbEntity
  8
PROFILEEDGES
100
AcDbPolyline
 90
        2
 70
     0
 43
0.4799999999999646
 10
-5.886320883032529
 20
52.51819169884327
 10
-5.967430564346182
 20
52.5661598306575
  0
LWPOLYLINE
  5
201
330
1F
100
AcDbEntity
  8
PROFILEEDGES
100
AcDbPolyline
 90
        2
 70
     0
 43
0.4799999999999646
 10
-7.063095906245255
 20
52.70457455230427
 10
-7.153586567059421
 20
52.67828458505516
  0
LWPOLYLINE
  5
202
330
1F
100
AcDbEntity
  8
PROFILEEDGES
100
AcDbPolyline
 90
        2
 70
     0
 43
0.4799999999999646
 10
-6.408989103619058
 20
52.72513068669255
 10
-6.502061225149947
 20
52.73987186257251
  0
LWPOLYLINE
  5
203
330
1F
100
AcDbEntity
  8
PROFILEEDGES
100
AcDbPolyline
 90
        2
 70
     0
 43
0.4799999999999646
 10
-5.263476301071977
 20
51.71522530214131
 10
-5.295396346680177
 20
51.80388663960685
  0
LWPOLYLINE
  5
204
330
1F
100
AcDbEntity
  8
PROFILEEDGES
100
AcDbPolyline
 90
        2
 70
     0
 43
0.4799999999999646
 10
-5.193020982882767
 20
51.15751403128345
 10
-5.190061075522937
 20
51.25169981057715
  0
LWPOLYLINE
  5
205
330
1F
100
AcDbEntity
  8
PROFILEEDGES
100
AcDbPolyline
 90
        2
 70
     0
 43
0.4799999999999646
 10
-5.967430564346182
 20
52.5661598306575
 10
-6.051392138151818
 20
52.60894038929167
  0
LWPOLYLINE
  5
206
330
1F
100
AcDbEntity
  8
PROFILEEDGES
100
AcDbPolyline
 90
        2
 70
     0
 43
0.4799999999999646
 10
-7.412691586652358
 20
52.5661598306828
 10
-7.493801267968673
 20
52.5181916988719
  0
LWPOLYLINE
  5
207
330
1F
100
AcDbEntity
  8
PROFILEEDGES
100
AcDbPolyline
 90
        2
 70
     0
 43
0.4799999999999646
 10
-5.29539634669942
 20
50.69951298155219
 10
-5.263476301088558
 20
50.78817431901592
  0
LWPOLYLINE
  5
208
330
1F
100
AcDbEntity
  8
PROFILEEDGES
100
AcDbPolyline
 90
        2
 70
     0
 43
0.4799999999999646
 10
-5.237186333836742
 20
50.87866497983094
 10
-5.216630199434607
 20
50.97062783869983
  0
LWPOLYLINE
  5
209
330
1F
100
AcDbEntity
  8
PROFILEEDGES
100
AcDbPolyline
 90
        2
 70
     0
 43
0.4799999999999646
 10
-6.690061075495231
 20
52.75169981060417
 10
-6.784246854789115
 20
52.74873990324845
  0
LWPOLYLINE
  5
20A
330
1F
100
AcDbEntity
  8
PROFILEEDGES
100
AcDbPolyline
 90
        2
 70
     0
 43
0.4799999999999646
 10
-6.784246854789115
 20
52.74873990324845
 10
-6.878060925843539
 20
52.73987186257953
  0
LWPOLYLINE
  5
20B
330
1F
100
AcDbEntity
  8
PROFILEEDGES
100
AcDbPolyline
 90
        2
 70
     0
 43
0.4799999999999646
 10
-5.476535583944456
 20
52.1333776890218
 10
-5.534291211342095
 20
52.20783579520627
  0
LWPOLYLINE
  5
20C
330
1F
100
AcDbEntity
  8
PROFILEEDGES
100
AcDbPolyline
 90
        2
 70
     0
 43
0.4799999999999646
 10
-7.328730012846654
 20
52.60894038931457
 10
-7.412691586652358
 20
52.5661598306828
  0
LWPOLYLINE
  5
20D
330
1F
100
AcDbEntity
  8
PROFILEEDGES
100
AcDbPolyline
 90
        2
 70
     0
 43
0.4799999999999646
 10
-6.971133047375218
 20
52.72513068670243
 10
-7.063095906245255
 20
52.70457455230427
  0
LWPOLYLINE
  5
20E
330
1F
100
AcDbEntity
  8
PROFILEEDGES
100
AcDbPolyline
 90
        2
 70
     0
 43
0.4799999999999646
 10
-7.716881734397371
 20
52.34515275175465
 10
-7.783514016636323
 20
52.2785204695171
  0
LWPOLYLINE
  5
20F
330
1F
100
AcDbEntity
  8
PROFILEEDGES
100
AcDbPolyline
 90
        2
 70
     0
 43
0.4799999999999646
 10
-6.595875296201551
 20
52.74873990324436
 10
-6.690061075495231
 20
52.75169981060417
  0
LWPOLYLINE
  5
210
330
1F
100
AcDbEntity
  8
PROFILEEDGES
100
AcDbPolyline
 90
        2
 70
     0
 43
0.4799999999999646
 10
-6.878060925843539
 20
52.73987186257953
 10
-6.971133047375218
 20
52.72513068670243
  0
LWPOLYLINE
  5
211
330
1F
100
AcDbEntity
  8
PROFILEEDGES
100
AcDbPolyline
 90
        2
 70
     0
 43
0.4799999999999646
 10
-7.493801268013859
 20
49.98520792236577
 10
-7.412691586697884
 20
49.93723979055152
  0
LWPOLYLINE
  5
212
330
1F
100
AcDbEntity
  8
PROFILEEDGES
100
AcDbPolyline
 90
        2
 70
     0
 43
0.4799999999999646
 10
-6.051392138151818
 20
52.60894038929167
 10
-6.137874246470268
 20
52.64636453942659
  0
LWPOLYLINE
  5
213
330
1F
100
AcDbEntity
  8
PROFILEEDGES
100
AcDbPolyline
 90
        2
 70
     0
 43
0.4799999999999646
 10
-6.137874246470268
 20
52.64636453942659
 10
-6.226535583935171
 20
52.67828458503855
  0
LWPOLYLINE
  5
214
330
1F
100
AcDbEntity
  8
PROFILEEDGES
100
AcDbPolyline
 90
        2
 70
     0
 43
0.4799999999999646
 10
-6.226535583935171
 20
52.67828458503855
 10
-6.317026244750216
 20
52.7045745522904
  0
LWPOLYLINE
  5
215
330
1F
100
AcDbEntity
  8
PROFILEEDGES
100
AcDbPolyline
 90
        2
 70
     0
 43
0.4799999999999646
 10
-7.956552963761379
 20
52.0554400030946
 10
-8.004521095575635
 20
51.9743303217798
  0
LWPOLYLINE
  5
216
330
1F
100
AcDbEntity
  8
PROFILEEDGES
100
AcDbPolyline
 90
        2
 70
     0
 43
0.4799999999999646
 10
-6.317026244750216
 20
52.7045745522904
 10
-6.408989103619058
 20
52.72513068669255
  0
LWPOLYLINE
  5
217
330
1F
100
AcDbEntity
  8
PROFILEEDGES
100
AcDbPolyline
 90
        2
 70
     0
 43
0.4799999999999646
 10
-7.845830939669462
 20
52.2078357952476
 10
-7.903586567068951
 20
52.13337768906403
  0
LWPOLYLINE
  5
218
330
1F
100
AcDbEntity
  8
PROFILEEDGES
100
AcDbPolyline
 90
        2
 70
     0
 43
0.4799999999999646
 10
-7.57173895393988
 20
52.46522530218265
 10
-7.646197060125529
 20
52.40746967478504
  0
LWPOLYLINE
  5
219
330
1F
100
AcDbEntity
  8
PROFILEEDGES
100
AcDbPolyline
 90
        2
 70
     0
 43
0.4799999999999646
 10
-7.493801267968673
 20
52.5181916988719
 10
-7.57173895393988
 20
52.46522530218265
  0
LWPOLYLINE
  5
21A
330
1F
100
AcDbEntity
  8
PROFILEEDGES
100
AcDbPolyline
 90
        2
 70
     0
 43
0.4799999999999646
 10
-6.502061225149947
 20
52.73987186257251
 10
-6.595875296201551
 20
52.74873990324436
  0
LWPOLYLINE
  5
21B
330
1F
100
AcDbEntity
  8
PROFILEEDGES
100
AcDbPolyline
 90
        2
 70
     0
 43
0.4799999999999646
 10
-8.047301654210925
 20
51.89036874797534
 10
-8.084725804344666
 20
51.80388663965572
  0
LWPOLYLINE
  5
21C
330
1F
100
AcDbEntity
  8
PROFILEEDGES
100
AcDbPolyline
 90
        2
 70
     0
 43
0.4799999999999646
 10
-7.903586567068951
 20
52.13337768906403
 10
-7.956552963761379
 20
52.0554400030946
  0
LWPOLYLINE
  5
21D
330
1F
100
AcDbEntity
  8
PROFILEEDGES
100
AcDbPolyline
 90
        2
 70
     0
 43
0.4799999999999646
 10
-7.783514016636323
 20
52.2785204695171
 10
-7.845830939669462
 20
52.2078357952476
  0
LWPOLYLINE
  5
21E
330
1F
100
AcDbEntity
  8
PROFILEEDGES
100
AcDbPolyline
 90
        2
 70
     0
 43
0.4799999999999646
 10
-7.646197060125529
 20
52.40746967478504
 10
-7.716881734397371
 20
52.34515275175465
  0
LWPOLYLINE
  5
21F
330
1F
100
AcDbEntity
  8
PROFILEEDGES
100
AcDbPolyline
 90
        2
 70
     0
 43
0.4799999999999646
 10
-8.004521095575635
 20
51.9743303217798
 10
-8.047301654210925
 20
51.89036874797534
  0
LWPOLYLINE
  5
220
330
1F
100
AcDbEntity
  8
PROFILEEDGES
100
AcDbPolyline
 90
        2
 70
     0
 43
0.4799999999999646
 10
137.6407701137388
 20
51.34545594770585
 10
137.6319425255553
 20
51.43884207616218
  0
LWPOLYLINE
  5
221
330
1F
100
AcDbEntity
  8
PROFILEEDGES
100
AcDbPolyline
 90
        2
 70
     0
 43
0.4799999999999646
 10
137.4112735788288
 20
50.45162595821115
 10
137.4590228990469
 20
50.53236564931888
  0
LWPOLYLINE
  5
222
330
1F
100
AcDbEntity
  8
PROFILEEDGES
100
AcDbPolyline
 90
        2
 70
     0
 43
0.4799999999999646
 10
137.6172685930795
 20
51.53148963957825
 10
137.5968062276158
 20
51.62303300034836
  0
LWPOLYLINE
  5
223
330
1F
100
AcDbEntity
  8
PROFILEEDGES
100
AcDbPolyline
 90
        2
 70
     0
 43
0.4799999999999646
 10
137.2390239668146
 20
52.27383651677367
 10
137.172695634629
 20
52.34016484896187
  0
LWPOLYLINE
  5
224
330
1F
100
AcDbEntity
  8
PROFILEEDGES
100
AcDbPolyline
 90
        2
 70
     0
 43
0.4799999999999646
 10
137.6319425255494
 20
51.06455753702303
 10
137.6407701137359
 20
51.15794366548003
  0
LWPOLYLINE
  5
225
330
1F
100
AcDbEntity
  8
PROFILEEDGES
100
AcDbPolyline
 90
        2
 70
     0
 43
0.4799999999999646
 10
136.7002268961138
 20
52.64000262792436
 10
136.611969996518
 20
52.67177706694378
  0
LWPOLYLINE
  5
226
330
1F
100
AcDbEntity
  8
PROFILEEDGES
100
AcDbPolyline
 90
        2
 70
     0
 43
0.4799999999999646
 10
137.5968062275997
 20
50.88036661283878
 10
137.6172685930685
 20
50.97190997360779
  0
LWPOLYLINE
  5
227
330
1F
100
AcDbEntity
  8
PROFILEEDGES
100
AcDbPolyline
 90
        2
 70
     0
 43
0.4799999999999646
 10
137.172695634629
 20
52.34016484896187
 10
137.1023333958173
 20
52.40219750690009
  0
LWPOLYLINE
  5
228
330
1F
100
AcDbEntity
  8
PROFILEEDGES
100
AcDbPolyline
 90
        2
 70
     0
 43
0.4799999999999646
 10
137.4590228990469
 20
50.53236564931888
 10
137.5016083097349
 20
50.61594422371325
  0
LWPOLYLINE
  5
229
330
1F
100
AcDbEntity
  8
PROFILEEDGES
100
AcDbPolyline
 90
        2
 70
     0
 43
0.4799999999999646
 10
137.5968062276158
 20
51.62303300034836
 10
137.5706361847745
 20
51.71311087864771
  0
LWPOLYLINE
  5
22A
330
1F
100
AcDbEntity
  8
PROFILEEDGES
100
AcDbPolyline
 90
        2
 70
     0
 43
0.4799999999999646
 10
137.5388617457565
 20
51.80136777824521
 10
137.5016083097611
 20
51.88745538947808
  0
LWPOLYLINE
  5
22B
330
1F
100
AcDbEntity
  8
PROFILEEDGES
100
AcDbPolyline
 90
        2
 70
     0
 43
0.4799999999999646
 10
137.5706361847745
 20
51.71311087864771
 10
137.5388617457565
 20
51.80136777824521
  0
LWPOLYLINE
  5
22C
330
1F
100
AcDbEntity
  8
PROFILEEDGES
100
AcDbPolyline
 90
        2
 70
     0
 43
0.4799999999999646
 10
137.358548793839
 20
50.3740437930639
 10
137.4112735788288
 20
50.45162595821115
  0
LWPOLYLINE
  5
22D
330
1F
100
AcDbEntity
  8
PROFILEEDGES
100
AcDbPolyline
 90
        2
 70
     0
 43
0.4799999999999646
 10
137.5388617457352
 20
50.70203183494403
 10
137.5706361847558
 20
50.79028873454095
  0
LWPOLYLINE
  5
22E
330
1F
100
AcDbEntity
  8
PROFILEEDGES
100
AcDbPolyline
 90
        2
 70
     0
 43
0.4799999999999646
 10
137.5016083097611
 20
51.88745538947808
 10
137.4590228990755
 20
51.97103396387369
  0
LWPOLYLINE
  5
22F
330
1F
100
AcDbEntity
  8
PROFILEEDGES
100
AcDbPolyline
 90
        2
 70
     0
 43
0.4799999999999646
 10
137.6172685930685
 20
50.97190997360779
 10
137.6319425255494
 20
51.06455753702303
  0
LWPOLYLINE
  5
230
330
1F
100
AcDbEntity
  8
PROFILEEDGES
100
AcDbPolyline
 90
        2
 70
     0
 43
0.4799999999999646
 10
137.5016083097349
 20
50.61594422371325
 10
137.5388617457352
 20
50.70203183494403
  0
LWPOLYLINE
  5
231
330
1F
100
AcDbEntity
  8
PROFILEEDGES
100
AcDbPolyline
 90
        2
 70
     0
 43
0.4799999999999646
 10
-7.412691586697884
 20
49.93723979055152
 10
-7.328730012894571
 20
49.89445923191621
  0
LWPOLYLINE
  5
232
330
1F
100
AcDbEntity
  8
PROFILEEDGES
100
AcDbPolyline
 90
        2
 70
     0
 43
0.4799999999999646
 10
136.1505589244638
 20
52.74485740136055
 10
136.0568027833519
 20
52.74191099592798
  0
LWPOLYLINE
  5
233
330
1F
100
AcDbEntity
  8
PROFILEEDGES
100
AcDbPolyline
 90
        2
 70
     0
 43
0.4799999999999646
 10
137.6437165191713
 20
51.25169980659285
 10
137.6407701137388
 20
51.34545594770585
  0
LWPOLYLINE
  5
234
330
1F
100
AcDbEntity
  8
PROFILEEDGES
100
AcDbPolyline
 90
        2
 70
     0
 43
0.4799999999999646
 10
137.6407701137359
 20
51.15794366548003
 10
137.6437165191713
 20
51.25169980659285
  0
LWPOLYLINE
  5
235
330
1F
100
AcDbEntity
  8
PROFILEEDGES
100
AcDbPolyline
 90
        2
 70
     0
 43
0.4799999999999646
 10
136.3377011940336
 20
52.73308340773749
 10
136.2443150655778
 20
52.74191099592505
  0
LWPOLYLINE
  5
236
330
1F
100
AcDbEntity
  8
PROFILEEDGES
100
AcDbPolyline
 90
        2
 70
     0
 43
0.4799999999999646
 10
137.5706361847558
 20
50.79028873454095
 10
137.5968062275997
 20
50.88036661283878
  0
LWPOLYLINE
  5
237
330
1F
100
AcDbEntity
  8
PROFILEEDGES
100
AcDbPolyline
 90
        2
 70
     0
 43
0.4799999999999646
 10
137.6319425255553
 20
51.43884207616218
 10
137.6172685930795
 20
51.53148963957825
  0
LWPOLYLINE
  5
238
330
1F
100
AcDbEntity
  8
PROFILEEDGES
100
AcDbPolyline
 90
        2
 70
     0
 43
0.4799999999999646
 10
135.3504850760726
 20
52.51241446105106
 10
135.2729029109247
 20
52.45968967606322
  0
LWPOLYLINE
  5
239
330
1F
100
AcDbEntity
  8
PROFILEEDGES
100
AcDbPolyline
 90
        2
 70
     0
 43
0.4799999999999646
 10
136.611969996518
 20
52.67177706694378
 10
136.521892118219
 20
52.69794710978894
  0
LWPOLYLINE
  5
23A
330
1F
100
AcDbEntity
  8
PROFILEEDGES
100
AcDbPolyline
 90
        2
 70
     0
 43
0.4799999999999646
 10
136.521892118219
 20
52.69794710978894
 10
136.4303487574489
 20
52.71840947525653
  0
LWPOLYLINE
  5
23B
330
1F
100
AcDbEntity
  8
PROFILEEDGES
100
AcDbPolyline
 90
        2
 70
     0
 43
0.4799999999999646
 10
136.7863145073434
 20
52.60274919192293
 10
136.7002268961138
 20
52.64000262792436
  0
LWPOLYLINE
  5
23C
330
1F
100
AcDbEntity
  8
PROFILEEDGES
100
AcDbPolyline
 90
        2
 70
     0
 43
0.4799999999999646
 10
134.9425690549934
 20
50.37404379311273
 10
135.0000612241174
 20
50.29992533528618
  0
LWPOLYLINE
  5
23D
330
1F
100
AcDbEntity
  8
PROFILEEDGES
100
AcDbPolyline
 90
        2
 70
     0
 43
0.4799999999999646
 10
136.2443150655778
 20
52.74191099592505
 10
136.1505589244638
 20
52.74485740136055
  0
LWPOLYLINE
  5
23E
330
1F
100
AcDbEntity
  8
PROFILEEDGES
100
AcDbPolyline
 90
        2
 70
     0
 43
0.4799999999999646
 10
134.6691753233122
 20
51.06455753708364
 10
134.6838492557903
 20
50.97190997366759
  0
LWPOLYLINE
  5
23F
330
1F
100
AcDbEntity
  8
PROFILEEDGES
100
AcDbPolyline
 90
        2
 70
     0
 43
0.4799999999999646
 10
137.358548793874
 20
52.12935582013311
 10
137.3010566247501
 20
52.20347427796082
  0
LWPOLYLINE
  5
240
330
1F
100
AcDbEntity
  8
PROFILEEDGES
100
AcDbPolyline
 90
        2
 70
     0
 43
0.4799999999999646
 10
136.869893081739
 20
52.56016378123497
 10
136.7863145073434
 20
52.60274919192293
  0
LWPOLYLINE
  5
241
330
1F
100
AcDbEntity
  8
PROFILEEDGES
100
AcDbPolyline
 90
        2
 70
     0
 43
0.4799999999999646
 10
136.4303487574489
 20
52.71840947525653
 10
136.3377011940336
 20
52.73308340773749
  0
LWPOLYLINE
  5
242
330
1F
100
AcDbEntity
  8
PROFILEEDGES
100
AcDbPolyline
 90
        2
 70
     0
 43
0.4799999999999646
 10
135.1987844530958
 20
52.40219750693815
 10
135.1284222142829
 20
52.34016484900268
  0
LWPOLYLINE
  5
243
330
1F
100
AcDbEntity
  8
PROFILEEDGES
100
AcDbPolyline
 90
        2
 70
     0
 43
0.4799999999999646
 10
135.7792257307083
 20
52.69794710980502
 10
135.6891478524101
 20
52.67177706696258
  0
LWPOLYLINE
  5
244
330
1F
100
AcDbEntity
  8
PROFILEEDGES
100
AcDbPolyline
 90
        2
 70
     0
 43
0.4799999999999646
 10
135.5148033415786
 20
52.60274919194913
 10
135.431224767183
 20
52.56016378126353
  0
LWPOLYLINE
  5
245
330
1F
100
AcDbEntity
  8
PROFILEEDGES
100
AcDbPolyline
 90
        2
 70
     0
 43
0.4799999999999646
 10
135.0620938820959
 20
52.27383651681818
 10
135.0000612241565
 20
52.2034742780076
  0
LWPOLYLINE
  5
246
330
1F
100
AcDbEntity
  8
PROFILEEDGES
100
AcDbPolyline
 90
        2
 70
     0
 43
0.4799999999999646
 10
135.0000612241565
 20
52.2034742780076
 10
134.9425690550308
 20
52.12935582018309
  0
LWPOLYLINE
  5
247
330
1F
100
AcDbEntity
  8
PROFILEEDGES
100
AcDbPolyline
 90
        2
 70
     0
 43
0.4799999999999646
 10
137.4590228990755
 20
51.97103396387369
 10
137.4112735788619
 20
52.05177365498407
  0
LWPOLYLINE
  5
248
330
1F
100
AcDbEntity
  8
PROFILEEDGES
100
AcDbPolyline
 90
        2
 70
     0
 43
0.4799999999999646
 10
137.4112735788619
 20
52.05177365498407
 10
137.358548793874
 20
52.12935582013311
  0
LWPOLYLINE
  5
249
330
1F
100
AcDbEntity
  8
PROFILEEDGES
100
AcDbPolyline
 90
        2
 70
     0
 43
0.4799999999999646
 10
137.1023333958173
 20
52.40219750690009
 10
137.0282149379939
 20
52.45968967602816
  0
LWPOLYLINE
  5
24A
330
1F
100
AcDbEntity
  8
PROFILEEDGES
100
AcDbPolyline
 90
        2
 70
     0
 43
0.4799999999999646
 10
134.9425690550308
 20
52.12935582018309
 10
134.8898442700386
 20
52.0517736550347
  0
LWPOLYLINE
  5
24B
330
1F
100
AcDbEntity
  8
PROFILEEDGES
100
AcDbPolyline
 90
        2
 70
     0
 43
0.4799999999999646
 10
135.6008909528126
 20
52.64000262794575
 10
135.5148033415786
 20
52.60274919194913
  0
LWPOLYLINE
  5
24C
330
1F
100
AcDbEntity
  8
PROFILEEDGES
100
AcDbPolyline
 90
        2
 70
     0
 43
0.4799999999999646
 10
136.0568027833519
 20
52.74191099592798
 10
135.9634166548956
 20
52.73308340774444
  0
LWPOLYLINE
  5
24D
330
1F
100
AcDbEntity
  8
PROFILEEDGES
100
AcDbPolyline
 90
        2
 70
     0
 43
0.4799999999999646
 10
135.8707690914796
 20
52.71840947526753
 10
135.7792257307083
 20
52.69794710980502
  0
LWPOLYLINE
  5
24E
330
1F
100
AcDbEntity
  8
PROFILEEDGES
100
AcDbPolyline
 90
        2
 70
     0
 43
0.4799999999999646
 10
135.9634166548956
 20
52.73308340774444
 10
135.8707690914796
 20
52.71840947526753
  0
LWPOLYLINE
  5
24F
330
1F
100
AcDbEntity
  8
PROFILEEDGES
100
AcDbPolyline
 90
        2
 70
     0
 43
0.4799999999999646
 10
137.3010566247501
 20
52.20347427796082
 10
137.2390239668146
 20
52.27383651677367
  0
LWPOLYLINE
  5
250
330
1F
100
AcDbEntity
  8
PROFILEEDGES
100
AcDbPolyline
 90
        2
 70
     0
 43
0.4799999999999646
 10
135.1284222142829
 20
52.34016484900268
 10
135.0620938820959
 20
52.27383651681818
  0
LWPOLYLINE
  5
251
330
1F
100
AcDbEntity
  8
PROFILEEDGES
100
AcDbPolyline
 90
        2
 70
     0
 43
0.4799999999999646
 10
137.0282149379939
 20
52.45968967602816
 10
136.9506327728467
 20
52.51241446101918
  0
LWPOLYLINE
  5
252
330
1F
100
AcDbEntity
  8
PROFILEEDGES
100
AcDbPolyline
 90
        2
 70
     0
 43
0.4799999999999646
 10
134.8898442700386
 20
52.0517736550347
 10
134.8420949498228
 20
51.97103396392699
  0
LWPOLYLINE
  5
253
330
1F
100
AcDbEntity
  8
PROFILEEDGES
100
AcDbPolyline
 90
        2
 70
     0
 43
0.4799999999999646
 10
135.2729029109247
 20
52.45968967606322
 10
135.1987844530958
 20
52.40219750693815
  0
LWPOLYLINE
  5
254
330
1F
100
AcDbEntity
  8
PROFILEEDGES
100
AcDbPolyline
 90
        2
 70
     0
 43
0.4799999999999646
 10
135.6891478524101
 20
52.67177706696258
 10
135.6008909528126
 20
52.64000262794575
  0
LWPOLYLINE
  5
255
330
1F
100
AcDbEntity
  8
PROFILEEDGES
100
AcDbPolyline
 90
        2
 70
     0
 43
0.4799999999999646
 10
136.9506327728467
 20
52.51241446101918
 10
136.869893081739
 20
52.56016378123497
  0
LWPOLYLINE
  5
256
330
1F
100
AcDbEntity
  8
PROFILEEDGES
100
AcDbPolyline
 90
        2
 70
     0
 43
0.4799999999999646
 10
135.431224767183
 20
52.56016378126353
 10
135.3504850760726
 20
52.51241446105106
  0
LWPOLYLINE
  5
257
330
1F
100
AcDbEntity
  8
PROFILEEDGES
100
AcDbPolyline
 90
        2
 70
     0
 43
0.4799999999999646
 10
134.730481664114
 20
51.71311087870605
 10
134.7043116212677
 20
51.62303300040706
  0
LWPOLYLINE
  5
258
330
1F
100
AcDbEntity
  8
PROFILEEDGES
100
AcDbPolyline
 90
        2
 70
     0
 43
0.4799999999999646
 10
134.8898442700056
 20
50.45162595826179
 10
134.9425690549934
 20
50.37404379311273
  0
LWPOLYLINE
  5
259
330
1F
100
AcDbEntity
  8
PROFILEEDGES
100
AcDbPolyline
 90
        2
 70
     0
 43
0.4799999999999646
 10
134.6691753233203
 20
51.43884207622282
 10
134.6603477351339
 20
51.34545594776581
  0
LWPOLYLINE
  5
25A
330
1F
100
AcDbEntity
  8
PROFILEEDGES
100
AcDbPolyline
 90
        2
 70
     0
 43
0.4799999999999646
 10
134.7622561031323
 20
51.80136777830182
 10
134.730481664114
 20
51.71311087870605
  0
LWPOLYLINE
  5
25B
330
1F
100
AcDbEntity
  8
PROFILEEDGES
100
AcDbPolyline
 90
        2
 70
     0
 43
0.4799999999999646
 10
135.9634166548338
 20
49.77031620550834
 10
136.056802783292
 20
49.76148861732193
  0
LWPOLYLINE
  5
25C
330
1F
100
AcDbEntity
  8
PROFILEEDGES
100
AcDbPolyline
 90
        2
 70
     0
 43
0.4799999999999646
 10
134.8420949497919
 20
50.53236564937217
 10
134.8898442700056
 20
50.45162595826179
  0
LWPOLYLINE
  5
25D
330
1F
100
AcDbEntity
  8
PROFILEEDGES
100
AcDbPolyline
 90
        2
 70
     0
 43
0.4799999999999646
 10
134.6603477351287
 20
51.15794366554115
 10
134.6691753233122
 20
51.06455753708364
  0
LWPOLYLINE
  5
25E
330
1F
100
AcDbEntity
  8
PROFILEEDGES
100
AcDbPolyline
 90
        2
 70
     0
 43
0.4799999999999646
 10
134.7304816640952
 20
50.79028873459814
 10
134.7622561031109
 20
50.70203183500061
  0
LWPOLYLINE
  5
25F
330
1F
100
AcDbEntity
  8
PROFILEEDGES
100
AcDbPolyline
 90
        2
 70
     0
 43
0.4799999999999646
 10
136.3377011939741
 20
49.77031620550139
 10
136.4303487573902
 20
49.78499013797831
  0
LWPOLYLINE
  5
260
330
1F
100
AcDbEntity
  8
PROFILEEDGES
100
AcDbPolyline
 90
        2
 70
     0
 43
0.4799999999999646
 10
135.1987844530502
 20
50.10120210634574
 10
135.2729029108735
 20
50.04370993721881
  0
LWPOLYLINE
  5
261
330
1F
100
AcDbEntity
  8
PROFILEEDGES
100
AcDbPolyline
 90
        2
 70
     0
 43
0.4799999999999646
 10
136.7002268960572
 20
49.86339698530008
 10
136.7863145072889
 20
49.90065042129672
  0
LWPOLYLINE
  5
262
330
1F
100
AcDbEntity
  8
PROFILEEDGES
100
AcDbPolyline
 90
        2
 70
     0
 43
0.4799999999999646
 10
135.8707690914186
 20
49.7849901379893
 10
135.9634166548338
 20
49.77031620550834
  0
LWPOLYLINE
  5
263
330
1F
100
AcDbEntity
  8
PROFILEEDGES
100
AcDbPolyline
 90
        2
 70
     0
 43
0.4799999999999646
 10
134.6574013296961
 20
51.25169980665299
 10
134.6603477351287
 20
51.15794366554115
  0
LWPOLYLINE
  5
264
330
1F
100
AcDbEntity
  8
PROFILEEDGES
100
AcDbPolyline
 90
        2
 70
     0
 43
0.4799999999999646
 10
135.600890952756
 20
49.86339698532264
 10
135.6891478523517
 20
49.83162254630204
  0
LWPOLYLINE
  5
265
330
1F
100
AcDbEntity
  8
PROFILEEDGES
100
AcDbPolyline
 90
        2
 70
     0
 43
0.4799999999999646
 10
136.8698930816845
 20
49.9432358319823
 10
136.9506327727948
 20
49.99098515219477
  0
LWPOLYLINE
  5
266
330
1F
100
AcDbEntity
  8
PROFILEEDGES
100
AcDbPolyline
 90
        2
 70
     0
 43
0.4799999999999646
 10
135.6891478523517
 20
49.83162254630204
 10
135.7792257306508
 20
49.80545250345691
  0
LWPOLYLINE
  5
267
330
1F
100
AcDbEntity
  8
PROFILEEDGES
100
AcDbPolyline
 90
        2
 70
     0
 43
0.4799999999999646
 10
134.7622561031109
 20
50.70203183500061
 10
134.7995095391087
 20
50.61594422376776
  0
LWPOLYLINE
  5
268
330
1F
100
AcDbEntity
  8
PROFILEEDGES
100
AcDbPolyline
 90
        2
 70
     0
 43
0.4799999999999646
 10
134.7043116212539
 20
50.88036661289746
 10
134.7304816640952
 20
50.79028873459814
  0
LWPOLYLINE
  5
269
330
1F
100
AcDbEntity
  8
PROFILEEDGES
100
AcDbPolyline
 90
        2
 70
     0
 43
0.4799999999999646
 10
134.8420949498228
 20
51.97103396392699
 10
134.7995095391349
 20
51.8874553895326
  0
LWPOLYLINE
  5
26A
330
1F
100
AcDbEntity
  8
PROFILEEDGES
100
AcDbPolyline
 90
        2
 70
     0
 43
0.4799999999999646
 10
134.6603477351339
 20
51.34545594776581
 10
134.6574013296961
 20
51.25169980665299
  0
LWPOLYLINE
  5
26B
330
1F
100
AcDbEntity
  8
PROFILEEDGES
100
AcDbPolyline
 90
        2
 70
     0
 43
0.4799999999999646
 10
134.6838492558012
 20
51.53148963963806
 10
134.6691753233203
 20
51.43884207622282
  0
LWPOLYLINE
  5
26C
330
1F
100
AcDbEntity
  8
PROFILEEDGES
100
AcDbPolyline
 90
        2
 70
     0
 43
0.4799999999999646
 10
134.6838492557903
 20
50.97190997366759
 10
134.7043116212539
 20
50.88036661289746
  0
LWPOLYLINE
  5
26D
330
1F
100
AcDbEntity
  8
PROFILEEDGES
100
AcDbPolyline
 90
        2
 70
     0
 43
0.4799999999999646
 10
136.6119699964597
 20
49.83162254628325
 10
136.7002268960572
 20
49.86339698530008
  0
LWPOLYLINE
  5
26E
330
1F
100
AcDbEntity
  8
PROFILEEDGES
100
AcDbPolyline
 90
        2
 70
     0
 43
0.4799999999999646
 10
136.5218921181592
 20
49.80545250344198
 10
136.6119699964597
 20
49.83162254628325
  0
LWPOLYLINE
  5
26F
330
1F
100
AcDbEntity
  8
PROFILEEDGES
100
AcDbPolyline
 90
        2
 70
     0
 43
0.4799999999999646
 10
135.0000612241174
 20
50.29992533528618
 10
135.0620938820528
 20
50.22956309647218
  0
LWPOLYLINE
  5
270
330
1F
100
AcDbEntity
  8
PROFILEEDGES
100
AcDbPolyline
 90
        2
 70
     0
 43
0.4799999999999646
 10
135.0620938820528
 20
50.22956309647218
 10
135.1284222142385
 20
50.16323476428396
  0
LWPOLYLINE
  5
271
330
1F
100
AcDbEntity
  8
PROFILEEDGES
100
AcDbPolyline
 90
        2
 70
     0
 43
0.4799999999999646
 10
136.1505589244036
 20
49.75854221188643
 10
136.2443150655155
 20
49.76148861731785
  0
LWPOLYLINE
  5
272
330
1F
100
AcDbEntity
  8
PROFILEEDGES
100
AcDbPolyline
 90
        2
 70
     0
 43
0.4799999999999646
 10
136.4303487573902
 20
49.78499013797831
 10
136.5218921181592
 20
49.80545250344198
  0
LWPOLYLINE
  5
273
330
1F
100
AcDbEntity
  8
PROFILEEDGES
100
AcDbPolyline
 90
        2
 70
     0
 43
0.4799999999999646
 10
134.7995095391087
 20
50.61594422376776
 10
134.8420949497919
 20
50.53236564937217
  0
LWPOLYLINE
  5
274
330
1F
100
AcDbEntity
  8
PROFILEEDGES
100
AcDbPolyline
 90
        2
 70
     0
 43
0.4799999999999646
 10
134.7043116212677
 20
51.62303300040706
 10
134.6838492558012
 20
51.53148963963806
  0
LWPOLYLINE
  5
275
330
1F
100
AcDbEntity
  8
PROFILEEDGES
100
AcDbPolyline
 90
        2
 70
     0
 43
0.4799999999999646
 10
134.7995095391349
 20
51.8874553895326
 10
134.7622561031323
 20
51.80136777830182
  0
LWPOLYLINE
  5
276
330
1F
100
AcDbEntity
  8
PROFILEEDGES
100
AcDbPolyline
 90
        2
 70
     0
 43
0.4799999999999646
 10
135.3504850760208
 20
49.99098515222779
 10
135.4312247671308
 20
49.94323583201086
  0
LWPOLYLINE
  5
277
330
1F
100
AcDbEntity
  8
PROFILEEDGES
100
AcDbPolyline
 90
        2
 70
     0
 43
0.4799999999999646
 10
136.2443150655155
 20
49.76148861731785
 10
136.3377011939741
 20
49.77031620550139
  0
LWPOLYLINE
  5
278
330
1F
100
AcDbEntity
  8
PROFILEEDGES
100
AcDbPolyline
 90
        2
 70
     0
 43
0.4799999999999646
 10
137.3010566247109
 20
50.29992533523824
 10
137.358548793839
 20
50.3740437930639
  0
LWPOLYLINE
  5
279
330
1F
100
AcDbEntity
  8
PROFILEEDGES
100
AcDbPolyline
 90
        2
 70
     0
 43
0.4799999999999646
 10
137.0282149379451
 20
50.04370993718261
 10
137.1023333957716
 20
50.1012021063077
  0
LWPOLYLINE
  5
27A
330
1F
100
AcDbEntity
  8
PROFILEEDGES
100
AcDbPolyline
 90
        2
 70
     0
 43
0.4799999999999646
 10
137.1023333957716
 20
50.1012021063077
 10
137.1726956345845
 20
50.16323476424315
  0
LWPOLYLINE
  5
27B
330
1F
100
AcDbEntity
  8
PROFILEEDGES
100
AcDbPolyline
 90
        2
 70
     0
 43
0.4799999999999646
 10
134.6944229390375
 20
-82.03499593270453
 10
134.7688810452222
 20
-82.09275156010402
  0
LWPOLYLINE
  5
27C
330
1F
100
AcDbEntity
  8
PROFILEEDGES
100
AcDbPolyline
 90
        2
 70
     0
 43
0.4799999999999646
 10
136.7863145072889
 20
49.90065042129672
 10
136.8698930816845
 20
49.9432358319823
  0
LWPOLYLINE
  5
27D
330
1F
100
AcDbEntity
  8
PROFILEEDGES
100
AcDbPolyline
 90
        2
 70
     0
 43
0.4799999999999646
 10
137.1726956345845
 20
50.16323476424315
 10
137.2390239667739
 20
50.22956309642765
  0
LWPOLYLINE
  5
27E
330
1F
100
AcDbEntity
  8
PROFILEEDGES
100
AcDbPolyline
 90
        2
 70
     0
 43
0.4799999999999646
 10
135.2729029108735
 20
50.04370993721881
 10
135.3504850760208
 20
49.99098515222779
  0
LWPOLYLINE
  5
27F
330
1F
100
AcDbEntity
  8
PROFILEEDGES
100
AcDbPolyline
 90
        2
 70
     0
 43
0.4799999999999646
 10
135.7792257306508
 20
49.80545250345691
 10
135.8707690914186
 20
49.7849901379893
  0
LWPOLYLINE
  5
280
330
1F
100
AcDbEntity
  8
PROFILEEDGES
100
AcDbPolyline
 90
        2
 70
     0
 43
0.4799999999999646
 10
135.1284222142385
 20
50.16323476428396
 10
135.1987844530502
 20
50.10120210634574
  0
LWPOLYLINE
  5
281
330
1F
100
AcDbEntity
  8
PROFILEEDGES
100
AcDbPolyline
 90
        2
 70
     0
 43
0.4799999999999646
 10
135.4312247671308
 20
49.94323583201086
 10
135.514803341524
 20
49.90065042132294
  0
LWPOLYLINE
  5
282
330
1F
100
AcDbEntity
  8
PROFILEEDGES
100
AcDbPolyline
 90
        2
 70
     0
 43
0.4799999999999646
 10
137.2390239667739
 20
50.22956309642765
 10
137.3010566247109
 20
50.29992533523824
  0
LWPOLYLINE
  5
283
330
1F
100
AcDbEntity
  8
PROFILEEDGES
100
AcDbPolyline
 90
        2
 70
     0
 43
0.4799999999999646
 10
135.514803341524
 20
49.90065042132294
 10
135.600890952756
 20
49.86339698532264
  0
LWPOLYLINE
  5
284
330
1F
100
AcDbEntity
  8
PROFILEEDGES
100
AcDbPolyline
 90
        2
 70
     0
 43
0.4799999999999646
 10
136.9506327727948
 20
49.99098515219477
 10
137.0282149379451
 20
50.04370993718261
  0
LWPOLYLINE
  5
285
330
1F
100
AcDbEntity
  8
PROFILEEDGES
100
AcDbPolyline
 90
        2
 70
     0
 43
0.4799999999999646
 10
136.056802783292
 20
49.76148861732193
 10
136.1505589244036
 20
49.75854221188643
  0
LWPOLYLINE
  5
286
330
1F
100
AcDbEntity
  8
PROFILEEDGES
100
AcDbPolyline
 90
        2
 70
     0
 43
0.4799999999999646
 10
-5.663240416611185
 20
52.34515275171822
 10
-5.733925090879553
 20
52.40746967475138
  0
LWPOLYLINE
  5
287
330
1F
100
AcDbEntity
  8
PROFILEEDGES
100
AcDbPolyline
 90
        2
 70
     0
 43
0.4799999999999646
 10
-150.7390215671342
 20
52.1333776930449
 10
-150.7919879638266
 20
52.0554400070755
  0
LWPOLYLINE
  5
288
330
1F
100
AcDbEntity
  8
PROFILEEDGES
100
AcDbPolyline
 90
        2
 70
     0
 43
0.4799999999999646
 10
-150.6189490167015
 20
52.27852047349682
 10
-150.6812659397347
 20
52.20783579922847
  0
LWPOLYLINE
  5
289
330
1F
100
AcDbEntity
  8
PROFILEEDGES
100
AcDbPolyline
 90
        2
 70
     0
 43
0.4799999999999646
 10
-150.5523167344626
 20
52.34515275573554
 10
-150.6189490167015
 20
52.27852047349682
  0
LWPOLYLINE
  5
28A
330
1F
100
AcDbEntity
  8
PROFILEEDGES
100
AcDbPolyline
 90
        2
 70
     0
 43
0.4799999999999646
 10
-150.7919879638266
 20
52.0554400070755
 10
-150.8399560956408
 20
51.97433032576067
  0
LWPOLYLINE
  5
28B
330
1F
100
AcDbEntity
  8
PROFILEEDGES
100
AcDbPolyline
 90
        2
 70
     0
 43
0.4799999999999646
 10
-150.6812659397347
 20
52.20783579922847
 10
-150.7390215671342
 20
52.1333776930449
  0
LWPOLYLINE
  5
28C
330
1F
100
AcDbEntity
  8
PROFILEEDGES
100
AcDbPolyline
 90
        2
 70
     0
 43
0.4799999999999646
 10
-150.4816320601907
 20
52.40746967876591
 10
-150.5523167344626
 20
52.34515275573554
  0
LWPOLYLINE
  5
28D
330
1F
100
AcDbEntity
  8
PROFILEEDGES
100
AcDbPolyline
 90
        2
 70
     0
 43
0.4799999999999646
 10
-150.4071739540051
 20
52.46522530616352
 10
-150.4816320601907
 20
52.40746967876591
  0
LWPOLYLINE
  5
28E
330
1F
100
AcDbEntity
  8
PROFILEEDGES
100
AcDbPolyline
 90
        2
 70
     0
 43
0.4799999999999646
 10
-148.4320431344753
 20
50.2248791556728
 10
-148.3697262114422
 20
50.29556382994114
  0
LWPOLYLINE
  5
28F
330
1F
100
AcDbEntity
  8
PROFILEEDGES
100
AcDbPolyline
 90
        2
 70
     0
 43
0.4799999999999646
 10
-148.0284559829479
 20
51.15751403526433
 10
-148.0254960755882
 20
51.25169981455802
  0
LWPOLYLINE
  5
290
330
1F
100
AcDbEntity
  8
PROFILEEDGES
100
AcDbPolyline
 90
        2
 70
     0
 43
0.4799999999999646
 10
-148.3119705840427
 20
50.37002193612474
 10
-148.2590041873503
 20
50.44795962209417
  0
LWPOLYLINE
  5
291
330
1F
100
AcDbEntity
  8
PROFILEEDGES
100
AcDbPolyline
 90
        2
 70
     0
 43
0.4799999999999646
 10
-148.1308313467646
 20
50.69951298553305
 10
-148.0989113011538
 20
50.78817432299681
  0
LWPOLYLINE
  5
292
330
1F
100
AcDbEntity
  8
PROFILEEDGES
100
AcDbPolyline
 90
        2
 70
     0
 43
0.4799999999999646
 10
-148.0373240236198
 20
51.06369996421156
 10
-148.0284559829479
 20
51.15751403526433
  0
LWPOLYLINE
  5
293
330
1F
100
AcDbEntity
  8
PROFILEEDGES
100
AcDbPolyline
 90
        2
 70
     0
 43
0.4799999999999646
 10
-148.0520651994998
 20
50.97062784268069
 10
-148.0373240236198
 20
51.06369996421156
  0
LWPOLYLINE
  5
294
330
1F
100
AcDbEntity
  8
PROFILEEDGES
100
AcDbPolyline
 90
        2
 70
     0
 43
0.4799999999999646
 10
-148.072621333902
 20
50.87866498381181
 10
-148.0520651994998
 20
50.97062784268069
  0
LWPOLYLINE
  5
295
330
1F
100
AcDbEntity
  8
PROFILEEDGES
100
AcDbPolyline
 90
        2
 70
     0
 43
0.4799999999999646
 10
-148.0989113011538
 20
50.78817432299681
 10
-148.072621333902
 20
50.87866498381181
  0
LWPOLYLINE
  5
296
330
1F
100
AcDbEntity
  8
PROFILEEDGES
100
AcDbPolyline
 90
        2
 70
     0
 43
0.4799999999999646
 10
-148.1682554969007
 20
50.61303087721343
 10
-148.1308313467646
 20
50.69951298553305
  0
LWPOLYLINE
  5
297
330
1F
100
AcDbEntity
  8
PROFILEEDGES
100
AcDbPolyline
 90
        2
 70
     0
 43
0.4799999999999646
 10
-148.211036055536
 20
50.52906930340895
 10
-148.1682554969007
 20
50.61303087721343
  0
LWPOLYLINE
  5
298
330
1F
100
AcDbEntity
  8
PROFILEEDGES
100
AcDbPolyline
 90
        2
 70
     0
 43
0.4799999999999646
 10
-148.2590041873503
 20
50.44795962209417
 10
-148.211036055536
 20
50.52906930340895
  0
LWPOLYLINE
  5
299
330
1F
100
AcDbEntity
  8
PROFILEEDGES
100
AcDbPolyline
 90
        2
 70
     0
 43
0.4799999999999646
 10
-148.3697262114422
 20
50.29556382994114
 10
-148.3119705840427
 20
50.37002193612474
  0
LWPOLYLINE
  5
29A
330
1F
100
AcDbEntity
  8
PROFILEEDGES
100
AcDbPolyline
 90
        2
 70
     0
 43
0.4799999999999646
 10
-148.4986754167143
 20
50.15824687343525
 10
-148.4320431344753
 20
50.2248791556728
  0
LWPOLYLINE
  5
29B
330
1F
100
AcDbEntity
  8
PROFILEEDGES
100
AcDbPolyline
 90
        2
 70
     0
 43
0.4799999999999646
 10
-148.5693600909861
 20
50.09592995040488
 10
-148.4986754167143
 20
50.15824687343525
  0
LWPOLYLINE
  5
29C
330
1F
100
AcDbEntity
  8
PROFILEEDGES
100
AcDbPolyline
 90
        2
 70
     0
 43
0.4799999999999646
 10
-148.6438181971717
 20
50.03817432300724
 10
-148.5693600909861
 20
50.09592995040488
  0
LWPOLYLINE
  5
29D
330
1F
100
AcDbEntity
  8
PROFILEEDGES
100
AcDbPolyline
 90
        2
 70
     0
 43
0.4799999999999646
 10
-148.7217558831429
 20
49.98520792631802
 10
-148.6438181971717
 20
50.03817432300724
  0
LWPOLYLINE
  5
29E
330
1F
100
AcDbEntity
  8
PROFILEEDGES
100
AcDbPolyline
 90
        2
 70
     0
 43
0.4799999999999646
 10
-148.8028655644592
 20
49.93723979450597
 10
-148.7217558831429
 20
49.98520792631802
  0
LWPOLYLINE
  5
29F
330
1F
100
AcDbEntity
  8
PROFILEEDGES
100
AcDbPolyline
 90
        2
 70
     0
 43
0.4799999999999646
 10
-148.886827138265
 20
49.89445923587418
 10
-148.8028655644592
 20
49.93723979450597
  0
LWPOLYLINE
  5
2A0
330
1F
100
AcDbEntity
  8
PROFILEEDGES
100
AcDbPolyline
 90
        2
 70
     0
 43
0.4799999999999646
 10
-148.9733092465855
 20
49.85703508574296
 10
-148.886827138265
 20
49.89445923587418
  0
LWPOLYLINE
  5
2A1
330
1F
100
AcDbEntity
  8
PROFILEEDGES
100
AcDbPolyline
 90
        2
 70
     0
 43
0.4799999999999646
 10
-149.0619705840522
 20
49.82511504013361
 10
-148.9733092465855
 20
49.85703508574296
  0
LWPOLYLINE
  5
2A2
330
1F
100
AcDbEntity
  8
PROFILEEDGES
100
AcDbPolyline
 90
        2
 70
     0
 43
0.4799999999999646
 10
-149.1524612448664
 20
49.79882507288566
 10
-149.0619705840522
 20
49.82511504013361
  0
LWPOLYLINE
  5
2A3
330
1F
100
AcDbEntity
  8
PROFILEEDGES
100
AcDbPolyline
 90
        2
 70
     0
 43
0.4799999999999646
 10
-149.2444241037364
 20
49.77826893848749
 10
-149.1524612448664
 20
49.79882507288566
  0
LWPOLYLINE
  5
2A4
330
1F
100
AcDbEntity
  8
PROFILEEDGES
100
AcDbPolyline
 90
        2
 70
     0
 43
0.4799999999999646
 10
-149.3374962252681
 20
49.76352776261039
 10
-149.2444241037364
 20
49.77826893848749
  0
LWPOLYLINE
  5
2A5
330
1F
100
AcDbEntity
  8
PROFILEEDGES
100
AcDbPolyline
 90
        2
 70
     0
 43
0.4799999999999646
 10
-149.4313102963202
 20
49.75465972194144
 10
-149.3374962252681
 20
49.76352776261039
  0
LWPOLYLINE
  5
2A6
330
1F
100
AcDbEntity
  8
PROFILEEDGES
100
AcDbPolyline
 90
        2
 70
     0
 43
0.4799999999999646
 10
-149.5254960756141
 20
49.75169981458458
 10
-149.4313102963202
 20
49.75465972194144
  0
LWPOLYLINE
  5
2A7
330
1F
100
AcDbEntity
  8
PROFILEEDGES
100
AcDbPolyline
 90
        2
 70
     0
 43
0.4799999999999646
 10
-149.6196818549078
 20
49.7546597219444
 10
-149.5254960756141
 20
49.75169981458458
  0
LWPOLYLINE
  5
2A8
330
1F
100
AcDbEntity
  8
PROFILEEDGES
100
AcDbPolyline
 90
        2
 70
     0
 43
0.4799999999999646
 10
-149.7134959259617
 20
49.76352776261623
 10
-149.6196818549078
 20
49.7546597219444
  0
LWPOLYLINE
  5
2A9
330
1F
100
AcDbEntity
  8
PROFILEEDGES
100
AcDbPolyline
 90
        2
 70
     0
 43
0.4799999999999646
 10
-149.8065680474925
 20
49.77826893849737
 10
-149.7134959259617
 20
49.76352776261623
  0
LWPOLYLINE
  5
2AA
330
1F
100
AcDbEntity
  8
PROFILEEDGES
100
AcDbPolyline
 90
        2
 70
     0
 43
0.4799999999999646
 10
-149.8985309063614
 20
49.79882507289835
 10
-149.8065680474925
 20
49.77826893849737
  0
LWPOLYLINE
  5
2AB
330
1F
100
AcDbEntity
  8
PROFILEEDGES
100
AcDbPolyline
 90
        2
 70
     0
 43
0.4799999999999646
 10
-149.9890215671764
 20
49.82511504015019
 10
-149.8985309063614
 20
49.79882507289835
  0
LWPOLYLINE
  5
2AC
330
1F
100
AcDbEntity
  8
PROFILEEDGES
100
AcDbPolyline
 90
        2
 70
     0
 43
0.4799999999999646
 10
-150.077682904639
 20
49.85703508576218
 10
-149.9890215671764
 20
49.82511504015019
  0
LWPOLYLINE
  5
2AD
330
1F
100
AcDbEntity
  8
PROFILEEDGES
100
AcDbPolyline
 90
        2
 70
     0
 43
0.4799999999999646
 10
-150.1641650129598
 20
49.89445923589707
 10
-150.077682904639
 20
49.85703508576218
  0
LWPOLYLINE
  5
2AE
330
1F
100
AcDbEntity
  8
PROFILEEDGES
100
AcDbPolyline
 90
        2
 70
     0
 43
0.4799999999999646
 10
-150.2481265867631
 20
49.93723979453239
 10
-150.1641650129598
 20
49.89445923589707
  0
LWPOLYLINE
  5
2AF
330
1F
100
AcDbEntity
  8
PROFILEEDGES
100
AcDbPolyline
 90
        2
 70
     0
 43
0.4799999999999646
 10
-150.3292362680791
 20
49.98520792634665
 10
-150.2481265867631
 20
49.93723979453239
  0
LWPOLYLINE
  5
2B0
330
1F
100
AcDbEntity
  8
PROFILEEDGES
100
AcDbPolyline
 90
        2
 70
     0
 43
0.4799999999999646
 10
-150.4071739540474
 20
50.0381743230379
 10
-150.3292362680791
 20
49.98520792634665
  0
LWPOLYLINE
  5
2B1
330
1F
100
AcDbEntity
  8
PROFILEEDGES
100
AcDbPolyline
 90
        2
 70
     0
 43
0.4799999999999646
 10
-150.4816320602321
 20
50.09592995043854
 10
-150.4071739540474
 20
50.0381743230379
  0
LWPOLYLINE
  5
2B2
330
1F
100
AcDbEntity
  8
PROFILEEDGES
100
AcDbPolyline
 90
        2
 70
     0
 43
0.4799999999999646
 10
-7.328730012894571
 20
49.89445923191621
 10
-7.242247904573797
 20
49.85703508178132
  0
LWPOLYLINE
  5
2B3
330
1F
100
AcDbEntity
  8
PROFILEEDGES
100
AcDbPolyline
 90
        2
 70
     0
 43
0.4799999999999646
 10
-5.332820496835441
 20
50.61303087323256
 10
-5.29539634669942
 20
50.69951298155219
  0
LWPOLYLINE
  5
2B4
330
1F
100
AcDbEntity
  8
PROFILEEDGES
100
AcDbPolyline
 90
        2
 70
     0
 43
0.4799999999999646
 10
-5.375601055470755
 20
50.52906929942808
 10
-5.332820496835441
 20
50.61303087323256
  0
LWPOLYLINE
  5
2B5
330
1F
100
AcDbEntity
  8
PROFILEEDGES
100
AcDbPolyline
 90
        2
 70
     0
 43
0.4799999999999646
 10
-5.423569187285009
 20
50.44795961811327
 10
-5.375601055470755
 20
50.52906929942808
  0
LWPOLYLINE
  5
2B6
330
1F
100
AcDbEntity
  8
PROFILEEDGES
100
AcDbPolyline
 90
        2
 70
     0
 43
0.4799999999999646
 10
-5.476535583975137
 20
50.37002193214387
 10
-5.423569187285009
 20
50.44795961811327
  0
LWPOLYLINE
  5
2B7
330
1F
100
AcDbEntity
  8
PROFILEEDGES
100
AcDbPolyline
 90
        2
 70
     0
 43
0.4799999999999646
 10
-5.534291211376927
 20
50.29556382596027
 10
-5.476535583975137
 20
50.37002193214387
  0
LWPOLYLINE
  5
2B8
330
1F
100
AcDbEntity
  8
PROFILEEDGES
100
AcDbPolyline
 90
        2
 70
     0
 43
0.4799999999999646
 10
-5.596608134410066
 20
50.22487915169193
 10
-5.534291211376927
 20
50.29556382596027
  0
LWPOLYLINE
  5
2B9
330
1F
100
AcDbEntity
  8
PROFILEEDGES
100
AcDbPolyline
 90
        2
 70
     0
 43
0.4799999999999646
 10
-5.663240416649018
 20
50.15824686945435
 10
-5.596608134410066
 20
50.22487915169193
  0
LWPOLYLINE
  5
2BA
330
1F
100
AcDbEntity
  8
PROFILEEDGES
100
AcDbPolyline
 90
        2
 70
     0
 43
0.4799999999999646
 10
-5.733925090920859
 20
50.09592994642401
 10
-5.663240416649018
 20
50.15824686945435
  0
LWPOLYLINE
  5
2BB
330
1F
100
AcDbEntity
  8
PROFILEEDGES
100
AcDbPolyline
 90
        2
 70
     0
 43
0.4799999999999646
 10
-5.808383197106509
 20
50.03817431902637
 10
-5.733925090920859
 20
50.09592994642401
  0
LWPOLYLINE
  5
2BC
330
1F
100
AcDbEntity
  8
PROFILEEDGES
100
AcDbPolyline
 90
        2
 70
     0
 43
0.4799999999999646
 10
-5.886320883077716
 20
49.98520792233715
 10
-5.808383197106509
 20
50.03817431902637
  0
LWPOLYLINE
  5
2BD
330
1F
100
AcDbEntity
  8
PROFILEEDGES
100
AcDbPolyline
 90
        2
 70
     0
 43
0.4799999999999646
 10
-5.96743056439403
 20
49.9372397905251
 10
-5.886320883077716
 20
49.98520792233715
  0
LWPOLYLINE
  5
2BE
330
1F
100
AcDbEntity
  8
PROFILEEDGES
100
AcDbPolyline
 90
        2
 70
     0
 43
0.4799999999999646
 10
-6.051392138199735
 20
49.89445923189331
 10
-5.96743056439403
 20
49.9372397905251
  0
LWPOLYLINE
  5
2BF
330
1F
100
AcDbEntity
  8
PROFILEEDGES
100
AcDbPolyline
 90
        2
 70
     0
 43
0.4799999999999646
 10
-6.137874246520283
 20
49.85703508176209
 10
-6.051392138199735
 20
49.89445923189331
  0
LWPOLYLINE
  5
2C0
330
1F
100
AcDbEntity
  8
PROFILEEDGES
100
AcDbPolyline
 90
        2
 70
     0
 43
0.4799999999999646
 10
-6.226535583984667
 20
49.82511503615272
 10
-6.137874246520283
 20
49.85703508176209
  0
LWPOLYLINE
  5
2C1
330
1F
100
AcDbEntity
  8
PROFILEEDGES
100
AcDbPolyline
 90
        2
 70
     0
 43
0.4799999999999646
 10
-6.317026244801133
 20
49.79882506890478
 10
-6.226535583984667
 20
49.82511503615272
  0
LWPOLYLINE
  5
2C2
330
1F
100
AcDbEntity
  8
PROFILEEDGES
100
AcDbPolyline
 90
        2
 70
     0
 43
0.4799999999999646
 10
-6.408989103671171
 20
49.77826893450662
 10
-6.317026244801133
 20
49.79882506890478
  0
LWPOLYLINE
  5
2C3
330
1F
100
AcDbEntity
  8
PROFILEEDGES
100
AcDbPolyline
 90
        2
 70
     0
 43
0.4799999999999646
 10
-6.50206122520285
 20
49.76352775862952
 10
-6.408989103671171
 20
49.77826893450662
  0
LWPOLYLINE
  5
2C4
330
1F
100
AcDbEntity
  8
PROFILEEDGES
100
AcDbPolyline
 90
        2
 70
     0
 43
0.4799999999999646
 10
-6.595875296254972
 20
49.75465971796056
 10
-6.50206122520285
 20
49.76352775862952
  0
LWPOLYLINE
  5
2C5
330
1F
100
AcDbEntity
  8
PROFILEEDGES
100
AcDbPolyline
 90
        2
 70
     0
 43
0.4799999999999646
 10
-6.690061075548834
 20
49.7516998106037
 10
-6.595875296254972
 20
49.75465971796056
  0
LWPOLYLINE
  5
2C6
330
1F
100
AcDbEntity
  8
PROFILEEDGES
100
AcDbPolyline
 90
        2
 70
     0
 43
0.4799999999999646
 10
-6.784246854842537
 20
49.75465971796351
 10
-6.690061075548834
 20
49.7516998106037
  0
LWPOLYLINE
  5
2C7
330
1F
100
AcDbEntity
  8
PROFILEEDGES
100
AcDbPolyline
 90
        2
 70
     0
 43
0.4799999999999646
 10
-6.878060925896442
 20
49.76352775863536
 10
-6.784246854842537
 20
49.75465971796351
  0
LWPOLYLINE
  5
2C8
330
1F
100
AcDbEntity
  8
PROFILEEDGES
100
AcDbPolyline
 90
        2
 70
     0
 43
0.4799999999999646
 10
-6.971133047427331
 20
49.7782689345165
 10
-6.878060925896442
 20
49.76352775863536
  0
LWPOLYLINE
  5
2C9
330
1F
100
AcDbEntity
  8
PROFILEEDGES
100
AcDbPolyline
 90
        2
 70
     0
 43
0.4799999999999646
 10
-7.063095906296173
 20
49.79882506891749
 10
-6.971133047427331
 20
49.7782689345165
  0
LWPOLYLINE
  5
2CA
330
1F
100
AcDbEntity
  8
PROFILEEDGES
100
AcDbPolyline
 90
        2
 70
     0
 43
0.4799999999999646
 10
-7.153586567111218
 20
49.8251150361693
 10
-7.063095906296173
 20
49.79882506891749
  0
LWPOLYLINE
  5
2CB
330
1F
100
AcDbEntity
  8
PROFILEEDGES
100
AcDbPolyline
 90
        2
 70
     0
 43
0.4799999999999646
 10
-7.242247904573797
 20
49.85703508178132
 10
-7.153586567111218
 20
49.8251150361693
  0
ENDSEC
  0
SECTION
  2
OBJECTS
  0
DICTIONARY
  5
C
330
0
100
AcDbDictionary
  3
ACAD_GROUP
350
D
  3
ACAD_LAYOUT
350
1A
  3
ACAD_MATERIAL
350
43
  3
ACAD_MLEADERSTYLE
350
6B
  3
ACAD_MLINESTYLE
350
17
  3
ACAD_PLOTSETTINGS
350
19
  3
ACAD_SCALELIST
350
47
  3
ACAD_VISUALSTYLE
350
2A
  3
ACDBHEADERROUNDTRIPXREC
350
2CC
  3
ACDBVARIABLEDICTIONARY
350
2ED
  0
DICTIONARY
  5
2F4
330
8
100
AcDbDictionary
280
     1
  3
ACAD_XREC_ROUNDTRIP
360
2F5
  0
DICTIONARY
  5
D
102
{ACAD_REACTORS
330
C
102
}
330
C
100
AcDbDictionary
  0
DICTIONARY
  5
1A
102
{ACAD_REACTORS
330
C
102
}
330
C
100
AcDbDictionary
  0
DICTIONARY
  5
43
102
{ACAD_REACTORS
330
C
102
}
330
C
100
AcDbDictionary
  3
BYBLOCK
350
45
  3
BYLAYER
350
44
  3
GLOBAL
350
46
  0
DICTIONARY
  5
6B
102
{ACAD_REACTORS
330
C
102
}
330
C
100
AcDbDictionary
  3
STANDARD
350
6C
  0
DICTIONARY
  5
17
102
{ACAD_REACTORS
330
C
102
}
330
C
100
AcDbDictionary
  3
STANDARD
350
18
  0
DICTIONARY
  5
19
102
{ACAD_REACTORS
330
C
102
}
330
C
100
AcDbDictionary
  0
DICTIONARY
  5
47
102
{ACAD_REACTORS
330
C
102
}
330
C
100
AcDbDictionary
  3
A0
350
48
  3
A1
350
49
  3
A2
350
4A
  3
A3
350
4B
  3
A4
350
4C
  3
A5
350
4D
  3
A6
350
4E
  3
A7
350
4F
  3
A8
350
50
  3
A9
350
51
  3
B0
350
52
  3
B1
350
53
  3
B2
350
54
  3
B3
350
55
  3
B4
350
56
  3
B5
350
57
  3
B6
350
58
  3
B7
350
59
  3
B8
350
5A
  3
B9
350
5B
  3
C0
350
5C
  3
C1
350
5D
  3
C2
350
5E
  3
C3
350
5F
  3
C4
350
60
  3
C5
350
61
  3
C6
350
62
  3
C7
350
63
  3
C8
350
64
  3
C9
350
65
  3
D0
350
66
  3
D1
350
67
  3
D2
350
68
  0
DICTIONARY
  5
2A
102
{ACAD_REACTORS
330
C
102
}
330
C
100
AcDbDictionary
  3
2DWIREFRAME
350
2F
  3
BASIC
350
32
  3
BRIGHTEN
350
36
  3
COLORCHANGE
350
3A
  3
CONCEPTUAL
350
34
  3
DIM
350
35
  3
EDGECOLOROFF
350
3D
  3
FACEPATTERN
350
39
  3
FLAT
350
2B
  3
FLATWITHEDGES
350
2C
  3
GOURAUD
350
2D
  3
GOURAUDWITHEDGES
350
2E
  3
HIDDEN
350
31
  3
JITTEROFF
350
3B
  3
LINEPATTERN
350
38
  3
OVERHANGOFF
350
3C
  3
REALISTIC
350
33
  3
SHADED
350
42
  3
SHADED_WITH_EDGES
350
41
  3
SHADES_OF_GRAY
350
3E
  3
SKETCHY
350
3F
  3
THICKEN
350
37
  3
WIREFRAME
350
30
  3
X-RAY
350
40
  0
DICTIONARY
  5
2CC
102
{ACAD_REACTORS
330
C
102
}
330
C
100
AcDbDictionary
  3
CEPSNID
350
2D6
  3
CEPSNTYPE
350
2D5
  3
DIMSTYLEDATA
350
2EC
  3
FINGERPRINTGUID
350
2D7
  3
HYPERLINKBASE
350
2CF
  3
INSUNITS
350
2D4
  3
LAYOUTDICT
350
2D1
  3
LWETCUNION
350
2D3
  3
PLOTSETDICT
350
2D2
  3
PSVPSCALE
350
2D9
  3
PUCSBASE
350
2DC
  3
PUCSORGBACK
350
2E2
  3
PUCSORGBOTTOM
350
2DE
  3
PUCSORGFRONT
350
2E1
  3
PUCSORGLEFT
350
2DF
  3
PUCSORGRIGHT
350
2E0
  3
PUCSORGTOP
350
2DD
  3
PUCSORTHOREF
350
2DA
  3
PUCSORTHOVIEW
350
2DB
  3
STYLESHEET
350
2D0
  3
TSTACKALIGN
350
2CD
  3
TSTACKSIZE
350
2CE
  3
UCSBASE
350
2E5
  3
UCSORGBACK
350
2EB
  3
UCSORGBOTTOM
350
2E7
  3
UCSORGFRONT
350
2EA
  3
UCSORGLEFT
350
2E8
  3
UCSORGRIGHT
350
2E9
  3
UCSORGTOP
350
2E6
  3
UCSORTHOREF
350
2E3
  3
UCSORTHOVIEW
350
2E4
  3
VERSIONGUID
350
2D8
  0
DICTIONARY
  5
2ED
102
{ACAD_REACTORS
330
C
102
}
330
C
100
AcDbDictionary
  3
CANNOSCALE
350
2F6
  3
CMLEADERSTYLE
350
2EF
  3
CTABLESTYLE
350
2EE
  3
DIMASSOC
350
2F2
  3
HIDETEXT
350
2F3
  3
MSLTSCALE
350
2F7
  0
XRECORD
  5
2F5
102
{ACAD_REACTORS
330
2F4
102
}
330
2F4
100
AcDbXrecord
102
VTR_0.000_0.000_1.000_1.000_VISUALSTYLE
340
2F
102
VTR_0.000_0.000_1.000_1.000_GRIDDISPLAY
 70
     3
102
VTR_0.000_0.000_1.000_1.000_GRIDMAJOR
 70
     5
102
VTR_0.000_0.000_1.000_1.000_DEFAULTLIGHTING
280
     1
102
VTR_0.000_0.000_1.000_1.000_DEFAULTLIGHTINGTYPE
 70
     1
102
VTR_0.000_0.000_1.000_1.000_BRIGHTNESS
141
0.0
102
VTR_0.000_0.000_1.000_1.000_CONTRAST
142
0.0
  0
MATERIAL
  5
45
102
{ACAD_REACTORS
330
43
102
}
102
{ACAD_XDICTIONARY
360
2FA
102
}
330
43
100
AcDbMaterial
  1
BYBLOCK
  0
MATERIAL
  5
44
102
{ACAD_REACTORS
330
43
102
}
102
{ACAD_XDICTIONARY
360
2F8
102
}
330
43
100
AcDbMaterial
  1
BYLAYER
  0
MATERIAL
  5
46
102
{ACAD_REACTORS
330
43
102
}
102
{ACAD_XDICTIONARY
360
2FC
102
}
330
43
100
AcDbMaterial
  1
GLOBAL
  0
ACAD_PROXY_OBJECT
  5
6C
102
{ACAD_REACTORS
330
6B
102
}
330
6B
100
AcDbProxyObject
 90
      499
 91
      505
 93
      610
310
40901902A4063FBFFFFFE056BD1B81E855B9FC0AD7A3703D0AD73F4214DD185B99185C9900AD7A3703D0AC73F90141901A02B5E8DC0F42B1CFC02B5E8DC0F42B1CFE5764000000000000300FC0
340
14
340
0
340
11
340
0
 94
        0
1001
ACAD_MLEADERVER
1070
     2
  0
MLINESTYLE
  5
18
102
{ACAD_REACTORS
330
17
102
}
330
17
100
AcDbMlineStyle
  2
Standard
 70
     0
  3

 62
   256
 51
90.0
 52
90.0
 71
     2
 49
0.5
 62
   256
  6
BYLAYER
 49
-0.5
 62
   256
  6
BYLAYER
  0
ACAD_PROXY_OBJECT
  5
48
102
{ACAD_REACTORS
330
47
102
}
330
47
100
AcDbProxyObject
 90
      499
 91
      503
 93
       41
310
903313A31580
  0
ACAD_PROXY_OBJECT
  5
49
102
{ACAD_REACTORS
330
47
102
}
330
47
100
AcDbProxyObject
 90
      499
 91
      503
 93
      105
310
903313A324000000000000004000
  0
ACAD_PROXY_OBJECT
  5
4A
102
{ACAD_REACTORS
330
47
102
}
330
47
100
AcDbProxyObject
 90
      499
 91
      503
 93
      105
310
903313A344000000000000104000
  0
ACAD_PROXY_OBJECT
  5
4B
102
{ACAD_REACTORS
330
47
102
}
330
47
100
AcDbProxyObject
 90
      499
 91
      503
 93
      105
310
903313A354000000000000144000
  0
ACAD_PROXY_OBJECT
  5
4C
102
{ACAD_REACTORS
330
47
102
}
330
47
100
AcDbProxyObject
 90
      499
 91
      503
 93
      105
310
903313A384000000000000204000
  0
ACAD_PROXY_OBJECT
  5
4D
102
{ACAD_REACTORS
330
47
102
}
330
47
100
AcDbProxyObject
 90
      499
 91
      503
 93
      113
310
904313A31304000000000000244000
  0
ACAD_PROXY_OBJECT
  5
4E
102
{ACAD_REACTORS
330
47
102
}
330
47
100
AcDbProxyObject
 90
      499
 91
      503
 93
      113
310
904313A31364000000000000304000
  0
ACAD_PROXY_OBJECT
  5
4F
102
{ACAD_REACTORS
330
47
102
}
330
47
100
AcDbProxyObject
 90
      499
 91
      503
 93
      113
310
904313A32304000000000000344000
  0
ACAD_PROXY_OBJECT
  5
50
102
{ACAD_REACTORS
330
47
102
}
330
47
100
AcDbProxyObject
 90
      499
 91
      503
 93
      113
310
904313A333040000000000003E4000
  0
ACAD_PROXY_OBJECT
  5
51
102
{ACAD_REACTORS
330
47
102
}
330
47
100
AcDbProxyObject
 90
      499
 91
      503
 93
      113
310
904313A34304000000000000444000
  0
ACAD_PROXY_OBJECT
  5
52
102
{ACAD_REACTORS
330
47
102
}
330
47
100
AcDbProxyObject
 90
      499
 91
      503
 93
      113
310
904313A35304000000000000494000
  0
ACAD_PROXY_OBJECT
  5
53
102
{ACAD_REACTORS
330
47
102
}
330
47
100
AcDbProxyObject
 90
      499
 91
      503
 93
      121
310
905313A3130304000000000000594000
  0
ACAD_PROXY_OBJECT
  5
54
102
{ACAD_REACTORS
330
47
102
}
330
47
100
AcDbProxyObject
 90
      499
 91
      503
 93
      105
310
903323A310000000000000010100
  0
ACAD_PROXY_OBJECT
  5
55
102
{ACAD_REACTORS
330
47
102
}
330
47
100
AcDbProxyObject
 90
      499
 91
      503
 93
      105
310
903343A310000000000000410100
  0
ACAD_PROXY_OBJECT
  5
56
102
{ACAD_REACTORS
330
47
102
}
330
47
100
AcDbProxyObject
 90
      499
 91
      503
 93
      105
310
903383A310000000000000810100
  0
ACAD_PROXY_OBJECT
  5
57
102
{ACAD_REACTORS
330
47
102
}
330
47
100
AcDbProxyObject
 90
      499
 91
      503
 93
      113
310
90431303A310000000000000910100
  0
ACAD_PROXY_OBJECT
  5
58
102
{ACAD_REACTORS
330
47
102
}
330
47
100
AcDbProxyObject
 90
      499
 91
      503
 93
      121
310
9053130303A310000000000001650100
  0
ACAD_PROXY_OBJECT
  5
59
102
{ACAD_REACTORS
330
47
102
}
330
47
100
AcDbProxyObject
 90
      499
 91
      503
 93
      257
310
90E312F31323822203D2031272D3022000000000000200FC000000000000284000
  0
ACAD_PROXY_OBJECT
  5
5A
102
{ACAD_REACTORS
330
47
102
}
330
47
100
AcDbProxyObject
 90
      499
 91
      503
 93
      249
310
90D312F363422203D2031272D3022000000000000240FC000000000000284000
  0
ACAD_PROXY_OBJECT
  5
5B
102
{ACAD_REACTORS
330
47
102
}
330
47
100
AcDbProxyObject
 90
      499
 91
      503
 93
      249
310
90D312F333222203D2031272D3022000000000000280FC000000000000284000
  0
ACAD_PROXY_OBJECT
  5
5C
102
{ACAD_REACTORS
330
47
102
}
330
47
100
AcDbProxyObject
 90
      499
 91
      503
 93
      249
310
90D312F313622203D2031272D30220000000000002C0FC000000000000284000
  0
ACAD_PROXY_OBJECT
  5
5D
102
{ACAD_REACTORS
330
47
102
}
330
47
100
AcDbProxyObject
 90
      499
 91
      503
 93
      249
310
90D332F333222203D2031272D30220000000000002E0FC000000000000284000
  0
ACAD_PROXY_OBJECT
  5
5E
102
{ACAD_REACTORS
330
47
102
}
330
47
100
AcDbProxyObject
 90
      499
 91
      503
 93
      241
310
90C312F3822203D2031272D3022000000000000300FC000000000000284000
  0
ACAD_PROXY_OBJECT
  5
5F
102
{ACAD_REACTORS
330
47
102
}
330
47
100
AcDbProxyObject
 90
      499
 91
      503
 93
      249
310
90D332F313622203D2031272D3022000000000000320FC000000000000284000
  0
ACAD_PROXY_OBJECT
  5
60
102
{ACAD_REACTORS
330
47
102
}
330
47
100
AcDbProxyObject
 90
      499
 91
      503
 93
      241
310
90C312F3422203D2031272D3022000000000000340FC000000000000284000
  0
ACAD_PROXY_OBJECT
  5
61
102
{ACAD_REACTORS
330
47
102
}
330
47
100
AcDbProxyObject
 90
      499
 91
      503
 93
      241
310
90C332F3822203D2031272D3022000000000000360FC000000000000284000
  0
ACAD_PROXY_OBJECT
  5
62
102
{ACAD_REACTORS
330
47
102
}
330
47
100
AcDbProxyObject
 90
      499
 91
      503
 93
      241
310
90C312F3222203D2031272D3022000000000000380FC000000000000284000
  0
ACAD_PROXY_OBJECT
  5
63
102
{ACAD_REACTORS
330
47
102
}
330
47
100
AcDbProxyObject
 90
      499
 91
      503
 93
      241
310
90C332F3422203D2031272D30220000000000003A0FC000000000000284000
  0
ACAD_PROXY_OBJECT
  5
64
102
{ACAD_REACTORS
330
47
102
}
330
47
100
AcDbProxyObject
 90
      499
 91
      503
 93
      161
310
90A3122203D2031272D30224000000000000284000
  0
ACAD_PROXY_OBJECT
  5
65
102
{ACAD_REACTORS
330
47
102
}
330
47
100
AcDbProxyObject
 90
      499
 91
      503
 93
      257
310
90E312D312F3222203D2031272D30220000000000003E0FC000000000000284000
  0
ACAD_PROXY_OBJECT
  5
66
102
{ACAD_REACTORS
330
47
102
}
330
47
100
AcDbProxyObject
 90
      499
 91
      503
 93
      225
310
90A3322203D2031272D302200000000000002100000000000000284000
  0
ACAD_PROXY_OBJECT
  5
67
102
{ACAD_REACTORS
330
47
102
}
330
47
100
AcDbProxyObject
 90
      499
 91
      503
 93
      225
310
90A3622203D2031272D302200000000000006100000000000000284000
  0
ACAD_PROXY_OBJECT
  5
68
102
{ACAD_REACTORS
330
47
102
}
330
47
100
AcDbProxyObject
 90
      499
 91
      503
 93
      249
310
90D31272D3022203D2031272D30220000000000000A100000000000000284000
  0
ACAD_PROXY_OBJECT
  5
2F
102
{ACAD_REACTORS
330
2A
102
}
330
2A
100
AcDbProxyObject
 90
      499
 91
      501
 93
      436
310
42CC9915DA5C99599C985B595049028333333333333E33F0000000000000F90107901411070040501600405405064090741402480A0340
1001
ACAD
1000
AcDbSavedByObjectVersion
1070
     0
  0
ACAD_PROXY_OBJECT
  5
32
102
{ACAD_REACTORS
330
2A
102
}
330
2A
100
AcDbProxyObject
 90
      499
 91
      501
 93
      388
310
4150985CDA58D07406404333333333333E33F0000000000000F90107A41107004050150841D405064090741402480A0350
1001
ACAD
1000
AcDbSavedByObjectVersion
1070
     0
  0
ACAD_PROXY_OBJECT
  5
36
102
{ACAD_REACTORS
330
2A
102
}
330
2A
100
AcDbProxyObject
 90
      499
 91
      501
 93
      428
310
42109C9A59DA1D195B90C409028333333333333E33F0000000000000F9010790141107004050150841D405064090741402480A029950
1001
ACAD
1000
AcDbSavedByObjectVersion
1070
     0
  0
ACAD_PROXY_OBJECT
  5
3A
102
{ACAD_REACTORS
330
2A
102
}
330
2A
100
AcDbProxyObject
 90
      499
 91
      501
 93
      452
310
42D0DBDB1BDC90DA185B99D95104090240C333333333333E33F0000000000000F90108901411070040501508421405064090741402480A0350
1001
ACAD
1000
AcDbSavedByObjectVersion
1070
     0
  0
ACAD_PROXY_OBJECT
  5
34
102
{ACAD_REACTORS
330
2A
102
}
330
2A
100
AcDbProxyObject
 90
      499
 91
      501
 93
      500
310
4290DBDB98D95C1D1D585B10940D028333333333333E33F0000000000000F90107902409070040501000000000018199010841D405064090740C02480A0340
1001
ACAD
1000
AcDbSavedByObjectVersion
1070
     0
  0
ACAD_PROXY_OBJECT
  5
35
102
{ACAD_REACTORS
330
2A
102
}
330
2A
100
AcDbProxyObject
 90
      499
 91
      501
 93
      412
310
40D11A5B50B409028333333333333E33F0000000000000F9010790141107004050150841D405064090741402480A02677FFFFFD0
1001
ACAD
1000
AcDbSavedByObjectVersion
1070
     0
  0
ACAD_PROXY_OBJECT
  5
3D
102
{ACAD_REACTORS
330
2A
102
}
330
2A
100
AcDbProxyObject
 90
      499
 91
      501
 93
      452
310
43115919D950DBDB1BDC93D999916409028333333333333E33F0000000000000F9010790141107004050150841D405064090741402480A0350
1001
ACAD
1000
AcDbSavedByObjectVersion
1070
     0
  0
ACAD_PROXY_OBJECT
  5
39
102
{ACAD_REACTORS
330
2A
102
}
330
2A
100
AcDbProxyObject
 90
      499
 91
      501
 93
      444
310
42D19858D95C185D1D195C9B90F409028333333333333E33F0000000000000F9010790141107004050150841D405064090741402480A0350
1001
ACAD
1000
AcDbSavedByObjectVersion
1070
     0
  0
ACAD_PROXY_OBJECT
  5
2B
102
{ACAD_REACTORS
330
2A
102
}
330
2A
100
AcDbProxyObject
 90
      499
 91
      501
 93
      380
310
41119B185D240901404333333333333E33F0000000000000F9010740A907004050150841D405064090741402480A1B50
1001
ACAD
1000
AcDbSavedByObjectVersion
1070
     0
  0
ACAD_PROXY_OBJECT
  5
2C
102
{ACAD_REACTORS
330
2A
102
}
330
2A
100
AcDbProxyObject
 90
      499
 91
      501
 93
      468
310
43519B185D15DA5D1A115919D95CD0140901404333333333333E33F0000000000000F90107409019070040501600405405064090741402480A1B50
1001
ACAD
1000
AcDbSavedByObjectVersion
1070
     0
  0
ACAD_PROXY_OBJECT
  5
2D
102
{ACAD_REACTORS
330
2A
102
}
330
2A
100
AcDbProxyObject
 90
      499
 91
      501
 93
      404
310
41D1DBDD5C985D5910240902404333333333333E33F0000000000000F9010740A9070040501641D405064090741402480A1B50
1001
ACAD
1000
AcDbSavedByObjectVersion
1070
     0
  0
ACAD_PROXY_OBJECT
  5
2E
102
{ACAD_REACTORS
330
2A
102
}
330
2A
100
AcDbProxyObject
 90
      499
 91
      501
 93
      492
310
4411DBDD5C985D5915DA5D1A115919D95CD0340902404333333333333E33F0000000000000F90107409019070040501600405405064090741402480A1B50
1001
ACAD
1000
AcDbSavedByObjectVersion
1070
     0
  0
ACAD_PROXY_OBJECT
  5
31
102
{ACAD_REACTORS
330
2A
102
}
330
2A
100
AcDbProxyObject
 90
      499
 91
      501
 93
      476
310
41921A5919195B90640502408333333333333E33F0000000000000F901079024090700405020000000000001110200405405064090740C02480A0340
1001
ACAD
1000
AcDbSavedByObjectVersion
1070
     0
  0
ACAD_PROXY_OBJECT
  5
3B
102
{ACAD_REACTORS
330
2A
102
}
330
2A
100
AcDbProxyObject
 90
      499
 91
      501
 93
      428
310
42529A5D1D195C93D999914409028333333333333E33F0000000000000F9010790141107004050150A41D405064090741402480A0350
1001
ACAD
1000
AcDbSavedByObjectVersion
1070
     0
  0
ACAD_PROXY_OBJECT
  5
38
102
{ACAD_REACTORS
330
2A
102
}
330
2A
100
AcDbProxyObject
 90
      499
 91
      501
 93
      444
310
42D31A5B995C185D1D195C9B90E409028333333333333E33F0000000000000F9010790141107004050750841D405064090741402483A0350
1001
ACAD
1000
AcDbSavedByObjectVersion
1070
     0
  0
ACAD_PROXY_OBJECT
  5
3C
102
{ACAD_REACTORS
330
2A
102
}
330
2A
100
AcDbProxyObject
 90
      499
 91
      501
 93
      444
310
42D3DD995C9A185B99D3D999915409028333333333333E33F0000000000000F9010790141107004050150941D405064090741402480A0350
1001
ACAD
1000
AcDbSavedByObjectVersion
1070
     0
  0
ACAD_PROXY_OBJECT
  5
33
102
{ACAD_REACTORS
330
2A
102
}
330
2A
100
AcDbProxyObject
 90
      499
 91
      501
 93
      428
310
425499585B1A5CDD1A58D08409038333333333333E33F0000000000000F9010740A907004050150800405405064090740C02480A1B40
1001
ACAD
1000
AcDbSavedByObjectVersion
1070
     0
  0
ACAD_PROXY_OBJECT
  5
42
102
{ACAD_REACTORS
330
2A
102
}
330
2A
100
AcDbProxyObject
 90
      499
 91
      501
 93
      420
310
4194DA1859195911B40902404333333333333E33F0000000000000F9010740A41107004050150800405405064090840C02480A0B40
1001
ACAD
1000
AcDbSavedByObjectVersion
1070
     0
  0
ACAD_PROXY_OBJECT
  5
41
102
{ACAD_REACTORS
330
2A
102
}
330
2A
100
AcDbProxyObject
 90
      499
 91
      501
 93
      516
310
4454DA18591959081DDA5D1A08195919D95CD1A40902404333333333333E33F0000000000000F901074090142907004050250800405405064090740C02480A0B40
1001
ACAD
1000
AcDbSavedByObjectVersion
1070
     0
  0
ACAD_PROXY_OBJECT
  5
3E
102
{ACAD_REACTORS
330
2A
102
}
330
2A
100
AcDbProxyObject
 90
      499
 91
      501
 93
      532
310
4394DA1859195CC81BD98811DC985E5174090240C333333333333E33F0000000000000F901079024090741D01000000000000111010841D405064090740C02480A0340
1001
ACAD
1000
AcDbSavedByObjectVersion
1070
     0
  0
ACAD_PROXY_OBJECT
  5
3F
102
{ACAD_REACTORS
330
2A
102
}
330
2A
100
AcDbProxyObject
 90
      499
 91
      501
 93
      476
310
41D4DAD95D18DA1E51840502408333333333333E33F0000000000000F901079024090741D01000000000000111010B41D405064090741802480A0340
1001
ACAD
1000
AcDbSavedByObjectVersion
1070
     0
  0
ACAD_PROXY_OBJECT
  5
37
102
{ACAD_REACTORS
330
2A
102
}
330
2A
100
AcDbProxyObject
 90
      499
 91
      501
 93
      412
310
41D51A1A58DAD95B90D409028333333333333E33F0000000000000F9010790141107004050150C41D405064090741402480A0350
1001
ACAD
1000
AcDbSavedByObjectVersion
1070
     0
  0
ACAD_PROXY_OBJECT
  5
30
102
{ACAD_REACTORS
330
2A
102
}
330
2A
100
AcDbProxyObject
 90
      499
 91
      501
 93
      420
310
4255DA5C99599C985B595059028333333333333E33F0000000000000F90107901411070040501600405405064090740C02480A0340
1001
ACAD
1000
AcDbSavedByObjectVersion
1070
     0
  0
ACAD_PROXY_OBJECT
  5
40
102
{ACAD_REACTORS
330
2A
102
}
330
2A
100
AcDbProxyObject
 90
      499
 91
      501
 93
      404
310
41560B54985E51940902404000000000000E03F0000000000000F9010740501907004050150841D405064090740C02480A1B40
1001
ACAD
1000
AcDbSavedByObjectVersion
1070
     0
  0
XRECORD
  5
2D6
102
{ACAD_REACTORS
330
2CC
102
}
330
2CC
100
AcDbXrecord
340
0
  0
XRECORD
  5
2D5
102
{ACAD_REACTORS
330
2CC
102
}
330
2CC
100
AcDbXrecord
 90
        0
  0
XRECORD
  5
2EC
102
{ACAD_REACTORS
330
2CC
102
}
330
2CC
100
AcDbXrecord
1000
DSTYLE
1002
{
1070
   171
 70
     2
1070
   143
 40
25.4
1070
   274
 70
     2
1070
    41
 40
0.18
1070
   141
 40
0.09
1070
   271
 70
     4
1070
    43
 40
0.38
1070
   278
 70
    46
1070
    44
 40
0.18
1070
    42
 40
0.0625
1070
   147
 40
0.09
1070
    77
 70
     0
1070
   272
 70
     4
1070
    73
 70
     1
1070
   172
 70
     0
1070
    74
 70
     1
1070
   283
 70
     1
1070
   340
340
11
1070
   140
 40
0.18
1070
   284
 70
     0
1070
    78
 70
     0
1002
}
  0
XRECORD
  5
2D7
102
{ACAD_REACTORS
330
2CC
102
}
330
2CC
100
AcDbXrecord
  1
{c78709b0-6606-41d6-85c5-97117eeb4033}
  0
XRECORD
  5
2CF
102
{ACAD_REACTORS
330
2CC
102
}
330
2CC
100
AcDbXrecord
  1

  0
XRECORD
  5
2D4
102
{ACAD_REACTORS
330
2CC
102
}
330
2CC
100
AcDbXrecord
 90
        4
  0
XRECORD
  5
2D1
102
{ACAD_REACTORS
330
2CC
102
}
330
2CC
100
AcDbXrecord
340
1A
  0
XRECORD
  5
2D3
102
{ACAD_REACTORS
330
2CC
102
}
330
2CC
100
AcDbXrecord
 90
    10781
  0
XRECORD
  5
2D2
102
{ACAD_REACTORS
330
2CC
102
}
330
2CC
100
AcDbXrecord
340
19
  0
XRECORD
  5
2D9
102
{ACAD_REACTORS
330
2CC
102
}
330
2CC
100
AcDbXrecord
 40
0.0
  0
XRECORD
  5
2DC
102
{ACAD_REACTORS
330
2CC
102
}
330
2CC
100
AcDbXrecord
340
0
  0
XRECORD
  5
2E2
102
{ACAD_REACTORS
330
2CC
102
}
330
2CC
100
AcDbXrecord
 10
0.0
 20
0.0
 30
0.0
  0
XRECORD
  5
2DE
102
{ACAD_REACTORS
330
2CC
102
}
330
2CC
100
AcDbXrecord
 10
0.0
 20
0.0
 30
0.0
  0
XRECORD
  5
2E1
102
{ACAD_REACTORS
330
2CC
102
}
330
2CC
100
AcDbXrecord
 10
0.0
 20
0.0
 30
0.0
  0
XRECORD
  5
2DF
102
{ACAD_REACTORS
330
2CC
102
}
330
2CC
100
AcDbXrecord
 10
0.0
 20
0.0
 30
0.0
  0
XRECORD
  5
2E0
102
{ACAD_REACTORS
330
2CC
102
}
330
2CC
100
AcDbXrecord
 10
0.0
 20
0.0
 30
0.0
  0
XRECORD
  5
2DD
102
{ACAD_REACTORS
330
2CC
102
}
330
2CC
100
AcDbXrecord
 10
0.0
 20
0.0
 30
0.0
  0
XRECORD
  5
2DA
102
{ACAD_REACTORS
330
2CC
102
}
330
2CC
100
AcDbXrecord
340
0
  0
XRECORD
  5
2DB
102
{ACAD_REACTORS
330
2CC
102
}
330
2CC
100
AcDbXrecord
 70
     0
  0
XRECORD
  5
2D0
102
{ACAD_REACTORS
330
2CC
102
}
330
2CC
100
AcDbXrecord
  1

  0
XRECORD
  5
2CD
102
{ACAD_REACTORS
330
2CC
102
}
330
2CC
100
AcDbXrecord
 90
        1
  0
XRECORD
  5
2CE
102
{ACAD_REACTORS
330
2CC
102
}
330
2CC
100
AcDbXrecord
 90
       70
  0
XRECORD
  5
2E5
102
{ACAD_REACTORS
330
2CC
102
}
330
2CC
100
AcDbXrecord
340
0
  0
XRECORD
  5
2EB
102
{ACAD_REACTORS
330
2CC
102
}
330
2CC
100
AcDbXrecord
 10
0.0
 20
0.0
 30
0.0
  0
XRECORD
  5
2E7
102
{ACAD_REACTORS
330
2CC
102
}
330
2CC
100
AcDbXrecord
 10
0.0
 20
0.0
 30
0.0
  0
XRECORD
  5
2EA
102
{ACAD_REACTORS
330
2CC
102
}
330
2CC
100
AcDbXrecord
 10
0.0
 20
0.0
 30
0.0
  0
XRECORD
  5
2E8
102
{ACAD_REACTORS
330
2CC
102
}
330
2CC
100
AcDbXrecord
 10
0.0
 20
0.0
 30
0.0
  0
XRECORD
  5
2E9
102
{ACAD_REACTORS
330
2CC
102
}
330
2CC
100
AcDbXrecord
 10
0.0
 20
0.0
 30
0.0
  0
XRECORD
  5
2E6
102
{ACAD_REACTORS
330
2CC
102
}
330
2CC
100
AcDbXrecord
 10
0.0
 20
0.0
 30
0.0
  0
XRECORD
  5
2E3
102
{ACAD_REACTORS
330
2CC
102
}
330
2CC
100
AcDbXrecord
340
0
  0
XRECORD
  5
2E4
102
{ACAD_REACTORS
330
2CC
102
}
330
2CC
100
AcDbXrecord
 70
     0
  0
XRECORD
  5
2D8
102
{ACAD_REACTORS
330
2CC
102
}
330
2CC
100
AcDbXrecord
  1
{FAEB1C32-E019-11D5-929B-00C0DF256EC4}
  0
DICTIONARYVAR
  5
2F6
102
{ACAD_REACTORS
330
2ED
102
}
330
2ED
100
DictionaryVariables
280
     0
  1
1:1
  0
DICTIONARYVAR
  5
2EF
102
{ACAD_REACTORS
330
2ED
102
}
330
2ED
100
DictionaryVariables
280
     0
  1
Standard
  0
DICTIONARYVAR
  5
2EE
102
{ACAD_REACTORS
330
2ED
102
}
330
2ED
100
DictionaryVariables
280
     0
  1
Standard
  0
DICTIONARYVAR
  5
2F2
102
{ACAD_REACTORS
330
2ED
102
}
330
2ED
100
DictionaryVariables
280
     0
  1
2
  0
DICTIONARYVAR
  5
2F3
102
{ACAD_REACTORS
330
2ED
102
}
330
2ED
100
DictionaryVariables
280
     0
  1
1
  0
DICTIONARYVAR
  5
2F7
102
{ACAD_REACTORS
330
2ED
102
}
330
2ED
100
DictionaryVariables
280
     0
  1
1
  0
DICTIONARY
  5
2FA
330
45
100
AcDbDictionary
280
     1
  3
ACAD_XREC_ROUNDTRIP
360
2FB
  0
DICTIONARY
  5
2F8
330
44
100
AcDbDictionary
280
     1
  3
ACAD_XREC_ROUNDTRIP
360
2F9
  0
DICTIONARY
  5
2FC
330
46
100
AcDbDictionary
280
     1
  3
ACAD_XREC_ROUNDTRIP
360
2FD
  0
XRECORD
  5
2FB
102
{ACAD_REACTORS
330
2FA
102
}
330
2FA
100
AcDbXrecord
102
MATERIAL
148
0.0
149
0.0
149
0.0
 93
        0
 94
      127
282
     0
 72
     1
 77
     1
171
     1
175
     1
179
     1
273
     0
  0
XRECORD
  5
2F9
102
{ACAD_REACTORS
330
2F8
102
}
330
2F8
100
AcDbXrecord
102
MATERIAL
148
0.0
149
0.0
149
0.0
 93
        0
 94
      127
282
     0
 72
     1
 77
     1
171
     1
175
     1
179
     1
273
     0
  0
XRECORD
  5
2FD
102
{ACAD_REACTORS
330
2FC
102
}
330
2FC
100
AcDbXrecord
102
MATERIAL
148
0.0
149
0.0
149
0.0
 93
        0
 94
      127
282
     0
 72
     1
 77
     1
171
     1
175
     1
179
     1
273
     0
  0
ENDSEC
  0
EOF
